<?xml version="1.0" encoding="UTF-8" standalone="no"?>
<!-- Created with Inkscape (http://www.inkscape.org/) -->
<svg
   xmlns:dc="http://purl.org/dc/elements/1.1/"
   xmlns:cc="http://creativecommons.org/ns#"
   xmlns:rdf="http://www.w3.org/1999/02/22-rdf-syntax-ns#"
   xmlns:svg="http://www.w3.org/2000/svg"
   xmlns="http://www.w3.org/2000/svg"
   xmlns:xlink="http://www.w3.org/1999/xlink"
   xmlns:sodipodi="http://sodipodi.sourceforge.net/DTD/sodipodi-0.dtd"
   xmlns:inkscape="http://www.inkscape.org/namespaces/inkscape"
   version="1.0"
   width="500"
   height="499.99997"
   viewBox="-0.811 -0.732 1708 1708"
   id="svg11310"
   xml:space="preserve"
   sodipodi:version="0.32"
   inkscape:version="0.46"
   sodipodi:docname="Cadenas-protction-rouge.svg"
   inkscape:output_extension="org.inkscape.output.svg.inkscape"><metadata
   id="metadata52"><rdf:RDF><cc:Work
       rdf:about=""><dc:format>image/svg+xml</dc:format><dc:type
         rdf:resource="http://purl.org/dc/dcmitype/StillImage" /><dc:source>http://commons.wikimedia.org/wiki/Image:Crystal_Clear_action_exit.svg http://commons.wikimedia.org/wiki/Image:Crystal_Clear_action_lock1.png</dc:source><dc:description></dc:description><dc:contributor><cc:Agent><dc:title>Everaldo Coelho, YellowIcon</dc:title></cc:Agent></dc:contributor><dc:title>Cadenas fermé rouge</dc:title><dc:date>20080613</dc:date><dc:creator><cc:Agent><dc:title>Jérôme Borme</dc:title></cc:Agent></dc:creator><cc:license
         rdf:resource="LGPL" /></cc:Work></rdf:RDF></metadata><sodipodi:namedview
   inkscape:cy="331.57426"
   inkscape:cx="140.77218"
   inkscape:zoom="0.61748916"
   inkscape:window-height="667"
   inkscape:window-width="1274"
   inkscape:pageshadow="2"
   inkscape:pageopacity="0"
   guidetolerance="10000"
   gridtolerance="10000"
   objecttolerance="10000"
   borderopacity="1.0"
   bordercolor="#666666"
   pagecolor="#71bab8"
   id="base"
   showgrid="true"
   inkscape:document-units="mm"
   inkscape:window-x="0"
   inkscape:window-y="57"
   inkscape:current-layer="svg11310"
   showguides="true"
   inkscape:guide-bbox="true" />
<defs
   id="defs11312"><inkscape:perspective
   sodipodi:type="inkscape:persp3d"
   inkscape:vp_x="0 : 249.99998 : 1"
   inkscape:vp_y="0 : 1000 : 0"
   inkscape:vp_z="500 : 249.99998 : 1"
   inkscape:persp3d-origin="250 : 166.66666 : 1"
   id="perspective54" /><linearGradient
   id="linearGradient19837"><stop
     style="stop-color:#00b400;stop-opacity:1"
     offset="0"
     id="stop19839" /><stop
     style="stop-color:#00b400;stop-opacity:0"
     offset="1"
     id="stop19841" /></linearGradient><linearGradient
   id="linearGradient14977"><stop
     style="stop-color:white;stop-opacity:0.47058824"
     offset="0"
     id="stop14979" /><stop
     style="stop-color:white;stop-opacity:0.70588237"
     offset="1"
     id="stop14981" /></linearGradient><linearGradient
   id="linearGradient14071"><stop
     style="stop-color:white;stop-opacity:1"
     offset="0"
     id="stop14073" /><stop
     style="stop-color:white;stop-opacity:0"
     offset="1"
     id="stop14075" /></linearGradient><linearGradient
   id="linearGradient14012"><stop
     style="stop-color:#00dc00;stop-opacity:1"
     offset="0"
     id="stop14014" /><stop
     style="stop-color:#3dff01;stop-opacity:0.58823532"
     offset="1"
     id="stop14016" /></linearGradient><linearGradient
   id="linearGradient14004"><stop
     style="stop-color:white;stop-opacity:1"
     offset="0"
     id="stop14006" /><stop
     style="stop-color:white;stop-opacity:0"
     offset="1"
     id="stop14008" /></linearGradient>
<linearGradient
   x1="1531.1748"
   y1="-710.26196"
   x2="514.25446"
   y2="1775.3436"
   id="linearGradient14010"
   xlink:href="#linearGradient14004"
   gradientUnits="userSpaceOnUse"
   gradientTransform="matrix(0.995461,0,0,0.995461,3.833802,3.912899)" /><linearGradient
   x1="1026.7279"
   y1="1147.7113"
   x2="1703.623"
   y2="1703.6219"
   id="linearGradient14022"
   xlink:href="#linearGradient14012"
   gradientUnits="userSpaceOnUse"
   gradientTransform="matrix(0.995461,0,0,0.995461,3.833802,3.912899)" /><linearGradient
   x1="853.22852"
   y1="6994.7397"
   x2="853.22852"
   y2="-1149.4908"
   id="linearGradient14077"
   xlink:href="#linearGradient14071"
   gradientUnits="userSpaceOnUse" /><linearGradient
   x1="1678.5588"
   y1="288.91214"
   x2="1678.5588"
   y2="1417.6237"
   id="linearGradient19843"
   xlink:href="#linearGradient19837"
   gradientUnits="userSpaceOnUse" /><inkscape:perspective
   id="perspective2493"
   inkscape:persp3d-origin="372.04724 : 350.78739 : 1"
   inkscape:vp_z="744.09448 : 526.18109 : 1"
   inkscape:vp_y="0 : 1000 : 0"
   inkscape:vp_x="0 : 526.18109 : 1"
   sodipodi:type="inkscape:persp3d" /></defs>
















<g
   transform="translate(-5.210447e-5,4.612732e-5)"
   style="opacity:1;display:inline"
   id="layer1"><path
     d="M 1417.5448,1699.8019 C 1573.387,1699.8019 1699.7228,1573.4671 1699.7228,1417.6237"
     style="fill:none;fill-opacity:0.07843137;stroke:#31e831;stroke-width:10.2480011;stroke-linecap:round;stroke-linejoin:round;stroke-miterlimit:100;stroke-dasharray:none;stroke-opacity:0.66666667"
     id="path17680" /><path
     d="M 6.6549519,1417.6237 C 6.6549519,1573.4671 132.99081,1699.8019 288.83311,1699.8019"
     style="fill:none;fill-opacity:0.07843137;stroke:#31e831;stroke-width:10.2480011;stroke-linecap:round;stroke-linejoin:round;stroke-miterlimit:100;stroke-dasharray:none;stroke-opacity:0.66666667"
     id="path17682" /><line
     style="fill:none;fill-opacity:0.07843137;stroke:#31e831;stroke-width:10.2480011;stroke-linecap:round;stroke-linejoin:round;stroke-miterlimit:100;stroke-dasharray:none;stroke-opacity:0.66666667"
     id="line17684"
     y2="1699.802"
     x2="1417.5448"
     y1="1699.802"
     x1="288.83316"
     stroke-miterlimit="500" /><line
     style="fill:none;fill-opacity:0.07843137;stroke:#31e831;stroke-width:10.2480011;stroke-linecap:round;stroke-linejoin:round;stroke-miterlimit:100;stroke-dasharray:none;stroke-opacity:0.66666667"
     id="line17690"
     y2="1417.6238"
     x2="6.654954"
     y1="288.91214"
     x1="6.654954"
     stroke-miterlimit="500" /><path
     d="M 288.83311,6.7339793 C 132.99081,6.7339793 6.6549519,133.06984 6.6549519,288.91214"
     style="fill:none;fill-opacity:0.07843137;stroke:#31e831;stroke-width:10.2480011;stroke-linecap:round;stroke-linejoin:round;stroke-miterlimit:100;stroke-dasharray:none;stroke-opacity:0.66666667"
     id="path17692" /><line
     style="fill:none;fill-opacity:0.07843137;stroke:#31e831;stroke-width:10.2480011;stroke-linecap:round;stroke-linejoin:round;stroke-miterlimit:100;stroke-dasharray:none;stroke-opacity:0.66666667"
     id="line17694"
     y2="6.733994"
     x2="288.83316"
     y1="6.733994"
     x1="1417.5448"
     stroke-miterlimit="500" /><line
     style="fill:none;fill-opacity:0.07843137;stroke:#31e831;stroke-width:10.2480011;stroke-linecap:round;stroke-linejoin:round;stroke-miterlimit:100;stroke-dasharray:none;stroke-opacity:0.66666667"
     id="line17700"
     y2="288.91214"
     x2="1699.7231"
     y1="1417.6238"
     x1="1699.7231"
     stroke-miterlimit="500" /><path
     d="M 1699.7228,288.91214 C 1699.7228,214.07442 1669.9934,142.30174 1617.0748,89.383072 C 1564.1561,36.464399 1492.3835,6.7349693 1417.5457,6.7349693 L 288.83311,6.7349693 C 213.9944,6.7349693 142.22172,36.464399 89.303052,89.383072 C 36.385372,142.30174 6.6549519,214.07442 6.6549519,288.91214 L 6.6549519,1417.6237 C 6.6549519,1492.4625 36.384382,1564.2352 89.303052,1617.1528 C 142.22172,1670.0716 213.9944,1699.801 288.83311,1699.801 L 1417.5448,1699.801 C 1492.3835,1699.801 1564.1552,1670.0716 1617.0738,1617.1528 C 1669.9925,1564.2352 1699.7219,1492.4615 1699.7219,1417.6237 L 1699.7219,288.91214 L 1699.7228,288.91214 z "
     style="opacity:1;fill:url(#linearGradient14022);fill-opacity:1;fill-rule:evenodd;display:inline"
     id="path17668" /><path
     d="M 1699.7228,288.91214 C 1699.7228,133.06984 1573.387,6.7349693 1417.5448,6.7349693 L 288.83311,6.7349693 C 132.99081,6.7339793 6.6549519,133.06984 6.6549519,288.91214 L 6.6549519,1135.4457 C 684.27075,1188.7794 1335.8205,863.00502 1699.7228,288.91214 z "
     style="opacity:1;fill:url(#linearGradient14010);fill-opacity:1;fill-rule:evenodd;display:inline"
     id="path17670" /><path
     d="M 1417.5448,1671.5836 C 1558.5029,1661.1612 1674.5607,1556.7094 1699.7228,1417.6237 C 1699.7228,1573.4671 1573.387,1699.8019 1417.5448,1699.8019 L 288.83311,1699.8019 C 132.99081,1699.8019 6.6549519,1573.4671 6.6549519,1417.6237 C 31.816212,1556.7094 147.87494,1661.1612 288.83311,1671.5836 L 1417.5448,1671.5836 z "
     style="fill:white;fill-opacity:0.25842698;fill-rule:evenodd"
     id="path11342" /><path
     d="M 1417.5448,1699.8019 C 1573.387,1699.8019 1699.7228,1573.4671 1699.7228,1417.6237"
     style="fill:none;stroke:#5f5;stroke-width:14.93190384;stroke-linecap:round;stroke-linejoin:round;stroke-miterlimit:100;stroke-dasharray:none;stroke-opacity:1"
     id="path11336" /><path
     d="M 6.6549519,1417.6237 C 6.6549519,1573.4671 132.99081,1699.8019 288.83311,1699.8019"
     style="fill:none;stroke:#5f5;stroke-width:14.93190384;stroke-linecap:round;stroke-linejoin:round;stroke-miterlimit:100;stroke-dasharray:none;stroke-opacity:1"
     id="path11334" /><line
     stroke-miterlimit="500"
     x1="288.83316"
     y1="1699.802"
     x2="1417.5448"
     y2="1699.802"
     id="line11326"
     style="fill:none;stroke:#5f5;stroke-width:14.93190384;stroke-linecap:round;stroke-linejoin:round;stroke-miterlimit:100;stroke-dasharray:none;stroke-opacity:1" /><line
     stroke-miterlimit="500"
     x1="6.654954"
     y1="288.91214"
     x2="6.654954"
     y2="1417.6238"
     id="line11332"
     style="fill:none;stroke:#5f5;stroke-width:14.93190384;stroke-linecap:round;stroke-linejoin:round;stroke-miterlimit:100;stroke-dasharray:none;stroke-opacity:1" /><path
     d="M 288.83311,6.7339793 C 132.99081,6.7339793 6.6549519,133.06984 6.6549519,288.91214"
     style="fill:none;stroke:#5f5;stroke-width:14.93190384;stroke-linecap:round;stroke-linejoin:round;stroke-miterlimit:100;stroke-dasharray:none;stroke-opacity:1"
     id="path11340" /><line
     stroke-miterlimit="500"
     x1="1417.5448"
     y1="6.733994"
     x2="288.83316"
     y2="6.733994"
     id="line11330"
     style="fill:none;stroke:#5f5;stroke-width:14.93190384;stroke-linecap:round;stroke-linejoin:round;stroke-miterlimit:100;stroke-dasharray:none;stroke-opacity:1" /><path
     d="M 1699.7228,288.91214 C 1699.7228,133.06984 1573.387,6.7349693 1417.5448,6.7349693"
     style="fill:none;stroke:#5f5;stroke-width:14.93190384;stroke-linecap:round;stroke-linejoin:round;stroke-miterlimit:100;stroke-dasharray:none;stroke-opacity:1"
     id="path11338" /><line
     stroke-miterlimit="500"
     x1="1699.7231"
     y1="1417.6238"
     x2="1699.7231"
     y2="288.91214"
     id="line11328"
     style="fill:none;stroke:#5f5;stroke-width:14.93190384;stroke-linecap:round;stroke-linejoin:round;stroke-miterlimit:100;stroke-dasharray:none;stroke-opacity:1" /><path
     d="M 1417.5448,1671.5836 C 1558.5029,1661.1612 1674.5607,1556.7094 1699.7228,1417.6237 C 1699.7228,1573.4671 1573.387,1699.8019 1417.5448,1699.8019 L 288.83311,1699.8019 C 132.99081,1699.8019 6.6549519,1573.4671 6.6549519,1417.6237 C 31.816212,1556.7094 147.87494,1661.1612 288.83311,1671.5836 L 1417.5448,1671.5836 z "
     style="fill:white;fill-opacity:0.58823529;fill-rule:evenodd"
     id="path17676" /><path
     d="M 1699.7228,288.91214 C 1699.7228,133.06984 1573.387,6.7349693 1417.5448,6.7349693"
     style="fill:none;fill-opacity:0.07843137;stroke:#31e831;stroke-width:10.2480011;stroke-linecap:round;stroke-linejoin:round;stroke-miterlimit:100;stroke-dasharray:none;stroke-opacity:0.66666667"
     id="path17696" /><path
     d="M 6.6549519,1417.6237 C 30.031352,1417.6237 48.981922,1164.954 48.981922,853.26745 C 48.981922,541.58286 30.031352,288.91214 6.6549519,288.91214 L 6.6549519,1417.6237 L 6.6549519,1417.6237 z "
     style="fill:#00b400;fill-opacity:0.58823529;fill-rule:evenodd"
     id="path11324" /><path
     d="M 1699.7228,1417.6237 C 1676.3465,1417.6237 1657.3949,1164.954 1657.3949,853.26745 C 1657.3949,541.58286 1676.3455,288.91214 1699.7228,288.91214 L 1699.7228,1417.6237 z "
     style="fill:url(#linearGradient19843);fill-opacity:1;fill-rule:evenodd"
     id="path11322" /><path
     d="M 1699.7228,288.91214 C 1652.7113,168.68342 1545.1607,82.642811 1417.5448,63.170614 L 288.83311,63.170614 C 161.21708,82.642811 53.666562,168.68243 6.6549519,288.91214 C 6.6549519,133.06984 132.99081,6.7349693 288.83311,6.7349693 L 1417.5448,6.7349693 C 1573.387,6.7339793 1699.7228,133.06984 1699.7228,288.91214 z "
     style="fill:white;fill-opacity:0.54901961;fill-rule:evenodd"
     id="path14085" /></g><g
   id="g3589"
   transform="translate(43.106908,13.199214)"><rect
     ry="99.200508"
     rx="111.04942"
     y="725.28912"
     x="362.30701"
     height="672.79132"
     width="895.20062"
     id="rect2427"
     style="fill:#ffffff;fill-opacity:1;fill-rule:nonzero;stroke:#000000;stroke-width:0.7086615;stroke-linecap:round;stroke-linejoin:round;marker:none;marker-start:none;marker-mid:none;marker-end:none;stroke-miterlimit:4;stroke-dasharray:none;stroke-dashoffset:0;stroke-opacity:1;visibility:visible;display:inline;overflow:visible;enable-background:accumulate" /><path
     sodipodi:nodetypes="ccsscsscc"
     id="path2510"
     d="M 507.5543,799.4727 C 507.5543,718.7798 507.5543,625.9829 507.5543,545.29 C 507.5543,498.2371 532.6031,445.1986 555.9701,412.1467 C 622.7675,317.6641 701.2173,291.1073 822.2567,291.1073 C 822.2567,291.1073 822.2567,436.3546 822.2567,472.6664 C 798.0488,472.6664 773.8409,472.6664 737.5291,472.6664 C 713.3212,472.6664 664.9055,496.8742 664.9055,545.29 C 664.9055,617.9137 664.9055,799.4727 664.9055,799.4727 L 507.5543,799.4727 z"
     style="fill:#ffffff;fill-opacity:1;fill-rule:evenodd;stroke:none;stroke-width:1px;stroke-linecap:butt;stroke-linejoin:miter;stroke-opacity:1" /><path
     sodipodi:nodetypes="ccsscsscc"
     id="path3338"
     d="M 1112.7512,799.4727 C 1112.7512,718.7798 1112.7512,625.9829 1112.7512,545.29 C 1112.7512,498.2371 1087.7024,445.1986 1064.3354,412.1467 C 997.538,317.6641 919.0882,291.1073 798.0488,291.1073 C 798.0488,291.1073 798.0488,436.3546 798.0488,472.6664 C 822.2567,472.6664 846.4646,472.6664 882.7764,472.6664 C 906.9843,472.6664 955.4,496.8742 955.4,545.29 C 955.4,617.9137 955.4,799.4727 955.4,799.4727 L 1112.7512,799.4727 z"
     style="fill:#ffffff;fill-opacity:1;fill-rule:evenodd;stroke:none;stroke-width:1px;stroke-linecap:butt;stroke-linejoin:miter;stroke-opacity:1" /><path
     sodipodi:nodetypes="ccc"
     id="path2499"
     style="fill:#000000;fill-opacity:0.62745098;fill-rule:evenodd;display:inline"
     d="M 564.77,399.8224 C 698.1007,254.5752 933.8066,254.3629 1054.8459,399.6101 C 970.1184,242.259 661.7889,242.4713 564.77,399.8224 z" /><path
     sodipodi:nodetypes="ccccc"
     id="path3340"
     style="fill:#000000;fill-opacity:0.62745098;fill-rule:evenodd;display:inline"
     d="M 362.3071,823.6805 C 380.463,751.0569 422.8268,726.849 507.5543,726.849 C 507.6253,724.8327 507.5543,726.849 507.5543,725.6386 C 501.5024,725.6386 474.2685,725.6386 468.2165,725.6386 C 428.8787,725.6386 365.3331,745.0049 362.3071,823.6805 z" /><path
     d="M 1258.2115,823.68054 C 1240.0556,751.05694 1197.6918,726.84904 1112.9643,726.84904 C 1112.8933,724.83274 1112.9643,726.84904 1112.9643,725.63864 C 1119.0162,725.63864 1146.2501,725.63864 1152.3021,725.63864 C 1191.6399,725.63864 1255.1855,745.00494 1258.2115,823.68054 z"
     style="opacity:1;fill:#000000;fill-opacity:0.62745098;fill-rule:evenodd;display:inline"
     id="path2453"
     sodipodi:nodetypes="ccccc" /></g></svg>