<?xml version="1.0" encoding="iso-8859-1"?>
<!-- Generator: Adobe Illustrator 19.0.0, SVG Export Plug-In . SVG Version: 6.00 Build 0)  -->
<svg version="1.1" id="Layer_1" xmlns="http://www.w3.org/2000/svg" xmlns:xlink="http://www.w3.org/1999/xlink" x="0px" y="0px"
	 viewBox="0 0 512 512" style="enable-background:new 0 0 512 512;" xml:space="preserve">
<g>
	
		<radialGradient id="SVGID_1_" cx="256" cy="258" r="256" gradientTransform="matrix(1 0 0 -1 0 514)" gradientUnits="userSpaceOnUse">
		<stop  offset="0" style="stop-color:#9C56B8"/>
		<stop  offset="1" style="stop-color:#8F3FAF"/>
	</radialGradient>
	<circle style="fill:url(#SVGID_1_);" cx="256" cy="256" r="256"/>
</g>
<path style="fill:#2A3E4F;" d="M239.459,225.718c-0.261,0.261-0.479,0.561-0.669,0.881c-0.321,0.191-0.62,0.408-0.882,0.669
	c-0.262,0.262-0.479,0.561-0.67,0.882c-0.32,0.19-0.62,0.408-0.882,0.669c-0.261,0.261-0.478,0.561-0.669,0.882
	c-0.321,0.19-0.621,0.407-0.882,0.669c-0.262,0.262-0.479,0.561-0.671,0.882c-0.32,0.191-0.619,0.408-0.881,0.67
	c-0.262,0.261-0.479,0.561-0.67,0.882c-0.32,0.191-0.62,0.408-0.883,0.669c-0.261,0.262-0.478,0.561-0.668,0.882
	c-0.321,0.191-0.621,0.408-0.883,0.669c-0.261,0.262-0.478,0.561-0.669,0.882c-0.321,0.191-0.62,0.408-0.882,0.67
	c-0.262,0.261-0.479,0.561-0.67,0.882c-0.32,0.191-0.62,0.408-0.881,0.669c-0.262,0.261-0.478,0.56-0.669,0.879
	c-0.321,0.191-0.622,0.41-0.884,0.672c-0.262,0.263-0.48,0.562-0.672,0.884c-0.319,0.191-0.618,0.408-0.879,0.669
	c-0.262,0.262-0.479,0.561-0.67,0.882c-0.32,0.19-0.62,0.408-0.881,0.669c-0.262,0.262-0.479,0.561-0.67,0.882
	c-0.32,0.191-0.62,0.408-0.882,0.669s-0.479,0.562-0.67,0.882c-0.321,0.191-0.62,0.408-0.882,0.67
	c-0.262,0.261-0.479,0.561-0.67,0.882c-0.32,0.19-0.619,0.408-0.881,0.669c-0.262,0.262-0.479,0.562-0.67,0.882
	c-0.32,0.191-0.62,0.408-0.882,0.67c-0.261,0.261-0.478,0.56-0.669,0.879c-0.321,0.191-0.621,0.41-0.883,0.672
	c-0.262,0.261-0.479,0.56-0.672,0.881c-0.319,0.191-0.618,0.408-0.879,0.669c-0.264,0.263-0.481,0.562-0.673,0.884
	c-0.319,0.191-0.618,0.408-0.879,0.669c-0.262,0.262-0.479,0.561-0.67,0.882c-0.32,0.191-0.62,0.408-0.882,0.67
	c-0.261,0.261-0.477,0.56-0.668,0.878c-0.322,0.192-0.621,0.41-0.884,0.672c-0.263,0.263-0.48,0.562-0.672,0.884
	c-0.319,0.191-0.618,0.408-0.879,0.669c-0.262,0.262-0.479,0.562-0.67,0.882c-0.321,0.191-0.62,0.408-0.882,0.67
	c-0.262,0.261-0.479,0.561-0.669,0.881c-0.321,0.191-0.621,0.408-0.882,0.67c-0.262,0.262-0.479,0.561-0.67,0.882
	c-0.32,0.191-0.62,0.408-0.882,0.67s-0.479,0.561-0.669,0.882c-0.322,0.19-0.621,0.408-0.883,0.67s-0.479,0.562-0.67,0.884
	c-0.322,0.19-0.619,0.407-0.88,0.668s-0.479,0.559-0.668,0.88c-0.323,0.19-0.622,0.408-0.885,0.67
	c-0.262,0.262-0.479,0.562-0.669,0.883c-0.321,0.19-0.621,0.408-0.883,0.67s-0.479,0.562-0.67,0.884
	c-0.321,0.19-0.619,0.407-0.881,0.668c-0.26,0.261-0.478,0.559-0.668,0.88c-0.321,0.191-0.622,0.408-0.883,0.671
	c-0.263,0.261-0.479,0.561-0.67,0.882c-0.321,0.191-0.621,0.408-0.883,0.669c-0.261,0.262-0.479,0.562-0.669,0.882
	c-0.321,0.191-0.62,0.408-0.882,0.67s-0.479,0.561-0.67,0.882c-0.32,0.19-0.62,0.408-0.881,0.669
	c-0.262,0.262-0.48,0.562-0.67,0.883c-0.321,0.19-0.621,0.407-0.883,0.669c-0.261,0.262-0.478,0.562-0.668,0.882
	c-0.322,0.191-0.621,0.408-0.883,0.67s-0.479,0.561-0.67,0.882c-0.32,0.191-0.621,0.408-0.882,0.669
	c-0.261,0.262-0.479,0.562-0.669,0.883c-0.321,0.19-0.621,0.408-0.882,0.669c-0.262,0.262-0.479,0.562-0.67,0.882
	c-0.321,0.191-0.62,0.408-0.882,0.67s-0.479,0.561-0.67,0.882c-0.32,0.191-0.62,0.408-0.882,0.669
	c-0.261,0.262-0.478,0.562-0.669,0.883c-0.321,0.19-0.621,0.408-0.883,0.669c-0.261,0.262-0.478,0.562-0.668,0.882
	c-0.322,0.191-0.621,0.408-0.883,0.67s-0.479,0.561-0.67,0.882c-0.32,0.19-0.62,0.408-0.882,0.669
	c-0.261,0.262-0.478,0.562-0.669,0.883c-0.321,0.19-0.621,0.407-0.882,0.669c-0.262,0.261-0.479,0.561-0.669,0.882
	c-0.321,0.191-0.621,0.408-0.883,0.67s-0.479,0.561-0.669,0.881c-0.321,0.191-0.621,0.409-0.883,0.671
	c-0.261,0.261-0.478,0.561-0.669,0.882c-0.321,0.19-0.621,0.407-0.882,0.669s-0.479,0.562-0.67,0.882
	c-0.32,0.191-0.62,0.408-0.882,0.67c-0.262,0.261-0.479,0.561-0.669,0.881c-0.321,0.191-0.622,0.408-0.882,0.67
	c-0.262,0.261-0.479,0.56-0.669,0.879c-0.321,0.191-0.622,0.41-0.884,0.672c-0.262,0.263-0.48,0.562-0.672,0.884
	c-0.318,0.191-0.617,0.407-0.879,0.669s-0.479,0.561-0.67,0.882c-0.32,0.19-0.621,0.407-0.883,0.669
	c-0.26,0.262-0.476,0.561-0.668,0.879c-0.32,0.191-0.62,0.41-0.883,0.672c-0.262,0.262-0.48,0.562-0.672,0.884
	c-0.318,0.191-0.617,0.407-0.879,0.669s-0.479,0.561-0.67,0.882c-0.32,0.19-0.62,0.407-0.881,0.669
	c-0.262,0.262-0.479,0.562-0.67,0.882c-0.32,0.191-0.62,0.408-0.882,0.669c-0.261,0.262-0.478,0.561-0.669,0.879
	c-0.321,0.192-0.621,0.41-0.883,0.673c-0.263,0.262-0.48,0.562-0.672,0.883c-0.319,0.192-0.618,0.408-0.879,0.669
	c-0.262,0.262-0.479,0.561-0.67,0.882c-0.321,0.191-0.621,0.408-0.882,0.67c-0.262,0.262-0.479,0.562-0.67,0.882
	c-0.32,0.191-0.62,0.408-0.882,0.669c-0.262,0.262-0.479,0.562-0.669,0.882c-0.321,0.191-0.62,0.408-0.882,0.67
	s-0.479,0.561-0.67,0.882c-0.32,0.191-0.619,0.408-0.882,0.67c-0.261,0.261-0.479,0.561-0.669,0.882
	c-0.32,0.19-0.621,0.408-0.883,0.669c-0.262,0.262-0.479,0.562-0.67,0.882c-0.32,0.191-0.619,0.408-0.881,0.67
	s-0.479,0.561-0.67,0.882c-0.32,0.19-0.62,0.407-0.881,0.669c-0.262,0.262-0.479,0.562-0.67,0.883
	c-0.321,0.19-0.62,0.407-0.882,0.669s-0.479,0.562-0.671,0.882c-0.32,0.191-0.619,0.408-0.881,0.67s-0.479,0.561-0.67,0.882
	c-0.32,0.19-0.62,0.408-0.883,0.67c-0.262,0.261-0.479,0.561-0.668,0.882c-0.321,0.19-0.621,0.407-0.882,0.669
	c-0.263,0.262-0.479,0.562-0.67,0.882c-0.321,0.191-0.62,0.408-0.882,0.67s-0.479,0.561-0.67,0.882
	c-0.32,0.19-0.62,0.408-0.882,0.67c-0.263,0.261-0.479,0.561-0.669,0.882c-0.322,0.19-0.621,0.407-0.882,0.669
	c-0.262,0.262-0.479,0.562-0.67,0.882c-0.321,0.191-0.62,0.408-0.882,0.67s-0.479,0.561-0.669,0.881
	c-0.321,0.191-0.621,0.409-0.882,0.67c-0.262,0.262-0.479,0.561-0.67,0.883c-0.321,0.19-0.621,0.408-0.883,0.669
	c-0.261,0.262-0.478,0.562-0.669,0.882c-0.321,0.191-0.62,0.408-0.882,0.67c-0.262,0.261-0.479,0.561-0.67,0.881
	c-0.32,0.191-0.62,0.408-0.881,0.67c-0.262,0.262-0.479,0.561-0.67,0.882c-0.32,0.191-0.62,0.408-0.881,0.67
	c-0.263,0.262-0.479,0.562-0.671,0.882c-0.321,0.191-0.62,0.408-0.882,0.67s-0.479,0.561-0.67,0.882
	c-0.32,0.19-0.62,0.408-0.882,0.669c-0.261,0.262-0.478,0.562-0.669,0.882c-0.32,0.191-0.62,0.408-0.882,0.669
	c-0.261,0.262-0.479,0.562-0.669,0.883c-0.321,0.19-0.621,0.408-0.883,0.67s-0.479,0.561-0.67,0.882
	c-0.32,0.19-0.619,0.407-0.881,0.669s-0.479,0.562-0.67,0.882c-0.322,0.191-0.621,0.408-0.882,0.67
	c-0.262,0.261-0.479,0.561-0.669,0.882c-0.322,0.191-0.621,0.408-0.883,0.669c-0.262,0.262-0.479,0.562-0.669,0.882
	c-0.321,0.191-0.62,0.408-0.882,0.67s-0.479,0.561-0.67,0.882c-0.322,0.191-0.62,0.408-0.882,0.67
	c-0.262,0.261-0.479,0.561-0.671,0.882c-0.319,0.191-0.619,0.408-0.881,0.669c-0.261,0.262-0.478,0.562-0.669,0.882
	c-0.321,0.191-0.62,0.408-0.882,0.67s-0.479,0.561-0.67,0.882c-0.32,0.191-0.62,0.408-0.882,0.67
	c-0.262,0.261-0.479,0.561-0.669,0.882c-0.322,0.191-0.621,0.408-0.883,0.67c-0.262,0.261-0.479,0.561-0.669,0.881
	c-0.321,0.191-0.62,0.408-0.882,0.67s-0.479,0.561-0.67,0.882c-0.32,0.19-0.62,0.407-0.881,0.669
	c-0.262,0.262-0.479,0.562-0.67,0.883c-0.32,0.19-0.62,0.407-0.882,0.669c-0.261,0.262-0.479,0.562-0.67,0.882
	c-0.321,0.191-0.62,0.408-0.882,0.67s-0.479,0.561-0.67,0.882c-0.32,0.19-0.621,0.408-0.882,0.669
	c-0.261,0.262-0.478,0.562-0.669,0.883c-0.32,0.19-0.621,0.408-0.882,0.669c-0.262,0.262-0.479,0.562-0.67,0.882
	c-0.32,0.191-0.62,0.408-0.882,0.67s-0.479,0.561-0.67,0.882c-0.32,0.19-0.621,0.407-0.882,0.669s-0.479,0.562-0.669,0.883
	c-0.321,0.19-0.621,0.407-0.883,0.669c-0.261,0.262-0.478,0.562-0.67,0.882c-0.319,0.191-0.619,0.408-0.881,0.67
	s-0.479,0.561-0.67,0.882c-0.32,0.19-0.62,0.407-0.883,0.669c-0.26,0.262-0.478,0.562-0.668,0.883
	c-0.321,0.19-0.621,0.408-0.882,0.669c-0.262,0.262-0.479,0.562-0.67,0.882c-0.321,0.191-0.62,0.408-0.882,0.67
	s-0.479,0.561-0.67,0.882c-0.32,0.19-0.62,0.407-0.882,0.669c-0.261,0.262-0.478,0.562-0.669,0.883
	c-0.321,0.19-0.621,0.408-0.882,0.669c-0.262,0.261-0.479,0.562-0.669,0.882c-0.322,0.191-0.621,0.408-0.883,0.67
	s-0.479,0.561-0.67,0.881c-0.32,0.191-0.621,0.408-0.882,0.67s-0.478,0.562-0.669,0.882c-0.321,0.191-0.621,0.409-0.882,0.67
	c-0.262,0.261-0.479,0.561-0.669,0.882c-0.32,0.191-0.621,0.408-0.883,0.67s-0.479,0.561-0.67,0.881
	c-0.32,0.191-0.619,0.408-0.881,0.67s-0.479,0.561-0.67,0.882c-0.32,0.19-0.621,0.408-0.883,0.669
	c-0.261,0.262-0.478,0.562-0.668,0.883c-0.321,0.191-0.621,0.408-0.883,0.67s-0.479,0.561-0.67,0.881
	c-0.32,0.191-0.619,0.408-0.881,0.67s-0.479,0.561-0.67,0.882c-0.321,0.191-0.62,0.408-0.883,0.669
	c-0.26,0.262-0.479,0.562-0.669,0.883c-0.32,0.191-0.62,0.408-0.882,0.669c-0.262,0.262-0.479,0.562-0.669,0.882
	c-0.321,0.191-0.62,0.408-0.882,0.67s-0.479,0.562-0.67,0.883c-0.32,0.19-0.62,0.407-0.882,0.669
	c-0.263,0.261-0.479,0.562-0.669,0.882c-0.321,0.191-0.621,0.408-0.883,0.67c-0.261,0.261-0.479,0.561-0.67,0.881
	c-0.32,0.191-0.619,0.408-0.881,0.67s-0.479,0.561-0.67,0.882c-0.32,0.19-0.62,0.408-0.882,0.67
	c-0.066,0.066-0.123,0.142-0.185,0.213c16.104,20.9,35.363,39.239,57.066,54.31c0.141-0.105,0.275-0.219,0.4-0.344
	c0.261-0.262,0.477-0.562,0.668-0.883c0.321-0.191,0.621-0.407,0.883-0.669c0.262-0.261,0.478-0.562,0.67-0.882
	c0.319-0.191,0.62-0.408,0.881-0.67c0.262-0.262,0.479-0.562,0.67-0.881c0.32-0.192,0.621-0.408,0.883-0.67s0.477-0.562,0.669-0.883
	c0.319-0.191,0.62-0.407,0.882-0.669c0.262-0.261,0.478-0.562,0.669-0.882c0.321-0.191,0.62-0.408,0.883-0.67
	c0.261-0.261,0.478-0.562,0.669-0.882c0.32-0.191,0.621-0.407,0.882-0.669c0.262-0.262,0.478-0.562,0.669-0.883
	c0.32-0.191,0.621-0.407,0.883-0.669s0.478-0.562,0.67-0.882c0.319-0.191,0.62-0.408,0.881-0.67c0.263-0.262,0.479-0.562,0.67-0.882
	c0.32-0.191,0.621-0.407,0.882-0.669c0.262-0.262,0.478-0.562,0.67-0.883c0.319-0.191,0.62-0.407,0.882-0.669
	c0.262-0.261,0.478-0.562,0.67-0.882c0.319-0.191,0.621-0.408,0.881-0.67c0.262-0.261,0.479-0.561,0.67-0.882
	c0.32-0.191,0.621-0.407,0.882-0.669c0.262-0.262,0.478-0.562,0.669-0.883c0.32-0.191,0.621-0.406,0.883-0.668
	s0.477-0.562,0.67-0.883c0.319-0.191,0.62-0.408,0.881-0.669c0.262-0.262,0.478-0.562,0.67-0.882c0.32-0.192,0.62-0.408,0.882-0.67
	s0.478-0.562,0.669-0.882c0.32-0.192,0.621-0.407,0.883-0.669s0.478-0.562,0.669-0.883c0.32-0.191,0.621-0.408,0.882-0.669
	c0.262-0.262,0.478-0.562,0.67-0.882c0.32-0.192,0.619-0.408,0.882-0.67c0.262-0.262,0.478-0.562,0.669-0.882
	c0.32-0.192,0.621-0.407,0.883-0.669s0.478-0.562,0.668-0.883c0.321-0.191,0.622-0.408,0.884-0.67
	c0.261-0.261,0.478-0.562,0.669-0.881c0.32-0.191,0.62-0.408,0.881-0.67c0.263-0.262,0.479-0.562,0.67-0.882
	c0.32-0.191,0.621-0.407,0.883-0.669s0.478-0.562,0.669-0.883c0.32-0.191,0.62-0.408,0.882-0.67c0.262-0.261,0.479-0.561,0.67-0.881
	c0.32-0.192,0.621-0.408,0.882-0.67s0.478-0.562,0.669-0.882c0.32-0.192,0.621-0.407,0.883-0.669s0.479-0.562,0.669-0.883
	c0.32-0.191,0.62-0.407,0.882-0.669s0.479-0.562,0.67-0.882c0.32-0.192,0.62-0.408,0.882-0.67s0.478-0.562,0.669-0.882
	c0.32-0.192,0.621-0.407,0.883-0.669c0.261-0.262,0.477-0.562,0.669-0.883c0.321-0.191,0.62-0.407,0.882-0.669
	c0.262-0.261,0.478-0.562,0.67-0.882c0.319-0.191,0.619-0.408,0.881-0.669c0.262-0.262,0.479-0.562,0.67-0.883
	c0.32-0.192,0.621-0.407,0.883-0.669c0.261-0.262,0.477-0.562,0.67-0.883c0.319-0.191,0.619-0.408,0.881-0.669
	s0.478-0.562,0.668-0.882c0.322-0.191,0.622-0.408,0.884-0.67c0.261-0.261,0.478-0.562,0.669-0.882
	c0.32-0.191,0.621-0.407,0.881-0.669c0.263-0.262,0.479-0.562,0.671-0.883c0.319-0.191,0.62-0.407,0.882-0.669
	c0.262-0.261,0.478-0.562,0.67-0.882c0.319-0.191,0.62-0.408,0.882-0.67c0.261-0.261,0.478-0.562,0.669-0.882
	c0.32-0.191,0.621-0.407,0.882-0.669s0.478-0.562,0.669-0.883c0.32-0.191,0.621-0.407,0.883-0.669s0.477-0.562,0.67-0.882
	c0.318-0.191,0.619-0.408,0.882-0.67c0.261-0.262,0.478-0.562,0.669-0.881c0.32-0.192,0.621-0.408,0.882-0.67
	c0.262-0.262,0.478-0.562,0.669-0.882c0.32-0.192,0.621-0.407,0.883-0.669s0.478-0.562,0.669-0.883
	c0.319-0.191,0.62-0.408,0.882-0.67c0.262-0.261,0.479-0.562,0.67-0.882c0.32-0.191,0.621-0.407,0.882-0.669
	c0.262-0.262,0.478-0.562,0.669-0.883c0.32-0.191,0.621-0.407,0.883-0.668c0.262-0.262,0.478-0.562,0.668-0.883
	c0.321-0.191,0.622-0.408,0.883-0.669c0.262-0.262,0.478-0.562,0.67-0.882c0.32-0.192,0.621-0.408,0.881-0.67
	c0.263-0.262,0.479-0.562,0.671-0.883c0.319-0.191,0.62-0.407,0.882-0.668c0.262-0.262,0.477-0.562,0.669-0.883
	c0.32-0.191,0.62-0.408,0.882-0.67c0.262-0.261,0.479-0.561,0.67-0.881c0.32-0.191,0.62-0.408,0.882-0.67
	c0.261-0.262,0.478-0.562,0.669-0.882c0.32-0.191,0.621-0.407,0.883-0.669c0.262-0.263,0.479-0.563,0.67-0.886
	c0.32-0.19,0.619-0.407,0.88-0.668s0.478-0.559,0.667-0.88c0.322-0.191,0.623-0.407,0.886-0.67c0.261-0.26,0.477-0.56,0.668-0.879
	c0.321-0.191,0.622-0.409,0.884-0.672c0.263-0.262,0.48-0.562,0.672-0.884c0.319-0.19,0.617-0.407,0.879-0.668
	c0.262-0.262,0.479-0.562,0.67-0.882c0.32-0.192,0.62-0.408,0.881-0.67c0.263-0.262,0.479-0.562,0.67-0.882
	c0.32-0.192,0.621-0.407,0.883-0.669s0.478-0.562,0.668-0.883c0.32-0.191,0.621-0.407,0.883-0.669
	c0.262-0.261,0.478-0.562,0.67-0.882c0.32-0.191,0.621-0.408,0.881-0.67c0.262-0.261,0.479-0.562,0.67-0.882
	c0.32-0.191,0.621-0.407,0.882-0.669c0.262-0.262,0.478-0.562,0.67-0.883c0.32-0.191,0.62-0.407,0.882-0.669
	c0.262-0.261,0.477-0.562,0.669-0.882c0.32-0.191,0.621-0.408,0.882-0.669c0.262-0.262,0.479-0.562,0.67-0.883
	c0.32-0.191,0.621-0.407,0.883-0.669c0.261-0.262,0.477-0.562,0.669-0.883c0.32-0.191,0.62-0.407,0.882-0.669
	s0.478-0.562,0.67-0.882c0.319-0.191,0.62-0.408,0.882-0.67c0.261-0.261,0.478-0.562,0.669-0.882
	c0.32-0.191,0.621-0.407,0.882-0.669c0.262-0.262,0.478-0.562,0.669-0.882c0.32-0.192,0.621-0.408,0.883-0.67
	s0.478-0.562,0.67-0.882c0.319-0.191,0.62-0.408,0.882-0.67c0.261-0.261,0.478-0.562,0.669-0.882
	c0.32-0.191,0.621-0.407,0.881-0.669c0.263-0.262,0.479-0.562,0.67-0.882c0.32-0.192,0.621-0.408,0.883-0.67s0.479-0.563,0.67-0.886
	c0.32-0.189,0.619-0.406,0.879-0.667c0.262-0.261,0.479-0.56,0.668-0.88c0.322-0.191,0.624-0.408,0.886-0.67
	c0.261-0.262,0.478-0.562,0.67-0.883c0.319-0.191,0.62-0.407,0.882-0.668c0.262-0.262,0.479-0.562,0.669-0.883
	c0.32-0.191,0.621-0.408,0.883-0.67c0.261-0.261,0.478-0.562,0.669-0.881c0.32-0.192,0.62-0.408,0.883-0.67
	c0.261-0.262,0.477-0.562,0.669-0.883c0.319-0.191,0.62-0.407,0.882-0.669c0.262-0.261,0.478-0.562,0.67-0.882
	c0.32-0.191,0.619-0.408,0.881-0.669c0.262-0.262,0.479-0.562,0.67-0.882c0.32-0.192,0.621-0.408,0.882-0.67
	c0.263-0.262,0.478-0.562,0.669-0.882c0.32-0.192,0.621-0.408,0.883-0.67c0.262-0.261,0.478-0.562,0.67-0.882
	c0.319-0.191,0.62-0.408,0.881-0.669c0.262-0.262,0.478-0.562,0.67-0.882c0.32-0.192,0.62-0.408,0.882-0.67s0.478-0.562,0.669-0.882
	c0.32-0.192,0.621-0.407,0.883-0.669s0.478-0.562,0.669-0.883c0.32-0.191,0.62-0.407,0.882-0.669s0.478-0.562,0.67-0.882
	c0.32-0.192,0.62-0.408,0.882-0.67c0.261-0.261,0.478-0.562,0.669-0.882c0.32-0.192,0.621-0.408,0.883-0.669
	c0.262-0.262,0.477-0.562,0.669-0.883c0.32-0.191,0.621-0.408,0.882-0.669c0.262-0.262,0.479-0.562,0.67-0.882
	c0.32-0.192,0.619-0.408,0.882-0.67c0.262-0.262,0.478-0.562,0.669-0.882c0.32-0.192,0.621-0.408,0.883-0.669
	c0.261-0.262,0.477-0.562,0.669-0.883c0.32-0.191,0.62-0.407,0.882-0.669c0.261-0.261,0.477-0.56,0.668-0.88
	c0.322-0.19,0.621-0.408,0.885-0.671c0.262-0.262,0.479-0.562,0.67-0.884c0.32-0.191,0.619-0.407,0.881-0.668
	c0.261-0.262,0.477-0.562,0.668-0.883c0.321-0.191,0.621-0.407,0.883-0.669s0.478-0.562,0.67-0.882
	c0.319-0.191,0.62-0.408,0.881-0.67c0.262-0.261,0.479-0.562,0.67-0.882c0.32-0.191,0.621-0.407,0.883-0.669
	c0.261-0.262,0.477-0.562,0.669-0.883c0.32-0.191,0.62-0.407,0.882-0.669s0.477-0.562,0.67-0.882c0.32-0.192,0.62-0.408,0.882-0.67
	c0.261-0.261,0.478-0.562,0.669-0.882c0.32-0.191,0.621-0.407,0.882-0.669c0.262-0.262,0.478-0.562,0.67-0.883
	c0.319-0.191,0.62-0.407,0.882-0.668c0.262-0.262,0.477-0.562,0.669-0.883c0.32-0.191,0.621-0.408,0.882-0.669
	c0.262-0.262,0.479-0.562,0.67-0.882c0.32-0.192,0.621-0.408,0.883-0.67c0.261-0.262,0.477-0.562,0.669-0.883
	c0.319-0.191,0.62-0.407,0.882-0.668c0.262-0.262,0.478-0.562,0.668-0.883c0.32-0.191,0.621-0.408,0.884-0.67
	c0.262-0.262,0.478-0.562,0.669-0.882c0.32-0.191,0.621-0.407,0.883-0.669c0.261-0.262,0.477-0.562,0.668-0.882
	c0.321-0.192,0.621-0.408,0.883-0.67c0.262-0.261,0.478-0.562,0.67-0.882c0.319-0.191,0.62-0.408,0.881-0.669
	c0.262-0.262,0.479-0.562,0.67-0.883c0.32-0.191,0.621-0.407,0.883-0.669c0.26-0.262,0.477-0.562,0.668-0.882
	c0.32-0.192,0.621-0.408,0.883-0.669c0.262-0.262,0.478-0.562,0.669-0.883c0.32-0.191,0.62-0.407,0.882-0.669
	s0.479-0.562,0.67-0.882c0.32-0.192,0.62-0.408,0.882-0.67c0.261-0.262,0.478-0.562,0.669-0.882c0.32-0.192,0.621-0.407,0.883-0.669
	c0.262-0.263,0.479-0.563,0.67-0.886c0.32-0.19,0.619-0.407,0.88-0.668s0.478-0.56,0.668-0.88c0.321-0.191,0.623-0.408,0.885-0.67
	s0.478-0.562,0.669-0.882c0.32-0.192,0.621-0.408,0.883-0.669c0.261-0.262,0.477-0.562,0.669-0.883
	c0.319-0.191,0.62-0.407,0.882-0.669c0.262-0.261,0.478-0.56,0.668-0.88c0.322-0.19,0.622-0.408,0.885-0.671
	s0.481-0.563,0.672-0.887c0.319-0.19,0.617-0.407,0.877-0.667c0.262-0.261,0.479-0.56,0.668-0.88
	c0.322-0.191,0.623-0.408,0.885-0.67c0.262-0.261,0.478-0.56,0.668-0.88c0.322-0.19,0.623-0.409,0.885-0.671
	c0.262-0.263,0.48-0.563,0.672-0.887c0.319-0.19,0.617-0.407,0.877-0.667c0.261-0.261,0.478-0.559,0.668-0.88
	c0.322-0.19,0.623-0.407,0.885-0.67c5.076-5.077-3.283-21.668-18.673-37.058C261.127,229.002,244.535,220.642,239.459,225.718z"/>
<ellipse transform="matrix(0.7071 -0.7071 0.7071 0.7071 -101.0108 263.2973)" style="fill:#32495D;" cx="267.323" cy="253.579" rx="13" ry="39.407"/>
<path style="fill:#ECF0F1;" d="M243.628,332.797c0.319-0.191,0.621-0.408,0.882-0.669c0.081-0.081,0.15-0.172,0.224-0.26
	c-5.346,4.592-21.655-3.737-36.806-18.888c-15.152-15.152-23.48-31.461-18.889-36.807c-0.088,0.074-0.178,0.143-0.259,0.224
	c-0.263,0.262-0.479,0.562-0.67,0.882c-0.321,0.191-0.62,0.408-0.882,0.67s-0.479,0.561-0.67,0.882
	c-0.32,0.19-0.62,0.408-0.882,0.669c-0.262,0.262-0.479,0.562-0.669,0.883c-0.322,0.19-0.621,0.407-0.883,0.669
	c-0.261,0.262-0.479,0.562-0.669,0.882c-0.321,0.191-0.62,0.408-0.882,0.67s-0.479,0.561-0.67,0.882
	c-0.32,0.191-0.621,0.408-0.882,0.67c-0.261,0.261-0.479,0.561-0.669,0.882c-0.053,0.031-0.1,0.068-0.152,0.1
	c-3.764,5.784,4.514,21.602,19.24,36.329c14.727,14.727,30.545,23.004,36.328,19.239c0.031-0.052,0.069-0.1,0.102-0.15
	c0.32-0.192,0.62-0.408,0.881-0.67c0.262-0.261,0.479-0.562,0.67-0.882c0.32-0.192,0.621-0.408,0.883-0.669
	c0.261-0.262,0.477-0.562,0.669-0.883c0.32-0.191,0.62-0.407,0.882-0.669s0.479-0.562,0.67-0.882c0.319-0.191,0.62-0.408,0.882-0.67
	c0.261-0.262,0.478-0.562,0.669-0.882c0.32-0.192,0.621-0.408,0.883-0.669C243.219,333.418,243.436,333.117,243.628,332.797z"/>
<path style="fill:#F4C342;" d="M357.047,231.127c0-50.607-24.312-74.918-74.918-74.918c50.605,0,74.918-24.312,74.918-74.919
	c0,50.606,24.312,74.919,74.918,74.919C381.359,156.209,357.047,180.52,357.047,231.127z"/>
<path style="fill:#F4C342;" d="M167.152,250.063c0-29.682-14.26-43.939-43.939-43.939c29.68,0,43.939-14.259,43.939-43.939
	c0,29.681,14.259,43.939,43.939,43.939C181.411,206.124,167.152,220.382,167.152,250.063z"/>
<path style="fill:#F4C342;" d="M390.787,417.543c0-29.43-14.139-43.566-43.566-43.566c29.428,0,43.566-14.138,43.566-43.566
	c0,29.429,14.139,43.566,43.566,43.566C404.926,373.977,390.787,388.113,390.787,417.543z"/>
<path style="fill:#ECF0F1;" d="M420.047,273.127c0-20.21-9.709-29.918-29.918-29.918c20.209,0,29.918-9.709,29.918-29.919
	c0,20.209,9.71,29.919,29.918,29.919C429.757,243.209,420.047,252.917,420.047,273.127z"/>
<path style="fill:#ECF0F1;" d="M247.047,174.126c0-13.455-6.463-19.918-19.918-19.918c13.455,0,19.918-6.464,19.918-19.918
	c0,13.455,6.465,19.918,19.918,19.918C253.512,154.208,247.047,160.672,247.047,174.126z"/>
<g>
</g>
<g>
</g>
<g>
</g>
<g>
</g>
<g>
</g>
<g>
</g>
<g>
</g>
<g>
</g>
<g>
</g>
<g>
</g>
<g>
</g>
<g>
</g>
<g>
</g>
<g>
</g>
<g>
</g>
</svg>
