<?xml version="1.0" encoding="iso-8859-1"?>
<!-- Generator: Adobe Illustrator 19.0.0, SVG Export Plug-In . SVG Version: 6.00 Build 0)  -->
<svg version="1.1" id="Layer_1" xmlns="http://www.w3.org/2000/svg" xmlns:xlink="http://www.w3.org/1999/xlink" x="0px" y="0px"
	 viewBox="0 0 512 512" style="enable-background:new 0 0 512 512;" xml:space="preserve">
<radialGradient id="SVGID_1_" cx="256" cy="258" r="256" gradientTransform="matrix(1 0 0 -1 0 514)" gradientUnits="userSpaceOnUse">
	<stop  offset="0.0051" style="stop-color:#1ECA6B"/>
	<stop  offset="0.9949" style="stop-color:#19A658"/>
</radialGradient>
<circle style="fill:url(#SVGID_1_);" cx="256" cy="256" r="256"/>
<g>
	<g>
		<path style="fill:#EC7C2D;" d="M151.143,391.916l-15.531-15.529l-15.527-15.527c-1.557-1.557-4.06-1.574-5.643,0.008
			l-33.523,33.523c-1.582,1.582-1.655,4.178-0.1,5.734l15.528,15.527l15.528,15.529c1.556,1.555,4.152,1.482,5.734-0.1
			l33.523-33.523C152.714,395.977,152.696,393.473,151.143,391.916z"/>
		<path style="fill:#D9521E;" d="M151.143,391.916l-15.531-15.529l-39.265,39.266l15.528,15.529c1.556,1.555,4.152,1.482,5.734-0.1
			l33.523-33.523C152.714,395.977,152.696,393.473,151.143,391.916z"/>
		<path style="fill:#32495D;" d="M431.765,80.235c-0.784-0.784-2.381-0.759-4.646,0.316l-15.049,7.128l6.124,6.125l6.128,6.126
			l7.125-15.05C432.523,82.616,432.549,81.018,431.765,80.235z"/>
		<path style="fill:#2A3E4F;" d="M424.322,99.93l7.125-15.05c1.076-2.265,1.102-3.862,0.317-4.646l-13.57,13.569L424.322,99.93z"/>
		<path style="fill:#F89B36;" d="M418.194,93.804l-6.124-6.125l-41.961,19.918c-4.531,2.149-11.158,6.828-14.695,10.366
			l-9.653,9.653c-3.538,3.538-3.474,9.364,0.128,12.965l12.766,12.766l12.764,12.765c3.602,3.6,9.426,3.667,12.965,0.127
			l9.652-9.652c3.539-3.54,8.217-10.166,10.367-14.696l19.92-41.96L418.194,93.804z"/>
		<path style="fill:#F4C342;" d="M412.07,87.679l-41.961,19.918c-4.531,2.149-11.158,6.828-14.695,10.366l-9.653,9.653
			c-3.538,3.538-3.474,9.364,0.128,12.965l12.766,12.766l59.54-59.543L412.07,87.679z"/>
		<g>
			<polygon style="fill:#1380B6;" points="171.336,379.283 161.682,369.629 373.107,158.205 395.631,154.991 			"/>
			<polygon style="fill:#1C99D8;" points="376.32,135.679 353.795,138.893 142.371,350.318 152.025,359.973 161.682,369.629 
				373.107,158.205 			"/>
			<polygon style="fill:#1380B6;" points="132.715,340.662 142.692,350.639 354.117,139.215 357.01,116.369 			"/>
		</g>
		<path style="fill:#BDC3C7;" d="M138.232,415.607c-1.771,1.77-4.713,1.814-6.482,0.045L96.347,380.25
			c-1.771-1.77-1.724-4.713,0.047-6.482l37.644-37.645c1.77-1.77,4.633-1.736,6.403,0.033l35.403,35.402
			c1.77,1.771,1.803,4.635,0.033,6.406L138.232,415.607z"/>
		<g>
			<g>
				<path style="fill:#ECF0F1;" d="M166.869,393.408c-0.883,0.885-2.334,0.885-3.217,0l-45.061-45.061
					c-0.885-0.883-0.885-2.332,0-3.217l5.469-5.471c0.886-0.885,2.334-0.883,3.22,0l45.058,45.061
					c0.887,0.883,0.887,2.332,0.001,3.217L166.869,393.408z"/>
			</g>
			<g>
				<path style="fill:#ECF0F1;" d="M147.887,412.393c-0.887,0.885-2.334,0.883-3.219-0.002l-45.059-45.059
					c-0.885-0.885-0.887-2.334,0-3.219l5.469-5.469c0.885-0.885,2.333-0.885,3.219,0l45.057,45.059
					c0.887,0.885,0.887,2.334,0.002,3.217L147.887,412.393z"/>
			</g>
		</g>
	</g>
	<g>
		<path style="fill:#32495D;" d="M86.303,86.455l-0.48-0.48c0.026,0.137,0.055,0.266,0.081,0.401
			c-0.136-0.025-0.267-0.053-0.403-0.079l0.485,0.485c15.459,78.206,50.861,67.896,50.861,67.896l8.841-8.84v-0.001l8.92-8.92
			C154.607,136.917,164.838,101.592,86.303,86.455z"/>
		<path style="fill:#2A3E4F;" d="M154.607,136.917c0,0,10.312-35.57-69.107-50.62l59.865,59.862L154.607,136.917z"/>
		<path style="fill:#EE483C;" d="M424.238,406.494L232.432,197.212c-3.104-3.385-8.561-8.369-12.213-11.155l-36.256-27.645
			l-12.85,12.851l-12.208,12.208l27.644,36.256c2.787,3.649,7.771,9.108,11.156,12.212l209.314,191.84
			c3.385,3.104,8.766,2.965,11.996-0.266l2.172-2.174l2.818-2.816C427.236,415.291,427.342,409.877,424.238,406.494z"/>
		<path style="fill:#C6362B;" d="M220.219,186.057l-36.256-27.645l-12.85,12.851L421.188,421.34l2.818-2.816
			c3.23-3.232,3.336-8.646,0.232-12.029L232.432,197.212C229.328,193.828,223.871,188.843,220.219,186.057z"/>
		<polygon style="fill:#F4C342;" points="155.17,136.354 145.688,145.837 136.847,154.677 170.844,199.213 184.953,185.103 
			199.705,170.35 		"/>
		<polygon style="fill:#F89B36;" points="145.688,145.837 184.953,185.103 199.705,170.35 155.17,136.354 		"/>
	</g>
</g>
<g>
</g>
<g>
</g>
<g>
</g>
<g>
</g>
<g>
</g>
<g>
</g>
<g>
</g>
<g>
</g>
<g>
</g>
<g>
</g>
<g>
</g>
<g>
</g>
<g>
</g>
<g>
</g>
<g>
</g>
</svg>
