<?xml version="1.0" encoding="iso-8859-1"?>
<!-- Generator: Adobe Illustrator 19.0.0, SVG Export Plug-In . SVG Version: 6.00 Build 0)  -->
<svg version="1.1" id="Layer_1" xmlns="http://www.w3.org/2000/svg" xmlns:xlink="http://www.w3.org/1999/xlink" x="0px" y="0px"
	 viewBox="0 0 512 512" style="enable-background:new 0 0 512 512;" xml:space="preserve">
<g id="Others">
</g>
<g id="Design">
</g>
<g id="SEO_x2F__Web">
</g>
<g id="Finance__x2F__Money">
</g>
<g id="E-Commerce__x2F__Shopping">
</g>
<g id="Strategy">
	<g id="partnership">
		
			<radialGradient id="SVGID_1_" cx="256" cy="258" r="256" gradientTransform="matrix(1 0 0 -1 0 514)" gradientUnits="userSpaceOnUse">
			<stop  offset="0" style="stop-color:#2A93D8"/>
			<stop  offset="1" style="stop-color:#227FBB"/>
		</radialGradient>
		<path style="fill:url(#SVGID_1_);" d="M512,256c0,141.385-114.615,256-256,256S0,397.385,0,256c0-5.644,0.183-11.245,0.542-16.797
			c2.532-39.087,51.945-24.729,70.074-57.086c15.096-26.946-3.185-101.939,20.25-121.742C135.443,22.707,193.07,0,256,0
			s120.556,22.706,165.132,60.373c22.964,19.404,0.486,92.458,15.465,118.744c17.726,31.105,71.098,16.606,74.404,54.11
			C511.662,240.729,512,248.325,512,256z"/>
		<path style="fill:#33495F;" d="M511.191,235.6c-2.976-37.74-14.144-73.17-31.714-104.532
			c-15.097-26.946-34.922-50.879-58.357-70.682l-96.521,96.521l132.699,132.7l53.902-53.902
			C511.198,235.67,511.194,235.635,511.191,235.6z"/>
		<path style="fill:#2B3E51;" d="M389.118,221.427l68.123,68.124l53.95-53.95c-2.976-37.74-14.144-73.17-31.714-104.532
			l-43.227,43.228L389.118,221.427z"/>
		<path style="fill:#95A5A6;" d="M90.879,60.387c-23.435,19.802-43.26,43.735-58.356,70.682
			c-17.57,31.362-28.738,66.792-31.714,104.533l53.949,53.949l44.996-44.995l23.128-23.128l64.519-64.519L90.879,60.387z"/>
		<path style="fill:#7F8C8D;" d="M0.809,235.601l53.949,53.949l44.996-44.995l23.128-23.128l-90.359-90.358
			C14.953,162.431,3.785,197.861,0.809,235.601z"/>
		
			<rect x="233.643" y="222.304" transform="matrix(0.7071 -0.7071 0.7071 0.7071 -120.8361 309.882)" style="fill:#D55400;" width="159.998" height="156.999"/>
		<path style="fill:#D55400;" d="M131.912,399.799c7.778,7.778,20.506,7.778,28.284,0l71.418-71.418
			c7.778-7.778,7.778-20.506,0-28.284l0,0c-7.778-7.778-20.506-7.778-28.284,0l-71.418,71.418
			C124.134,379.292,124.134,392.021,131.912,399.799L131.912,399.799z"/>
		<path style="fill:#D55400;" d="M148.883,446.468c8.556,8.556,22.557,8.556,31.112,0l98.995-98.995
			c8.557-8.556,8.557-22.557,0-31.112l0,0c-8.556-8.556-22.557-8.556-31.112,0l-98.995,98.995
			C140.326,423.911,140.327,437.912,148.883,446.468L148.883,446.468z"/>
		<path style="fill:#D55400;" d="M190.602,465.56c7.001,7,18.456,7,25.456,0l84.854-84.853c7-7,7-18.456,0-25.456l0,0
			c-7.001-7-18.456-7-25.456,0l-84.854,84.853C183.602,447.104,183.602,458.56,190.602,465.56L190.602,465.56z"/>
		<path style="fill:#D55400;" d="M233.028,472.631c5.445,5.445,14.354,5.445,19.799,0l72.832-72.832
			c5.445-5.445,5.445-14.354,0-19.799l0,0c-5.444-5.445-14.354-5.445-19.799,0l-72.832,72.832
			C227.584,458.276,227.584,467.186,233.028,472.631L233.028,472.631z"/>
		
			<rect x="361.432" y="150.153" transform="matrix(0.7071 -0.7071 0.7071 0.7071 -55.8797 337.0633)" style="fill:#ECF0F1;" width="35" height="171.663"/>
		
			<rect x="390.672" y="220.781" transform="matrix(0.7071 -0.7071 0.7071 0.7071 -67.9905 366.303)" style="fill:#BDC3C7;" width="35" height="88.884"/>
		<circle style="fill:#ECF0F1;" cx="460.515" cy="224.198" r="20.475"/>
		
			<rect x="118.361" y="222.302" transform="matrix(-0.7071 -0.7071 0.7071 -0.7071 125.9254 653.7618)" style="fill:#F59D00;" width="159.999" height="156.999"/>
		<path style="fill:#F59D00;" d="M380.087,399.799c-7.778,7.778-20.506,7.778-28.284,0l-71.418-71.418
			c-7.777-7.778-7.777-20.506,0-28.284l0,0c7.778-7.778,20.507-7.778,28.284,0l71.418,71.418
			C387.865,379.292,387.865,392.021,380.087,399.799L380.087,399.799z"/>
		<path style="fill:#F59D00;" d="M363.116,446.468c-8.556,8.556-22.556,8.556-31.112,0l-98.995-98.995
			c-8.556-8.556-8.556-22.557,0-31.112l0,0c8.557-8.556,22.557-8.556,31.113,0l98.994,98.995
			C371.673,423.911,371.673,437.912,363.116,446.468L363.116,446.468z"/>
		<path style="fill:#F59D00;" d="M321.397,465.56c-7,7-18.456,7-25.456,0l-84.853-84.853c-7-7-7-18.456,0-25.456l0,0
			c7-7,18.455-7,25.456,0l84.853,84.853C328.397,447.104,328.397,458.56,321.397,465.56L321.397,465.56z"/>
		<path style="fill:#F59D00;" d="M278.971,472.631c-5.444,5.445-14.354,5.445-19.799,0l-72.832-72.832
			c-5.444-5.445-5.444-14.354,0-19.799l0,0c5.445-5.445,14.354-5.445,19.799,0l72.832,72.832
			C284.416,458.276,284.416,467.186,278.971,472.631L278.971,472.631z"/>
		
			<rect x="115.578" y="150.153" transform="matrix(-0.7071 -0.7071 0.7071 -0.7071 60.3115 496.9509)" style="fill:#ECF0F1;" width="35" height="171.663"/>
		
			<rect x="86.339" y="220.783" transform="matrix(-0.7071 -0.7071 0.7071 -0.7071 -10.2784 526.1924)" style="fill:#BDC3C7;" width="35" height="88.883"/>
		<polygon style="fill:#E87E04;" points="258.129,249.557 278.13,225.297 258.855,206.131 201.189,192.616 		"/>
		<circle style="fill:#ECF0F1;" cx="365.71" cy="385.017" r="15"/>
		<circle style="fill:#ECF0F1;" cx="348.74" cy="431.686" r="15"/>
		<circle style="fill:#ECF0F1;" cx="307.728" cy="451.485" r="13"/>
		<circle style="fill:#ECF0F1;" cx="268.129" cy="461.385" r="10"/>
		<circle style="fill:#ECF0F1;" cx="51.485" cy="224.198" r="20.475"/>
		<path style="fill:#D55400;" d="M232.655,289.49c-18.929,19.935-50.892,4.773-50.892,4.773l71.381-88.132l57.666-13.515
			C310.811,192.616,251.585,269.556,232.655,289.49z"/>
		<path style="fill:#E87E04;" d="M291.674,256.757c0,0,33.663,28.442,72.693-10.583l36.611,36.612c0,0-20.268,79.972-50.269,51.787
			c-24.471-22.99-67.655-69.348-67.655-69.348L291.674,256.757z"/>
	</g>
</g>
<g>
</g>
<g>
</g>
<g>
</g>
<g>
</g>
<g>
</g>
<g>
</g>
<g>
</g>
<g>
</g>
<g>
</g>
<g>
</g>
<g>
</g>
<g>
</g>
<g>
</g>
<g>
</g>
<g>
</g>
</svg>
