<?xml version="1.0" encoding="iso-8859-1"?>
<!-- Generator: Adobe Illustrator 19.0.0, SVG Export Plug-In . SVG Version: 6.00 Build 0)  -->
<svg version="1.1" id="Layer_1" xmlns="http://www.w3.org/2000/svg" xmlns:xlink="http://www.w3.org/1999/xlink" x="0px" y="0px"
	 viewBox="0 0 512 512" style="enable-background:new 0 0 512 512;" xml:space="preserve">
<g id="Others">
</g>
<g id="Design">
	<g id="blueprint">
		
			<radialGradient id="SVGID_1_" cx="256" cy="258" r="256" gradientTransform="matrix(1 0 0 -1 0 514)" gradientUnits="userSpaceOnUse">
			<stop  offset="0.0051" style="stop-color:#33495F"/>
			<stop  offset="1" style="stop-color:#2B3E51"/>
		</radialGradient>
		<circle style="fill:url(#SVGID_1_);" cx="256" cy="256" r="256"/>
		<g>
			<path style="fill:#1380B6;" d="M84,135v263h314.926C414.647,398,427,385.443,427,370.1v-1.801V135H84z"/>
			<g>
				<path style="fill:#BDC3C7;" d="M339,275.312c0,2.037-1.651,3.688-3.688,3.688H182.688c-2.038,0-3.688-1.65-3.688-3.688v-33.625
					c0-2.037,1.65-3.688,3.688-3.688h152.623c2.037,0,3.688,1.65,3.688,3.688v33.625H339z M186,273h146v-27H186V273z"/>
			</g>
			<g>
				<path style="fill:#BDC3C7;" d="M355.589,311h-96.817c-2.037,0-3.688-1.463-3.688-3.5s1.65-3.5,3.688-3.5h96.817
					c2.038,0,3.688,1.463,3.688,3.5S357.627,311,355.589,311z"/>
			</g>
			<g>
				<path style="fill:#BDC3C7;" d="M356.512,327H248.629c-2.037,0-3.688-1.463-3.688-3.5s1.651-3.5,3.688-3.5h107.883
					c2.036,0,3.688,1.463,3.688,3.5S358.548,327,356.512,327z"/>
			</g>
			<path style="fill:#1C99D8;" d="M398.5,114c-15.721,0-28.5,12.863-28.5,28.584V367.57c0-15.722,12.779-28.584,28.5-28.584
				S427,351.849,427,367.57V142.584C427,126.863,414.221,114,398.5,114z"/>
			<g style="opacity:0.4;">
				<path style="fill:#2A3E4F;" d="M370,367.57v1.844c0,12.498,8,23.182,19,27.04v-55.925C378,344.389,370,355.072,370,367.57z"/>
			</g>
			<g>
				<path style="fill:#BDC3C7;" d="M285,215.091c0,7.13-5.779,12.909-12.909,12.909H125.909c-7.13,0-12.909-5.779-12.909-12.909
					v-51.182c0-7.13,5.779-12.909,12.909-12.909h146.182c7.13,0,12.909,5.779,12.909,12.909V215.091z M278,163.532
					c0-3.056-2.477-5.532-5.532-5.532H125.531c-3.055,0-5.531,2.477-5.531,5.532v51.936c0,3.056,2.477,5.532,5.531,5.532h146.937
					c3.056,0,5.532-2.477,5.532-5.532V163.532z"/>
			</g>
			<g>
				<path style="fill:#BDC3C7;" d="M162,369.312c0,2.037-1.651,3.688-3.688,3.688h-41.623c-2.038,0-3.688-1.65-3.688-3.688V241.688
					c0-2.037,1.65-3.688,3.688-3.688h41.623c2.037,0,3.688,1.65,3.688,3.688V369.312z M120,366h34V246h-34V366z"/>
			</g>
			<g>
				<path style="fill:#BDC3C7;" d="M218.068,337h-23.271c-1.32,0-2.541-0.637-3.199-1.781l-11.635-20.251
					c-0.652-1.137-0.652-2.517,0-3.653l11.635-20.373c0.658-1.146,1.879-1.941,3.199-1.941h23.271c1.321,0,2.543,0.804,3.199,1.95
					l11.637,20.333c0.652,1.137,0.652,2.559,0,3.695l-11.637,20.228C220.611,336.352,219.39,337,218.068,337z M196.934,330h18.998
					l9.521-16.5l-9.521-16.5h-18.998l-9.52,16.5L196.934,330z"/>
			</g>
			<g>
				<path style="fill:#BDC3C7;" d="M263.381,357h-80.219c-2.037,0-3.689-1.963-3.689-4s1.652-4,3.689-4h80.219
					c2.037,0,3.689,1.963,3.689,4S265.418,357,263.381,357z"/>
			</g>
			<g>
				<path style="fill:#BDC3C7;" d="M269.836,371h-86.674c-2.037,0-3.689-1.462-3.689-3.498c0-2.038,1.652-3.502,3.689-3.502h86.674
					c2.037,0,3.689,1.464,3.689,3.502C273.525,369.538,271.873,371,269.836,371z"/>
			</g>
			<g>
				<path style="fill:#BDC3C7;" d="M302.5,226.492c-2.037,0-3.5-1.65-3.5-3.688v-68.233c0-2.036,1.463-3.688,3.5-3.688
					s3.5,1.652,3.5,3.688v68.233C306,224.842,304.537,226.492,302.5,226.492z"/>
			</g>
			<g>
				<path style="fill:#BDC3C7;" d="M318.5,203.441c-2.036,0-3.5-1.652-3.5-3.688v-45.182c0-2.036,1.464-3.688,3.5-3.688
					c2.037,0,3.5,1.652,3.5,3.688v45.182C322,201.789,320.537,203.441,318.5,203.441z"/>
			</g>
			<g>
				<path style="fill:#BDC3C7;" d="M306.499,371.258c-2.036,0-3.499-1.65-3.499-3.688v-26.74c0-2.037,1.463-3.688,3.499-3.688
					S310,338.793,310,340.83v26.74C310,369.607,308.535,371.258,306.499,371.258z"/>
			</g>
		</g>
	</g>
</g>
<g id="SEO_x2F__Web">
</g>
<g id="Finance__x2F__Money">
</g>
<g id="E-Commerce__x2F__Shopping">
</g>
<g id="Strategy">
</g>
<g>
</g>
<g>
</g>
<g>
</g>
<g>
</g>
<g>
</g>
<g>
</g>
<g>
</g>
<g>
</g>
<g>
</g>
<g>
</g>
<g>
</g>
<g>
</g>
<g>
</g>
<g>
</g>
<g>
</g>
</svg>
