<?xml version="1.0" encoding="iso-8859-1"?>
<!-- Generator: Adobe Illustrator 19.0.0, SVG Export Plug-In . SVG Version: 6.00 Build 0)  -->
<svg version="1.1" id="Capa_1" xmlns="http://www.w3.org/2000/svg" xmlns:xlink="http://www.w3.org/1999/xlink" x="0px" y="0px"
	 viewBox="0 0 512 512" style="enable-background:new 0 0 512 512;" xml:space="preserve">
<circle style="fill:#F24976;" cx="250.5" cy="245" r="245"/>
<path style="fill:#C3DDF4;" d="M327.683,433.668c-1.088-3.136-4.737-5.732-8.114-5.732h-17.385c-2.435,0-4.417-1.981-4.417-4.416
	v-31.176c0-2.435,1.981-4.417,4.417-4.417h17.381c3.379,0,7.03-2.597,8.139-5.788l3.289-7.901c1.473-2.974,0.738-7.381-1.665-9.764
	l-12.266-12.172c-0.832-0.826-1.29-1.929-1.29-3.105c0-1.177,0.458-2.279,1.29-3.107l22.247-22.072
	c0.834-0.827,1.949-1.283,3.14-1.283s2.307,0.456,3.141,1.283l12.264,12.171c1.519,1.508,3.869,2.408,6.286,2.408
	c1.297,0,2.533-0.269,3.573-0.774l8.009-3.28c3.143-1.075,5.745-4.716,5.745-8.096v-17.166c0-2.435,1.981-4.416,4.416-4.416h31.498
	c2.436,0,4.417,1.982,4.417,4.416v17.166c0,3.38,2.602,7.021,5.8,8.116l8.016,3.287c0.982,0.48,2.215,0.747,3.511,0.747
	c2.418,0,4.768-0.9,6.288-2.408l6.087-6.04v-30.531h-19.85c-1.29,0-2.989-0.98-3.634-2.098l-16.12-27.921
	c-0.646-1.118-0.646-3.078-0.001-4.195l16.121-27.922c0.645-1.117,2.343-2.098,3.634-2.098h19.852v-49.296h-11.147
	c0.009,0.79-0.149,1.586-0.481,2.159l-12.454,21.568c-0.645,1.117-2.343,2.098-3.634,2.098h-7.285v18.675c0,1.103-0.897,2-2,2
	H86.498c-1.103,0-2-0.897-2-2v-44.5h-35v199.003c14.797,21.191,32.854,39.935,53.453,55.498h227.61L327.683,433.668z"/>
<g>
	<path style="fill:#EEF6FF;" d="M297.768,392.345c0-2.435,1.981-4.417,4.417-4.417h17.381c3.379,0,7.03-2.597,8.139-5.788
		l2.614-6.278H86.498c-1.65,0-3,1.35-3,3v19.719c0,1.65,1.35,3,3,3h211.27V392.345z"/>
	<path style="fill:#EEF6FF;" d="M450.125,144.523l-10.007-17.333c-0.646-1.117-0.646-3.078-0.001-4.195l10.008-17.334
		c0.29-0.501,0.795-0.969,1.377-1.339V89H49.498v98.089h35v-67.715c0-1.103,0.897-2,2-2h328.004c1.103,0,2,0.897,2,2v41.012h7.285
		c1.29,0,2.989,0.98,3.634,2.098l12.453,21.569c0.457,0.79,0.583,1.999,0.395,3.036h11.233v-41.227
		C450.921,145.492,450.415,145.024,450.125,144.523z"/>
</g>
<path style="fill:#293D7C;" d="M441.502,33.875H59.498c-5.5,0-10,4.5-10,10V90h402.004V43.875
	C451.502,38.375,447.002,33.875,441.502,33.875z"/>
<path style="fill:#1A2B63;" d="M79.34,33.875H59.498c-5.5,0-10,4.5-10,10V90H69.34V43.875C69.34,38.375,73.84,33.875,79.34,33.875z"
	/>
<path style="fill:#E26693;" d="M72.924,69.948c-2.217,0-4.378-0.896-5.944-2.452c-1.557-1.567-2.452-3.728-2.452-5.944
	c0-2.206,0.896-4.366,2.452-5.934c1.566-1.567,3.728-2.463,5.944-2.463c2.205,0,4.377,0.896,5.933,2.463
	c1.567,1.567,2.464,3.728,2.464,5.934c0,2.217-0.897,4.377-2.464,5.944C77.301,69.052,75.129,69.948,72.924,69.948z"/>
<path style="fill:#FFAF10;" d="M100.458,69.948c-2.206,0-4.378-0.896-5.935-2.464c-1.566-1.556-2.462-3.716-2.462-5.933
	c0-2.206,0.896-4.366,2.462-5.934c1.568-1.567,3.729-2.463,5.935-2.463c2.216,0,4.376,0.896,5.945,2.463
	c1.556,1.567,2.451,3.728,2.451,5.934c0,2.205-0.895,4.377-2.451,5.933C104.834,69.052,102.674,69.948,100.458,69.948z"/>
<path style="fill:#37C47A;" d="M128.004,69.948c-2.217,0-4.378-0.896-5.934-2.452c-1.567-1.567-2.463-3.728-2.463-5.944
	c0-2.206,0.896-4.366,2.463-5.934c1.556-1.567,3.717-2.463,5.934-2.463c2.205,0,4.377,0.896,5.933,2.463
	c1.567,1.567,2.464,3.728,2.464,5.934c0,2.217-0.896,4.377-2.464,5.944C132.37,69.052,130.209,69.948,128.004,69.948z"/>
<path style="fill:#02AF8E;" d="M398.881,211.914c-1.29,0-2.989-0.98-3.634-2.098l-12.452-21.568c-0.646-1.117-0.646-3.078,0-4.195
	l12.453-21.569c0.645-1.117,2.343-2.098,3.634-2.098h18.621v-41.012c0-1.65-1.35-3-3-3H86.498c-1.65,0-3,1.35-3,3v111.215
	c0,1.65,1.35,3,3,3h328.004c1.65,0,3-1.35,3-3v-18.675L398.881,211.914L398.881,211.914z"/>
<path style="fill:#0F9390;" d="M103.34,230.589V119.374c0-1.65,1.35-3,3-3H86.498c-1.65,0-3,1.35-3,3v111.215c0,1.65,1.35,3,3,3
	h19.842C104.69,233.589,103.34,232.239,103.34,230.589z"/>
<g>
	<path style="fill:#EEF6FF;" d="M184,294.973c0,1.65-1.35,3-3,3H86.498c-1.65,0-3-1.35-3-3v-43.6c0-1.65,1.35-3,3-3H181
		c1.65,0,3,1.35,3,3V294.973z"/>
	<path style="fill:#EEF6FF;" d="M264.427,358.592c0,1.65-1.35,3-3,3h-58.482c-1.65,0-3-1.35-3-3v-107.22c0-1.65,1.35-3,3-3h58.482
		c1.65,0,3,1.35,3,3V358.592z"/>
	<path style="fill:#EEF6FF;" d="M317.063,352.303c-0.832-0.826-1.29-1.929-1.29-3.105c0-1.177,0.458-2.279,1.29-3.107l22.247-22.072
		c0.472-0.468,1.04-0.802,1.655-1.017v-71.63c0-1.65-1.35-3-3-3h-58.482c-1.65,0-3,1.35-3,3v107.22c0,1.65,1.35,3,3,3h46.941
		L317.063,352.303z"/>
	<path style="fill:#EEF6FF;" d="M357.855,336.19c1.519,1.508,3.869,2.408,6.286,2.408c1.297,0,2.533-0.269,3.573-0.774l8.009-3.28
		c3.143-1.075,5.745-4.716,5.745-8.096v-17.166c0-2.435,1.981-4.416,4.416-4.416h31.498c0.041,0,0.079,0.011,0.12,0.012V279.31
		l-5.606-9.71c-0.646-1.118-0.646-3.078-0.001-4.195l5.607-9.71v-4.322c0-1.65-1.35-3-3-3H356.02c-1.65,0-3,1.35-3,3v80.018
		L357.855,336.19z"/>
	<path style="fill:#EEF6FF;" d="M184,358.592c0,1.65-1.35,3-3,3H86.498c-1.65,0-3-1.35-3-3v-43.6c0-1.65,1.35-3,3-3H181
		c1.65,0,3,1.35,3,3V358.592z"/>
</g>
<g>
	<path style="fill:#D9EAFC;" d="M103.34,398.58v-19.719c0-1.65,1.35-3,3-3H86.498c-1.65,0-3,1.35-3,3v19.719c0,1.65,1.35,3,3,3
		h19.842C104.69,401.58,103.34,400.23,103.34,398.58z"/>
	<path style="fill:#D9EAFC;" d="M103.34,294.973v-43.6c0-1.65,1.35-3,3-3H86.498c-1.65,0-3,1.35-3,3v43.6c0,1.65,1.35,3,3,3h19.842
		C104.69,297.973,103.34,296.623,103.34,294.973z"/>
	<path style="fill:#D9EAFC;" d="M219.787,358.592v-107.22c0-1.65,1.35-3,3-3h-19.842c-1.65,0-3,1.35-3,3v107.22c0,1.65,1.35,3,3,3
		h19.842C221.137,361.592,219.787,360.242,219.787,358.592z"/>
	<path style="fill:#D9EAFC;" d="M296.325,358.592v-107.22c0-1.65,1.35-3,3-3h-19.842c-1.65,0-3,1.35-3,3v107.22c0,1.65,1.35,3,3,3
		h19.842C297.675,361.592,296.325,360.242,296.325,358.592z"/>
	<path style="fill:#D9EAFC;" d="M357.855,336.19c1.519,1.508,3.869,2.408,6.286,2.408c1.297,0,2.533-0.269,3.573-0.774l5.148-2.108
		v-84.343c0-1.65,1.35-3,3-3H356.02c-1.65,0-3,1.35-3,3v80.018L357.855,336.19z"/>
	<path style="fill:#D9EAFC;" d="M103.34,358.592v-43.6c0-1.65,1.35-3,3-3H86.498c-1.65,0-3,1.35-3,3v43.6c0,1.65,1.35,3,3,3h19.842
		C104.69,361.592,103.34,360.242,103.34,358.592z"/>
</g>
<path style="fill:#AEC1ED;" d="M426.34,68.155h-44.235c-4.142,0-7.5-3.357-7.5-7.5s3.358-7.5,7.5-7.5h44.235
	c4.142,0,7.5,3.357,7.5,7.5S430.482,68.155,426.34,68.155z"/>
<path style="fill:#445EA0;" d="M380.468,506.584c0,2.978,2.437,5.416,5.416,5.416h31.498c2.979,0,5.417-2.438,5.417-5.416V489.42
	c0-2.979,2.306-6.206,5.124-7.172l8.072-3.307c2.68-1.305,6.601-0.654,8.715,1.445l12.265,12.172c2.114,2.097,5.574,2.097,7.689,0
	l22.243-22.075c2.114-2.098,2.114-5.531,0-7.631l-12.265-12.173c-2.114-2.098-2.765-6.001-1.445-8.672l3.311-7.956
	c0.978-2.813,4.214-5.117,7.194-5.115h17.381c2.979,0,5.417-2.436,5.417-5.416v-31.176c0-2.979-2.438-5.417-5.417-5.417h-17.381
	c-2.979,0-6.216-2.302-7.194-5.116l-3.311-7.957c-1.319-2.671-0.669-6.572,1.445-8.671l12.264-12.17
	c2.115-2.098,2.115-5.532,0-7.631l-22.243-22.074c-2.114-2.098-5.574-2.098-7.689,0l-12.266,12.171
	c-2.114,2.099-6.036,2.749-8.715,1.446l-8.072-3.309c-2.818-0.965-5.124-4.191-5.124-7.17V309.28c0-2.979-2.438-5.416-5.417-5.416
	h-31.498c-2.979,0-5.416,2.438-5.416,5.416v17.166c0,2.979-2.307,6.205-5.125,7.17l-8.068,3.307
	c-2.679,1.305-6.601,0.655-8.716-1.444l-12.265-12.171c-2.115-2.098-5.575-2.098-7.69,0l-22.247,22.073
	c-2.114,2.1-2.114,5.531,0,7.631l12.266,12.172c2.115,2.098,2.765,6.001,1.446,8.67l-3.311,7.957
	c-0.978,2.815-4.215,5.116-7.194,5.116h-17.381c-2.978,0-5.417,2.438-5.417,5.417v31.176c0,2.979,2.438,5.416,5.417,5.416h17.381
	c2.979-0.002,6.216,2.302,7.194,5.115l3.311,7.958c1.321,2.669,0.67,6.572-1.444,8.67l-12.268,12.173
	c-2.114,2.1-2.114,5.533,0,7.631l22.247,22.075c2.115,2.097,5.575,2.097,7.689-0.002l12.263-12.172
	c2.115-2.098,6.037-2.748,8.715-1.444l8.071,3.308c2.818,0.966,5.125,4.192,5.125,7.172v17.164H380.468z"/>
<ellipse style="fill:#FF9518;" cx="401.63" cy="407.93" rx="50.47" ry="50.09"/>
<path style="fill:#EF8318;" d="M366.518,407.934c0.001-25.074,18.561-45.843,42.793-49.512c-2.503-0.378-5.066-0.574-7.676-0.574
	c-27.875,0-50.469,22.422-50.47,50.086c0,27.662,22.595,50.087,50.47,50.087c2.61,0,5.174-0.196,7.676-0.576
	C385.079,453.774,366.518,433.006,366.518,407.934z"/>
<path style="fill:#293D7C;" d="M401.634,466.145c-32.309,0-58.594-26.112-58.594-58.211c0.001-32.098,26.286-58.211,58.594-58.211
	c32.309,0,58.595,26.113,58.595,58.21C460.228,440.032,433.943,466.145,401.634,466.145z M401.634,365.972
	c-23.348,0-42.344,18.823-42.345,41.962c0,23.138,18.996,41.963,42.345,41.963c23.35,0,42.345-18.825,42.346-41.964
	C443.98,384.795,424.983,365.972,401.634,365.972z"/>
<ellipse style="fill:#C3DDF4;" cx="401.63" cy="407.93" rx="21.334" ry="21.17"/>
<path style="fill:#AEC1ED;" d="M395.652,407.934c0-9.006,5.673-16.678,13.659-19.738c-2.385-0.915-4.967-1.437-7.677-1.437
	c-11.783,0-21.335,9.479-21.335,21.175c0,11.692,9.551,21.173,21.335,21.173c2.71,0,5.292-0.521,7.677-1.437
	C401.325,424.609,395.652,416.938,395.652,407.934z"/>
<path style="fill:#DB722C;" d="M401.634,437.23c-16.244,0-29.46-13.143-29.46-29.297c0-16.156,13.216-29.299,29.46-29.299
	s29.46,13.143,29.46,29.298C431.092,424.088,417.876,437.23,401.634,437.23z M401.634,394.884c-7.284,0-13.211,5.855-13.211,13.05
	c0,7.193,5.927,13.048,13.211,13.048s13.21-5.854,13.21-13.05C414.844,400.738,408.918,394.884,401.634,394.884z"/>
<path style="fill:#EF8318;" d="M398.881,212.914c-1.65,0-3.675-1.169-4.5-2.598l-12.452-21.568c-0.825-1.429-0.825-3.767,0-5.195
	l12.452-21.569c0.825-1.429,2.85-2.598,4.5-2.598h24.906c1.65,0,3.675,1.169,4.5,2.598l12.453,21.569
	c0.825,1.429,0.825,3.767,0,5.195l-12.453,21.568c-0.825,1.429-2.85,2.598-4.5,2.598L398.881,212.914L398.881,212.914z"/>
<g>
	<path style="fill:#FFD00D;" d="M453.759,147.621c-1.65,0-3.675-1.169-4.5-2.598l-10.007-17.333c-0.825-1.429-0.825-3.767,0-5.195
		l10.007-17.334c0.825-1.429,2.85-2.598,4.5-2.598h20.015c1.65,0,3.675,1.169,4.5,2.598l10.007,17.334
		c0.825,1.429,0.825,3.767,0,5.195l-10.007,17.333c-0.825,1.429-2.85,2.598-4.5,2.598H453.759z"/>
	<path style="fill:#FFD00D;" d="M431.65,300.618c-1.65,0-3.675-1.169-4.5-2.598l-16.12-27.92c-0.825-1.429-0.825-3.767,0-5.195
		l16.121-27.922c0.825-1.429,2.85-2.598,4.5-2.598h32.241c1.65,0,3.675,1.169,4.5,2.598l16.121,27.922
		c0.825,1.429,0.825,3.767,0,5.195l-16.121,27.921c-0.825,1.429-2.85,2.598-4.5,2.598L431.65,300.618L431.65,300.618z"/>
</g>
<path style="fill:#DB722C;" d="M414.224,210.316l-12.452-21.568c-0.825-1.429-0.825-3.767,0-5.195l12.452-21.569
	c0.825-1.429,2.85-2.598,4.5-2.598h-19.842c-1.65,0-3.675,1.169-4.5,2.598l-12.452,21.569c-0.825,1.429-0.825,3.767,0,5.195
	l12.452,21.568c0.825,1.429,2.85,2.598,4.5,2.598h19.842C417.074,212.914,415.049,211.745,414.224,210.316z"/>
<g>
	<path style="fill:#FFAF10;" d="M469.102,145.023l-10.007-17.333c-0.825-1.429-0.825-3.767,0-5.195l10.007-17.334
		c0.825-1.429,2.85-2.598,4.5-2.598H453.76c-1.65,0-3.675,1.169-4.5,2.598l-10.007,17.334c-0.825,1.429-0.825,3.767,0,5.195
		l10.007,17.333c0.825,1.429,2.85,2.598,4.5,2.598h19.842C471.952,147.621,469.926,146.452,469.102,145.023z"/>
	<path style="fill:#FFAF10;" d="M446.993,298.021L430.872,270.1c-0.825-1.429-0.825-3.767,0-5.195l16.121-27.922
		c0.825-1.429,2.85-2.598,4.5-2.598H431.65c-1.65,0-3.675,1.169-4.5,2.598l-16.121,27.922c-0.825,1.429-0.825,3.767,0,5.195
		l16.121,27.921c0.825,1.429,2.85,2.598,4.5,2.598h19.842C449.843,300.618,447.818,299.449,446.993,298.021z"/>
</g>
<g>
</g>
<g>
</g>
<g>
</g>
<g>
</g>
<g>
</g>
<g>
</g>
<g>
</g>
<g>
</g>
<g>
</g>
<g>
</g>
<g>
</g>
<g>
</g>
<g>
</g>
<g>
</g>
<g>
</g>
</svg>
