<?xml version="1.0" encoding="iso-8859-1"?>
<!-- Generator: Adobe Illustrator 19.0.0, SVG Export Plug-In . SVG Version: 6.00 Build 0)  -->
<svg version="1.1" id="Layer_1" xmlns="http://www.w3.org/2000/svg" xmlns:xlink="http://www.w3.org/1999/xlink" x="0px" y="0px"
	 viewBox="0 0 512 512" style="enable-background:new 0 0 512 512;" xml:space="preserve">
<path style="fill:#F3E2C2;" d="M86.435,91.927v168.711h28.573v18.848l7.735,2.392c4.504,1.392,8.905,3.217,13.083,5.424l7.161,3.785
	l13.335-13.336l21.162,21.164l-13.336,13.335l3.786,7.161c2.209,4.177,4.035,8.578,5.425,13.083l2.392,7.735h18.848v16.182h302.205
	V91.927H86.435z"/>
<path style="fill:#ACB7C9;" d="M212.161,375.645v-19.233h-30.008v1.309h-24.036c-0.011,0.16-0.021,0.32-0.033,0.471
	c-0.784,12.073-6.367,23.319-15.277,31.309h44.045c2.049-4.456,3.695-9.086,4.917-13.856H212.161z"/>
<g>
	<path style="fill:#FBD7B1;" d="M182.895,313.339l14.423-14.425l-28.921-28.926l-9.917,9.918l19.006,19.007l-13.336,13.335
		l3.786,7.161c2.209,4.177,4.035,8.578,5.425,13.083l2.392,7.735h18.848v16.182h17.561v-21.67H191.77
		C189.844,327.22,186.866,320.037,182.895,313.339z"/>
	<path style="fill:#FBD7B1;" d="M91.665,255.15v5.488h23.343v18.848l7.735,2.392c4.504,1.392,8.905,3.217,13.083,5.424l7.161,3.785
		l8.228-8.229c-5.901-3.198-12.146-5.652-18.647-7.315V255.15L91.665,255.15L91.665,255.15z"/>
	<rect x="86.431" y="91.929" style="fill:#FBD7B1;" width="13.608" height="163.225"/>
	<rect x="86.431" y="90.831" style="fill:#FBD7B1;" width="410.368" height="13.608"/>
</g>
<g>
	<path style="fill:#324A5E;" d="M510.354,354.766h-328.2c-0.795,0-1.456,0.562-1.612,1.309h-34.514c-0.457,0-0.892,0.19-1.204,0.523
		c-0.311,0.334-0.471,0.781-0.438,1.237c0.058,0.853,0.086,1.565,0.086,2.238c0,0.427-0.018,0.846-0.036,1.304
		c-0.004,0.228-0.01,0.405-0.02,0.583c-0.01,0.187-0.024,0.353-0.046,0.562c-0.735,9.727-6.07,19.086-14.638,25.675
		c-0.56,0.43-0.783,1.168-0.555,1.836c0.227,0.666,0.853,1.116,1.559,1.116h379.62c0.909,0,1.646-0.738,1.646-1.646v-33.09
		C512,355.503,511.262,354.766,510.354,354.766z"/>
	<path style="fill:#324A5E;" d="M510.354,57.191H72.886c-0.909,0-1.646,0.738-1.646,1.646v33.09c0,0.909,0.738,1.646,1.646,1.646
		h437.467c0.909,0,1.646-0.738,1.646-1.646v-33.09C512,57.928,511.262,57.191,510.354,57.191z"/>
</g>
<rect x="237.309" y="229.714" style="fill:#6598CB;" width="34.626" height="80.614"/>
<rect x="296.466" y="195.141" style="fill:#EF4C35;" width="34.626" height="115.186"/>
<rect x="353.867" y="215.994" style="fill:#F7971D;" width="34.627" height="94.336"/>
<rect x="414.78" y="147.914" style="fill:#FCD638;" width="34.628" height="162.424"/>
<g>
	<path style="fill:#FFFFFF;" d="M131.694,136.199h43.874c4.547,0,8.232,3.686,8.232,8.232c0,4.547-3.684,8.232-8.232,8.232h-43.874
		c-4.547,0-8.232-3.684-8.232-8.232C123.463,139.885,127.148,136.199,131.694,136.199z"/>
	<path style="fill:#FFFFFF;" d="M131.694,163.638h67.844c4.547,0,8.232,3.684,8.232,8.232s-3.684,8.232-8.232,8.232h-67.844
		c-4.547,0-8.232-3.684-8.232-8.232C123.463,167.323,127.148,163.638,131.694,163.638z"/>
	<path style="fill:#FFFFFF;" d="M131.694,191.076h67.844c4.547,0,8.232,3.684,8.232,8.232s-3.684,8.232-8.232,8.232h-67.844
		c-4.547,0-8.232-3.684-8.232-8.232C123.463,194.761,127.148,191.076,131.694,191.076z"/>
	<path style="fill:#FFFFFF;" d="M131.694,218.514h67.844c4.547,0,8.232,3.684,8.232,8.232s-3.684,8.232-8.232,8.232h-67.844
		c-4.547,0-8.232-3.684-8.232-8.232C123.463,222.2,127.148,218.514,131.694,218.514z"/>
</g>
<path style="fill:#C8D0E2;" d="M197.107,332.088h-17.496c-1.736-6.107-4.177-11.99-7.273-17.545l12.375-12.374
	c1.164-1.163,1.164-3.05,0-4.216l-27.852-27.858c-0.559-0.56-1.318-0.875-2.108-0.875c-0.79,0-1.549,0.315-2.108,0.875
	l-12.379,12.377c-5.556-3.098-11.436-5.538-17.541-7.273v-17.497c0-1.646-1.336-2.981-2.982-2.981H80.347
	c-1.645,0-2.982,1.335-2.982,2.981V275.2c-6.102,1.735-11.984,4.175-17.54,7.273l-12.38-12.377c-0.559-0.56-1.317-0.875-2.106-0.875
	c-0.792,0-1.55,0.315-2.109,0.875l-27.852,27.859c-1.164,1.166-1.164,3.052,0,4.215l12.375,12.377
	c-3.099,5.558-5.54,11.441-7.273,17.542H2.982c-1.646,0-2.982,1.335-2.982,2.981v39.394c0,1.646,1.336,2.981,2.982,2.981h17.497
	c1.733,6.1,4.172,11.984,7.273,17.544l-12.375,12.377c-1.164,1.164-1.164,3.05,0,4.215l27.852,27.855
	c0.583,0.582,1.347,0.874,2.109,0.874c0.763,0,1.526-0.292,2.106-0.873l12.38-12.377c5.554,3.097,11.436,5.538,17.54,7.274v17.495
	c0,1.646,1.337,2.981,2.982,2.981h39.394c1.646,0,2.982-1.335,2.982-2.981v-17.494c6.103-1.737,11.986-4.178,17.541-7.276
	l12.379,12.376c0.581,0.581,1.344,0.873,2.107,0.873c0.763,0,1.526-0.292,2.107-0.873l27.854-27.854c1.164-1.163,1.164-3.05,0-4.215
	l-12.375-12.38c3.096-5.552,5.537-11.434,7.274-17.542h17.495c1.646,0,2.982-1.335,2.982-2.981v-39.394
	C200.089,333.422,198.754,332.088,197.107,332.088z M141.666,354.767c0,0.762-0.026,1.578-0.08,2.494
	c-0.014,0.203-0.026,0.398-0.044,0.597l-0.014,0.164c-0.048,0.625-0.106,1.217-0.177,1.773c-0.025,0.23-0.058,0.483-0.092,0.736
	c-0.093,0.663-0.202,1.315-0.324,1.973c-0.038,0.211-0.061,0.339-0.086,0.465c-0.157,0.784-0.345,1.594-0.558,2.395
	c-0.041,0.156-0.075,0.278-0.111,0.4c-0.008,0.023-0.014,0.045-0.021,0.068c-0.165,0.606-0.358,1.241-0.57,1.892
	c-0.065,0.196-0.133,0.402-0.206,0.609c-0.221,0.638-0.445,1.24-0.684,1.836l-0.181,0.455c-0.62,1.495-1.347,2.996-2.145,4.421
	l-0.167,0.295c-0.358,0.622-0.718,1.217-1.109,1.827c-0.09,0.145-0.17,0.266-0.251,0.389c-1.358,2.073-2.908,4.028-4.62,5.831
	l-0.174,0.18c-1.712,1.792-3.613,3.446-5.649,4.92l-0.728,0.516c-0.476,0.329-0.979,0.662-1.467,0.97l-0.18,0.112
	c-0.203,0.128-0.403,0.256-0.609,0.38c-0.259,0.156-0.504,0.295-0.75,0.435l-0.15,0.085c-0.217,0.126-0.339,0.198-0.462,0.263
	c-0.267,0.148-0.521,0.28-0.773,0.41l-0.267,0.136c-0.639,0.33-1.297,0.646-1.947,0.939l-0.149,0.067
	c-0.337,0.148-0.704,0.307-1.07,0.461c-0.341,0.14-0.686,0.275-1.032,0.407l-0.227,0.089c-0.543,0.203-1.112,0.402-1.706,0.593
	l-0.266,0.088l-0.2,0.061c-0.056,0.019-0.115,0.037-0.178,0.061l-0.65,0.184c-0.019,0.005-0.034,0.011-0.052,0.015l-1.368,0.369
	c-0.124,0.032-0.25,0.063-0.378,0.092l-0.929,0.216c-0.98,0.21-1.769,0.357-2.551,0.476c-0.09,0.013-0.174,0.024-0.257,0.034
	l-0.234,0.03c-0.708,0.1-1.478,0.185-2.268,0.251c-0.27,0.023-0.527,0.042-0.785,0.059c-1.029,0.067-1.895,0.099-2.733,0.099
	c-0.845,0-1.723-0.031-2.766-0.101c-0.216-0.013-0.45-0.032-0.686-0.05c-0.497-0.042-0.948-0.095-1.398-0.15l-0.213-0.025
	c-0.313-0.032-0.524-0.056-0.727-0.083c-0.204-0.023-0.335-0.041-0.465-0.06c-0.787-0.117-1.593-0.268-2.551-0.475
	c-0.344-0.075-0.652-0.147-0.958-0.222c-0.485-0.115-0.983-0.25-1.484-0.392l-0.27-0.071c-0.353-0.102-0.749-0.218-1.136-0.341
	c-0.532-0.17-1.046-0.351-1.557-0.538c-0.019-0.005-0.035-0.012-0.055-0.018c-0.106-0.036-0.206-0.072-0.308-0.111
	c-0.398-0.151-0.81-0.315-1.218-0.483c-0.372-0.151-0.75-0.317-1.129-0.485c-0.725-0.325-1.439-0.669-2.112-1.017l-0.323-0.167
	c-0.275-0.143-0.47-0.243-0.659-0.348c-0.434-0.237-0.864-0.487-1.291-0.742c-0.153-0.09-0.285-0.172-0.414-0.252
	c-0.086-0.055-0.171-0.104-0.263-0.149l-0.043-0.021l-0.244-0.173c-0.038-0.027-0.078-0.054-0.116-0.078
	c-10.33-6.612-17.201-17.336-18.849-29.425l-0.059-0.471c-0.08-0.633-0.145-1.297-0.201-2.028l-0.047-0.651
	c-0.053-0.88-0.079-1.707-0.079-2.491c0-0.948,0.038-1.921,0.124-3.064l0.014-0.221c0.023-0.316,0.044-0.649,0.08-0.98l0.024-0.225
	c0.072-0.662,0.147-1.234,0.228-1.77c0.03-0.188,0.065-0.387,0.101-0.585l0.025-0.153c0.079-0.457,0.146-0.847,0.223-1.234
	c0.048-0.239,0.097-0.45,0.146-0.661l0.065-0.295c0.08-0.358,0.159-0.701,0.245-1.042c0.054-0.21,0.12-0.449,0.187-0.688l0.07-0.25
	c0.088-0.32,0.175-0.632,0.269-0.942c0.083-0.273,0.164-0.514,0.243-0.755l0.042-0.127c0.111-0.331,0.221-0.663,0.337-0.993
	c0.117-0.32,0.222-0.597,0.33-0.874c0.128-0.337,0.255-0.664,0.39-0.987c0.112-0.275,0.239-0.57,0.369-0.863
	c0.135-0.311,0.277-0.621,0.424-0.935c0.134-0.281,0.265-0.555,0.399-0.826c0.165-0.329,0.324-0.64,0.486-0.947
	c0.131-0.25,0.279-0.523,0.431-0.793c0.168-0.303,0.341-0.599,0.517-0.897c0.147-0.25,0.306-0.52,0.473-0.786
	c0.175-0.284,0.368-0.578,0.561-0.874c0.164-0.252,0.333-0.508,0.506-0.761c0.196-0.285,0.407-0.577,0.619-0.869
	c0.169-0.237,0.342-0.476,0.521-0.71c0.204-0.269,0.431-0.552,0.656-0.836l0.092-0.115c0.146-0.182,0.292-0.369,0.446-0.547
	c0.229-0.282,0.46-0.542,0.69-0.801l0.16-0.187c0.139-0.161,0.28-0.317,0.42-0.475c0.24-0.259,0.479-0.509,0.716-0.756l0.234-0.24
	c0.136-0.143,0.256-0.27,0.38-0.392c0.417-0.416,0.843-0.821,1.298-1.237l0.214-0.196c0.473-0.428,0.919-0.812,1.351-1.171
	c0.157-0.127,0.294-0.236,0.431-0.345l0.088-0.067c0.367-0.295,0.686-0.55,1.016-0.798c0.146-0.112,0.32-0.236,0.493-0.36
	l0.125-0.09c0.317-0.228,0.629-0.454,0.948-0.672c0.173-0.119,0.36-0.241,0.547-0.361l0.146-0.097
	c0.311-0.204,0.629-0.409,0.952-0.609c0.181-0.112,0.382-0.229,0.584-0.348l0.134-0.078c0.319-0.189,0.631-0.37,0.945-0.544
	c0.225-0.125,0.448-0.244,0.671-0.359l0.097-0.052c0.335-0.174,0.657-0.345,0.983-0.505c0.261-0.128,0.527-0.254,0.797-0.38
	c0.327-0.154,0.66-0.304,0.997-0.45c0.25-0.11,0.52-0.223,0.792-0.337c0.361-0.146,0.699-0.279,1.037-0.407
	c0.259-0.1,0.537-0.203,0.821-0.302c0.356-0.127,0.701-0.243,1.048-0.356c0.27-0.089,0.556-0.18,0.843-0.267
	c0.351-0.106,0.713-0.21,1.077-0.307c0.271-0.072,0.548-0.149,0.826-0.221c0.398-0.098,0.769-0.181,1.14-0.263
	c0.314-0.07,0.575-0.126,0.837-0.181c0.363-0.07,0.714-0.131,1.069-0.193l0.281-0.047c0.214-0.037,0.425-0.074,0.634-0.106
	c0.394-0.058,0.776-0.103,1.157-0.148l0.271-0.034c0.207-0.025,0.412-0.05,0.616-0.07c0.446-0.044,0.911-0.076,1.373-0.106
	l0.138-0.011c0.181-0.014,0.345-0.025,0.513-0.036c0.697-0.033,1.41-0.05,2.106-0.05c0.687,0,1.376,0.018,2.049,0.05
	c0.192,0.011,0.376,0.025,0.561,0.038l0.26,0.02c0.426,0.027,0.833,0.056,1.234,0.095c0.202,0.021,0.393,0.044,0.589,0.069
	l0.436,0.054c0.337,0.04,0.667,0.08,0.998,0.13c0.246,0.036,0.491,0.079,0.735,0.123l0.148,0.024
	c0.36,0.061,0.727,0.123,1.089,0.195c0.294,0.059,0.563,0.119,0.834,0.18c0.418,0.092,0.774,0.171,1.127,0.261
	c0.261,0.066,0.531,0.136,0.8,0.211l0.131,0.034c0.322,0.089,0.663,0.185,1.003,0.289c0.283,0.083,0.576,0.179,0.87,0.274
	c0.335,0.11,0.673,0.223,1.01,0.341c0.29,0.104,0.587,0.214,0.886,0.328c0.313,0.119,0.633,0.246,0.954,0.376
	c0.297,0.122,0.583,0.241,0.868,0.367c0.311,0.135,0.634,0.281,0.956,0.434c0.261,0.122,0.538,0.252,0.814,0.389
	c0.302,0.15,0.61,0.308,0.913,0.469c0.283,0.148,0.551,0.289,0.814,0.436c0.313,0.172,0.607,0.346,0.899,0.518l0.136,0.079
	c0.214,0.126,0.437,0.255,0.654,0.39c0.304,0.189,0.595,0.378,0.884,0.567l0.135,0.087c0.193,0.124,0.403,0.259,0.609,0.401
	c0.275,0.189,0.526,0.368,0.774,0.549l0.227,0.162c0.204,0.145,0.394,0.282,0.578,0.423c0.279,0.209,0.545,0.421,0.812,0.634
	l0.217,0.171c0.171,0.134,0.334,0.261,0.492,0.393c0.375,0.31,0.735,0.626,1.089,0.943c0.244,0.214,0.494,0.441,0.742,0.675
	c0.341,0.313,0.68,0.634,1.014,0.968c0.153,0.151,0.288,0.293,0.421,0.435l0.312,0.325c0.202,0.206,0.4,0.414,0.594,0.624
	c0.165,0.181,0.313,0.35,0.463,0.52l0.238,0.274c0.204,0.233,0.395,0.452,0.585,0.677c0.155,0.185,0.314,0.389,0.476,0.592
	l0.209,0.262c0.176,0.222,0.353,0.443,0.526,0.669c0.164,0.218,0.334,0.452,0.5,0.686c0.238,0.327,0.436,0.6,0.628,0.88
	c0.182,0.267,0.353,0.528,0.526,0.79c0.166,0.255,0.346,0.531,0.522,0.812c0.18,0.294,0.337,0.554,0.491,0.815
	c0.184,0.313,0.356,0.606,0.52,0.903c0.149,0.266,0.301,0.549,0.451,0.835c0.147,0.274,0.302,0.577,0.453,0.881
	c0.145,0.295,0.286,0.582,0.421,0.874c0.135,0.29,0.277,0.598,0.412,0.909c0.132,0.299,0.261,0.597,0.383,0.896
	c0.112,0.263,0.23,0.572,0.35,0.879c0.133,0.351,0.245,0.64,0.347,0.929c0.122,0.346,0.238,0.69,0.35,1.034
	c0.104,0.316,0.194,0.582,0.275,0.853c0.097,0.318,0.184,0.629,0.27,0.941l0.075,0.273c0.065,0.232,0.131,0.46,0.189,0.693
	c0.079,0.317,0.148,0.618,0.214,0.92l0.09,0.395c0.052,0.229,0.097,0.43,0.138,0.631c0.075,0.367,0.134,0.708,0.192,1.051
	l0.063,0.356c0.036,0.192,0.067,0.373,0.097,0.556c0.086,0.571,0.159,1.134,0.228,1.764c0.002,0.022,0.005,0.041,0.005,0.061
	c0.012,0.077,0.022,0.156,0.027,0.234c0.033,0.319,0.056,0.645,0.078,0.972l0.014,0.201
	C141.628,352.854,141.666,353.817,141.666,354.767z"/>
<path style="fill:#ACB7C9;" d="M58.733,328.53l-0.08,0.102c-0.228,0.286-0.457,0.573-0.654,0.834
	c-0.184,0.243-0.364,0.49-0.529,0.719c-0.214,0.296-0.427,0.592-0.624,0.881c-0.177,0.255-0.348,0.516-0.509,0.762
	c-0.195,0.297-0.389,0.597-0.564,0.879c-0.168,0.27-0.333,0.543-0.481,0.799c-0.177,0.299-0.349,0.598-0.515,0.893
	c-0.156,0.279-0.307,0.56-0.434,0.799c-0.165,0.31-0.326,0.621-0.497,0.964c-0.133,0.272-0.266,0.546-0.396,0.823
	c-0.15,0.319-0.295,0.638-0.427,0.941c-0.135,0.302-0.265,0.607-0.373,0.873c-0.137,0.326-0.263,0.656-0.393,0.99
	c-0.105,0.277-0.211,0.553-0.339,0.9c-0.114,0.327-0.223,0.656-0.331,0.979l-0.031,0.1c-0.085,0.255-0.169,0.508-0.258,0.801
	c-0.094,0.313-0.184,0.63-0.272,0.946l-0.067,0.235c-0.068,0.252-0.137,0.504-0.188,0.705c-0.091,0.351-0.171,0.705-0.249,1.061
	l-0.06,0.266c-0.052,0.22-0.099,0.438-0.153,0.698c-0.077,0.386-0.146,0.778-0.223,1.23l-0.02,0.116
	c-0.041,0.213-0.077,0.428-0.11,0.635c-0.09,0.582-0.162,1.17-0.227,1.758l-0.03,0.25c-0.034,0.341-0.058,0.687-0.083,1.034
	l-0.011,0.174c-0.083,1.149-0.122,2.128-0.122,3.087c0,0.791,0.024,1.619,0.079,2.543l0.046,0.62
	c0.053,0.686,0.119,1.368,0.203,2.045l0.059,0.472c1.664,12.188,8.575,22.977,18.981,29.637l0.407,0.29l0.239,0.116
	c0.14,0.09,0.286,0.178,0.445,0.274c0.431,0.255,0.863,0.506,1.299,0.746c0.201,0.112,0.405,0.217,0.671,0.353l0.312,0.162
	c0.678,0.35,1.391,0.695,2.136,1.027c0.384,0.17,0.767,0.339,1.132,0.487c0.415,0.17,0.826,0.336,1.22,0.483
	c0.123,0.047,0.25,0.091,0.381,0.136c0.51,0.184,1.027,0.367,1.576,0.542c0.387,0.122,0.78,0.238,1.179,0.352l0.221,0.059
	c0.504,0.144,1.012,0.279,1.498,0.395c0.304,0.075,0.611,0.145,0.971,0.225c0.954,0.206,1.766,0.357,2.557,0.475
	c0.153,0.023,0.305,0.043,0.488,0.065c0.219,0.031,0.446,0.056,0.733,0.086l0.187,0.022c0.459,0.057,0.919,0.111,1.4,0.15
	c0.25,0.02,0.498,0.041,0.717,0.054c1.04,0.07,1.925,0.101,2.784,0.101c0.841,0,1.717-0.031,2.746-0.099
	c0.258-0.018,0.515-0.036,0.794-0.06c0.405-0.033,0.803-0.071,1.188-0.115c-0.095-0.011-0.195-0.019-0.29-0.03l-0.187-0.022
	c-0.288-0.03-0.513-0.055-0.735-0.086c-0.18-0.022-0.335-0.041-0.486-0.065c-0.791-0.117-1.606-0.269-2.557-0.475
	c-0.36-0.08-0.666-0.15-0.971-0.225c-0.488-0.116-0.992-0.252-1.498-0.395l-0.221-0.059c-0.396-0.115-0.791-0.23-1.179-0.352
	c-0.55-0.176-1.065-0.358-1.577-0.542c-0.131-0.045-0.256-0.089-0.381-0.136c-0.392-0.148-0.806-0.313-1.218-0.483
	c-0.367-0.149-0.752-0.317-1.133-0.487c-0.746-0.334-1.458-0.677-2.135-1.027l-0.312-0.162c-0.269-0.136-0.473-0.243-0.672-0.353
	c-0.435-0.24-0.87-0.491-1.299-0.746c-0.16-0.097-0.306-0.184-0.446-0.274l-0.237-0.116l-0.406-0.29
	c-10.409-6.66-17.32-17.448-18.982-29.637l-0.06-0.472c-0.085-0.677-0.153-1.359-0.204-2.045l-0.043-0.62
	c-0.056-0.925-0.083-1.753-0.083-2.543c0-0.959,0.04-1.939,0.124-3.087l0.011-0.174c0.023-0.347,0.048-0.693,0.083-1.034l0.029-0.25
	c0.066-0.588,0.14-1.175,0.228-1.758c0.032-0.207,0.069-0.423,0.109-0.635l0.02-0.116c0.078-0.452,0.145-0.844,0.223-1.23
	c0.053-0.259,0.102-0.479,0.154-0.698l0.06-0.266c0.077-0.357,0.16-0.71,0.249-1.061c0.052-0.201,0.119-0.451,0.189-0.705
	l0.068-0.235c0.087-0.316,0.175-0.633,0.269-0.946c0.092-0.294,0.176-0.548,0.259-0.801l0.032-0.1
	c0.106-0.323,0.216-0.652,0.333-0.979c0.125-0.347,0.23-0.623,0.337-0.9c0.131-0.335,0.258-0.664,0.392-0.99
	c0.109-0.266,0.241-0.571,0.375-0.873c0.131-0.303,0.275-0.621,0.427-0.941c0.13-0.278,0.263-0.551,0.398-0.823
	c0.169-0.341,0.329-0.654,0.493-0.964c0.126-0.24,0.279-0.521,0.437-0.799c0.16-0.295,0.337-0.595,0.51-0.893
	c0.15-0.255,0.315-0.528,0.482-0.799c0.173-0.282,0.368-0.581,0.564-0.879c0.16-0.247,0.333-0.507,0.508-0.762
	c0.2-0.29,0.412-0.585,0.624-0.881c0.166-0.229,0.344-0.477,0.53-0.719c0.198-0.261,0.427-0.548,0.654-0.834l0.079-0.102
	c0.156-0.195,0.311-0.387,0.472-0.578c0.221-0.267,0.454-0.533,0.688-0.799l0.146-0.166c0.144-0.164,0.285-0.327,0.434-0.487
	c0.252-0.276,0.492-0.525,0.731-0.774l0.214-0.222c0.128-0.135,0.261-0.271,0.394-0.404c0.432-0.435,0.868-0.847,1.31-1.252
	l0.209-0.189c0.453-0.412,0.907-0.806,1.369-1.188c0.167-0.138,0.314-0.256,0.461-0.37l0.091-0.07
	c0.333-0.268,0.659-0.527,0.992-0.778c0.149-0.114,0.335-0.247,0.522-0.38l0.113-0.08c0.3-0.218,0.616-0.444,0.935-0.665
	c0.193-0.13,0.389-0.258,0.581-0.384l0.126-0.081c0.31-0.204,0.632-0.412,0.958-0.612c0.184-0.114,0.392-0.238,0.6-0.361l0.12-0.069
	c0.324-0.191,0.637-0.373,0.954-0.549c0.225-0.124,0.452-0.246,0.679-0.365l0.097-0.05c0.337-0.176,0.66-0.344,0.986-0.504
	c0.266-0.134,0.538-0.26,0.811-0.389c0.317-0.149,0.656-0.302,1-0.451c0.243-0.108,0.516-0.222,0.791-0.336
	c0.373-0.151,0.708-0.283,1.044-0.413c0.263-0.1,0.547-0.203,0.831-0.306c0.359-0.125,0.705-0.243,1.055-0.356
	c0.28-0.091,0.565-0.183,0.851-0.269c0.35-0.106,0.721-0.21,1.092-0.312c0.257-0.07,0.535-0.146,0.813-0.217
	c0.42-0.104,0.79-0.188,1.16-0.27c0.316-0.07,0.578-0.126,0.841-0.18c0.373-0.074,0.728-0.134,1.082-0.196l0.267-0.046
	c0.214-0.037,0.434-0.072,0.65-0.108c0.407-0.06,0.791-0.108,1.174-0.153l0.248-0.03c0.036-0.004,0.074-0.009,0.112-0.013
	c-0.169-0.021-0.337-0.04-0.52-0.06c-0.407-0.04-0.821-0.069-1.233-0.097l-0.23-0.018c-0.199-0.015-0.399-0.03-0.601-0.04
	c-1.344-0.067-2.735-0.071-4.2,0.001c-0.181,0.01-0.362,0.023-0.542,0.036l-0.094,0.009c-0.469,0.03-0.937,0.064-1.386,0.108
	c-0.214,0.021-0.429,0.047-0.643,0.072l-0.247,0.03c-0.384,0.045-0.768,0.092-1.177,0.153c-0.217,0.034-0.435,0.069-0.651,0.108
	l-0.265,0.046c-0.356,0.063-0.709,0.122-1.082,0.196c-0.263,0.054-0.526,0.111-0.841,0.18c-0.371,0.082-0.742,0.166-1.16,0.27
	c-0.279,0.071-0.555,0.147-0.814,0.217c-0.371,0.102-0.741,0.206-1.089,0.312c-0.289,0.086-0.574,0.178-0.853,0.269
	c-0.349,0.113-0.695,0.23-1.055,0.356c-0.286,0.103-0.567,0.207-0.83,0.306c-0.338,0.13-0.672,0.261-1.046,0.413
	c-0.273,0.114-0.547,0.228-0.791,0.336c-0.344,0.149-0.684,0.302-0.999,0.451c-0.274,0.127-0.547,0.254-0.812,0.389
	c-0.328,0.16-0.651,0.328-0.986,0.504l-0.095,0.05c-0.228,0.12-0.457,0.241-0.68,0.365c-0.316,0.176-0.63,0.358-0.954,0.549
	l-0.119,0.069c-0.211,0.123-0.417,0.247-0.604,0.361c-0.324,0.201-0.645,0.408-0.956,0.612l-0.125,0.081
	c-0.196,0.125-0.39,0.255-0.582,0.384c-0.319,0.221-0.634,0.447-0.937,0.665l-0.112,0.08c-0.187,0.133-0.373,0.266-0.524,0.38
	c-0.333,0.25-0.659,0.51-0.99,0.778l-0.089,0.07c-0.148,0.114-0.295,0.232-0.462,0.37c-0.463,0.382-0.915,0.776-1.371,1.188
	l-0.207,0.189c-0.444,0.404-0.878,0.817-1.312,1.252c-0.133,0.133-0.263,0.269-0.394,0.404l-0.212,0.222
	c-0.24,0.249-0.48,0.498-0.734,0.774c-0.145,0.161-0.29,0.324-0.432,0.487l-0.145,0.166c-0.235,0.266-0.468,0.532-0.689,0.799
	C59.043,328.143,58.888,328.336,58.733,328.53z"/>
<g>
</g>
<g>
</g>
<g>
</g>
<g>
</g>
<g>
</g>
<g>
</g>
<g>
</g>
<g>
</g>
<g>
</g>
<g>
</g>
<g>
</g>
<g>
</g>
<g>
</g>
<g>
</g>
<g>
</g>
</svg>
