<?xml version="1.0" encoding="iso-8859-1"?>
<!-- Generator: Adobe Illustrator 19.0.0, SVG Export Plug-In . SVG Version: 6.00 Build 0)  -->
<svg version="1.1" id="Layer_1" xmlns="http://www.w3.org/2000/svg" xmlns:xlink="http://www.w3.org/1999/xlink" x="0px" y="0px"
	 viewBox="0 0 512.001 512.001" style="enable-background:new 0 0 512.001 512.001;" xml:space="preserve">
<path style="fill:#E4EAF8;" d="M450.671,156.853H9.013c-4.978,0-9.013-4.036-9.013-9.013V39.678c0-4.978,4.036-9.013,9.013-9.013
	h441.658c4.978,0,9.013,4.036,9.013,9.013v108.161C459.685,152.817,455.649,156.853,450.671,156.853z"/>
<path style="fill:#FF5050;" d="M108.161,156.853H9.013c-4.978,0-9.013-4.036-9.013-9.013V39.678c0-4.978,4.036-9.013,9.013-9.013
	h99.148c4.978,0,9.013,4.036,9.013,9.013v108.161C117.175,152.817,113.139,156.853,108.161,156.853z"/>
<path style="fill:#707487;" d="M306.457,84.745H153.228c-4.982,0-9.013-4.031-9.013-9.013s4.031-9.013,9.013-9.013h153.228
	c4.982,0,9.013,4.031,9.013,9.013S311.439,84.745,306.457,84.745z"/>
<g>
	<path style="fill:#7F8499;" d="M414.618,120.799H243.363c-4.982,0-9.013-4.031-9.013-9.013s4.031-9.013,9.013-9.013h171.255
		c4.982,0,9.013,4.031,9.013,9.013S419.6,120.799,414.618,120.799z"/>
	<path style="fill:#7F8499;" d="M207.309,120.799h-54.081c-4.982,0-9.013-4.031-9.013-9.013s4.031-9.013,9.013-9.013h54.081
		c4.982,0,9.013,4.031,9.013,9.013S212.291,120.799,207.309,120.799z"/>
</g>
<g>
	<path style="fill:#FFFFFF;" d="M58.587,111.786c-4.982,0-9.013-4.031-9.013-9.013s4.031-9.013,9.013-9.013
		c7.455,0,13.52-6.065,13.52-13.52s-6.065-13.52-13.52-13.52s-13.52,6.065-13.52,13.52c0,4.982-4.031,9.013-9.013,9.013
		s-9.013-4.031-9.013-9.013c0-17.394,14.154-31.547,31.547-31.547s31.547,14.154,31.547,31.547S75.981,111.786,58.587,111.786z"/>
	<path style="fill:#FFFFFF;" d="M58.675,138.826c-4.982,0-9.057-4.031-9.057-9.013c0-4.982,3.987-9.013,8.969-9.013h0.088
		c4.982,0,9.013,4.031,9.013,9.013C67.689,134.795,63.657,138.826,58.675,138.826z"/>
</g>
<path style="fill:#E4EAF8;" d="M450.671,319.094H9.013c-4.978,0-9.013-4.036-9.013-9.013V201.92c0-4.978,4.036-9.013,9.013-9.013
	h441.658c4.978,0,9.013,4.036,9.013,9.013v108.161C459.685,315.059,455.649,319.094,450.671,319.094z"/>
<path style="fill:#FFDC64;" d="M108.161,319.094H9.013c-4.978,0-9.013-4.036-9.013-9.013V201.92c0-4.978,4.036-9.013,9.013-9.013
	h99.148c4.978,0,9.013,4.036,9.013,9.013v108.161C117.175,315.059,113.139,319.094,108.161,319.094z"/>
<path style="fill:#707487;" d="M306.457,246.987H153.228c-4.982,0-9.013-4.031-9.013-9.013c0-4.982,4.031-9.013,9.013-9.013h153.228
	c4.982,0,9.013,4.031,9.013,9.013C315.47,242.956,311.439,246.987,306.457,246.987z"/>
<path style="fill:#7F8499;" d="M207.309,283.041h-54.081c-4.982,0-9.013-4.031-9.013-9.013c0-4.982,4.031-9.013,9.013-9.013h54.081
	c4.982,0,9.013,4.031,9.013,9.013C216.322,279.009,212.291,283.041,207.309,283.041z"/>
<g>
	<path style="fill:#FFFFFF;" d="M58.587,274.027c-4.982,0-9.013-4.031-9.013-9.013c0-4.982,4.031-9.013,9.013-9.013
		c7.455,0,13.52-6.065,13.52-13.52c0-7.455-6.065-13.52-13.52-13.52s-13.52,6.065-13.52,13.52c0,4.982-4.031,9.013-9.013,9.013
		s-9.013-4.031-9.013-9.013c0-17.393,14.154-31.547,31.547-31.547s31.547,14.154,31.547,31.547S75.981,274.027,58.587,274.027z"/>
	<path style="fill:#FFFFFF;" d="M58.675,301.068c-4.982,0-9.057-4.031-9.057-9.013s3.987-9.013,8.969-9.013h0.088
		c4.982,0,9.013,4.031,9.013,9.013S63.657,301.068,58.675,301.068z"/>
</g>
<path style="fill:#E4EAF8;" d="M450.671,481.336H9.013C4.036,481.336,0,477.3,0,472.323V364.162c0-4.978,4.036-9.013,9.013-9.013
	h441.658c4.978,0,9.013,4.036,9.013,9.013v108.161C459.685,477.3,455.649,481.336,450.671,481.336z"/>
<path style="fill:#7DF5A5;" d="M108.161,481.336H9.013C4.036,481.336,0,477.3,0,472.323V364.162c0-4.978,4.036-9.013,9.013-9.013
	h99.148c4.978,0,9.013,4.036,9.013,9.013v108.161C117.175,477.3,113.139,481.336,108.161,481.336z"/>
<path style="fill:#707487;" d="M306.457,409.229H153.228c-4.982,0-9.013-4.031-9.013-9.013s4.031-9.013,9.013-9.013h153.228
	c4.982,0,9.013,4.031,9.013,9.013S311.439,409.229,306.457,409.229z"/>
<path style="fill:#7F8499;" d="M207.309,445.282h-54.081c-4.982,0-9.013-4.031-9.013-9.013s4.031-9.013,9.013-9.013h54.081
	c4.982,0,9.013,4.031,9.013,9.013S212.291,445.282,207.309,445.282z"/>
<g>
	<path style="fill:#FFFFFF;" d="M58.587,436.269c-4.982,0-9.013-4.031-9.013-9.013s4.031-9.013,9.013-9.013
		c7.455,0,13.52-6.065,13.52-13.52s-6.065-13.52-13.52-13.52s-13.52,6.065-13.52,13.52c0,4.982-4.031,9.013-9.013,9.013
		s-9.013-4.031-9.013-9.013c0-17.394,14.154-31.547,31.547-31.547s31.547,14.154,31.547,31.547S75.981,436.269,58.587,436.269z"/>
	<path style="fill:#FFFFFF;" d="M58.675,463.309c-4.982,0-9.057-4.031-9.057-9.013c0-4.982,3.987-9.013,8.969-9.013h0.088
		c4.982,0,9.013,4.031,9.013,9.013C67.689,459.278,63.657,463.309,58.675,463.309z"/>
</g>
<g>
	<path style="fill:#D5DCED;" d="M450.671,355.148h-45.067v53.47c0,12.43,10.114,22.541,22.546,22.541
		c4.384,0,8.65-1.277,12.337-3.692l3.616-2.371l15.582,37.618v-98.553C459.685,359.183,455.649,355.148,450.671,355.148z"/>
	<path style="fill:#D5DCED;" d="M444.073,280.636c-4.262-4.262-9.909-6.609-15.902-6.609c-12.443,0-22.566,10.113-22.566,22.543
		v22.525h45.067c4.978,0,9.013-4.036,9.013-9.013v-13.832L444.073,280.636z"/>
</g>
<path style="fill:#464655;" d="M423.631,296.57v112.048c0,3.584,3.979,5.734,6.978,3.769l21.819-14.3l27.947,67.471
	c1.905,4.599,7.178,6.783,11.776,4.879l13.664-5.66c4.599-1.905,6.783-7.178,4.879-11.777l-27.947-67.471l25.638-5.189
	c3.523-0.713,4.835-5.062,2.293-7.604l-79.352-79.352C428.486,290.543,423.631,292.554,423.631,296.57z"/>
<g>
	<path style="fill:#7F8499;" d="M396.591,283.041H243.363c-4.978,0-9.013-4.036-9.013-9.013l0,0c0-4.978,4.036-9.013,9.013-9.013
		h153.228c4.978,0,9.013,4.036,9.013,9.013l0,0C405.604,279.005,401.569,283.041,396.591,283.041z"/>
	<path style="fill:#7F8499;" d="M396.591,445.282H243.363c-4.978,0-9.013-4.036-9.013-9.013l0,0c0-4.978,4.036-9.013,9.013-9.013
		h153.228c4.978,0,9.013,4.036,9.013,9.013l0,0C405.604,441.247,401.569,445.282,396.591,445.282z"/>
</g>
<g>
</g>
<g>
</g>
<g>
</g>
<g>
</g>
<g>
</g>
<g>
</g>
<g>
</g>
<g>
</g>
<g>
</g>
<g>
</g>
<g>
</g>
<g>
</g>
<g>
</g>
<g>
</g>
<g>
</g>
</svg>
