<svg height="512pt" viewBox="0 0 512.00021 512" width="512pt" xmlns="http://www.w3.org/2000/svg"><path d="m511.996094 254.699219c.695312 139.355469-111.207032 254.324219-250.535156 257.242187-19.246094.402344-38.015626-1.332031-56.101563-4.964844-8.945313-1.796874-15.359375-9.703124-15.359375-18.832031 0-10.019531-8.125-18.144531-18.148438-18.144531h-50.882812c-3.640625 0-7.195312-1.105469-10.191406-3.171875-26.464844-18.261719-49.324219-41.371094-67.289063-68.054687-2.285156-3.390626-3.488281-7.398438-3.488281-11.492188v-55.019531c0-12.292969-9.96875-22.261719-22.261719-22.261719-7.121093 0-13.167969-5.175781-14.328125-12.203125-2.238281-13.601563-3.410156-27.5625-3.410156-41.796875 0-141.386719 114.613281-256 256-256 140.949219 0 255.296875 113.910156 255.996094 254.699219zm0 0" fill="#025f80"/><path d="m213.199219 52.410156c.65625-2.113281 1.296875-4.101562 1.722656-5.308594 5.933594-16.851562 13.980469-32.421874 23.75-46.503906 5.726563-.382812 11.503906-.597656 17.328125-.597656 1.929688 0 3.855469.03125 5.773438.0742188-12.539063 15.3945312-22.671876 33.1132812-29.632813 52.7617192-.398437 1.125-.996094 2.992187-1.621094 4.992187-1.472656 4.71875-6.460937 7.390625-11.207031 6.003906-4.871094-1.425781-7.625-6.570312-6.113281-11.421875zm298.734375 198.183594c-43.734375 35.519531-103.609375 49.601562-162.160156 32.460938-44.269532-12.957032-79.65625-41.632813-101.894532-78.15625l8.75-4.792969c2.894532-1.589844 2.730469-5.804688-.285156-7.160157l-28.285156-12.695312c-2.421875-1.085938-5.210938.441406-5.597656 3.066406l-4.523438 30.671875c-.484375 3.269531 2.980469 5.679688 5.878906 4.09375l8.132813-4.457031c24.5 40.625 63.710937 72.53125 112.835937 86.878906 59.050782 17.25 119.6875 5.425782 166.613282-27.058594.386718-5.765624.601562-11.582031.601562-17.445312 0-1.808594-.03125-3.609375-.066406-5.40625zm-238.636719 218.171875c-4.734375-1.429687-9.742187 1.195313-11.261719 5.902344-.644531 1.992187-1.261718 3.855469-1.667968 4.976562-4.152344 11.386719-9.378907 22.109375-15.511719 32.097657 3.695312.160156 7.410156.257812 11.144531.257812 3.273438 0 6.53125-.082031 9.773438-.203125 4.5-8.347656 8.441406-17.109375 11.761718-26.257813.4375-1.207031 1.09375-3.1875 1.769532-5.296874 1.554687-4.832032-1.148438-10.007813-6.007813-11.476563zm-2.042969-119.507813 4.808594-30.628906c.511719-3.265625-2.929688-5.707031-5.839844-4.144531l-8.175781 4.378906c-24.125-40.847656-63.035156-73.113281-112.027344-87.917969-52.023437-15.71875-105.492187-8.769531-149.808593 15.160157-.1250005 3.28125-.210938 6.578125-.210938 9.894531 0 3.621094.09375 7.21875.242188 10.804688 41.703124-25.585938 93.777343-33.855469 144.628906-18.457032 44.144531 13.367188 79.265625 42.363282 101.164062 79.09375l-8.792968 4.714844c-2.914063 1.558594-2.785157 5.777344.21875 7.160156l28.167968 12.957032c2.410156 1.109374 5.210938-.394532 5.625-3.015626zm6.226563 16.242188c-4.625-1.394531-9.503907 1.21875-10.902344 5.84375s1.21875 9.507812 5.84375 10.902344c4.625 1.398437 9.503906-1.21875 10.902344-5.84375 1.398437-4.621094-1.21875-9.503906-5.84375-10.902344zm-4.085938 34.34375c-1.691406 4.527344.605469 9.566406 5.128907 11.257812 4.523437 1.691407 9.566406-.601562 11.257812-5.128906 1.691406-4.523437-.605469-9.5625-5.128906-11.253906-4.523438-1.695312-9.5625.601562-11.257813 5.125zm11.964844 19.316406c-4.523437-1.691406-9.5625.605469-11.253906 5.128906-1.695313 4.523438.601562 9.566407 5.125 11.257813 4.527343 1.691406 9.566406-.605469 11.257812-5.128906 1.691407-4.523438-.601562-9.5625-5.128906-11.257813zm-2.789063 25.507813c-4.523437-1.695313-9.566406.601562-11.257812 5.125-1.691406 4.523437.605469 9.566406 5.128906 11.257812 4.523438 1.691407 9.566406-.605469 11.257813-5.128906 1.691406-4.523437-.605469-9.5625-5.128907-11.253906zm-66.484374-277.535157c4.636718 1.351563 9.492187-1.308593 10.847656-5.945312 1.351562-4.636719-1.308594-9.496094-5.945313-10.847656-4.636719-1.355469-9.492187 1.304687-10.847656 5.941406s1.304687 9.496094 5.945313 10.851562zm3.765624-34.382812c1.648438-4.539062-.695312-9.558594-5.234374-11.207031-4.539063-1.652344-9.558594.691406-11.207032 5.230469-1.652344 4.539062.691406 9.558593 5.230469 11.207031 4.539063 1.652343 9.558594-.6875 11.210937-5.230469zm-12.144531-19.203125c4.539063 1.648437 9.558594-.691406 11.210938-5.234375 1.648437-4.539062-.691407-9.558594-5.234375-11.207031-4.539063-1.648438-9.558594.691406-11.207032 5.230469-1.652343 4.542968.691407 9.558593 5.230469 11.210937zm2.554688-25.53125c4.542969 1.652344 9.558593-.691406 11.210937-5.230469 1.648438-4.539062-.691406-9.558594-5.234375-11.210937-4.539062-1.648438-9.558593.695312-11.207031 5.234375-1.652344 4.539062.691406 9.558594 5.230469 11.207031zm0 0" fill="#88b9d3"/><path d="m206.765625 507.25c-35.527344-6.921875-68.421875-21.183594-97.050781-41.15625 14.730468-5.089844 26.894531-16.925781 31.746094-32.984375 8.03125-26.582031-7.007813-54.644531-33.589844-62.679687-25.953125-7.839844-53.300782 6.308593-62.0625 31.714843-21.484375-30.84375-36.355469-66.636719-42.554688-105.328125 3.09375.6875 6.082032 2.046875 8.722656 4.105469l7.417969 5.769531c6.660157-4.394531 13.695313-8.183594 21.023438-11.335937l-.90625-8.835938c-1.128907-10.988281 6.078125-21.101562 16.832031-23.625 10.527344-2.464843 21.285156 3.097657 25.355469 13.113281l3.523437 8.675782c7.882813-.480469 15.875-.261719 23.898438.699218l3.621094-8.082031c4.515624-10.078125 15.816406-15.234375 26.390624-12.039062 10.351563 3.128906 16.882813 13.324219 15.398438 24.03125l-1.285156 9.296875c7.234375 3.601562 14.035156 7.800781 20.359375 12.527344l7.164062-5.179688c8.953125-6.472656 21.316407-5.285156 28.878907 2.765625 7.398437 7.882813 7.957031 19.980469 1.320312 28.515625l-5.773438 7.417969c4.394532 6.65625 8.1875 13.691406 11.339844 21.019531l8.835938-.90625c10.988281-1.128906 21.101562 6.082031 23.621094 16.835938 2.46875 10.523437-3.09375 21.28125-13.113282 25.351562l-8.671875 3.523438c.476563 7.882812.257813 15.875-.703125 23.898437l8.082032 3.621094c10.078124 4.519531 15.234374 15.820312 12.039062 26.390625-3.125 10.351562-13.320312 16.882812-24.03125 15.402344l-9.292969-1.289063c-3.605469 7.234375-7.804687 14.035156-12.527343 20.359375l5.179687 7.167969c.292969.40625.550781.824219.8125 1.238281zm0 0" fill="#fdbf43"/><path d="m141.460938 433.109375c8.035156-26.585937-7.003907-54.648437-33.589844-62.679687-25.949219-7.839844-53.300782 6.308593-62.0625 31.714843-8.375-12.023437-15.742188-24.796875-21.988282-38.207031 21.835938-27.765625 59.214844-40.808594 95.070313-29.972656 46.726563 14.117187 73.15625 63.441406 59.039063 110.164062-5.464844 18.09375-16.214844 33.136719-30.039063 43.96875-13.398437-6.25-26.160156-13.621094-38.171875-22.003906 14.726562-5.089844 26.890625-16.925781 31.742188-32.984375zm0 0" fill="#fda800"/><path d="m38.886719 391.644531c-5.5625-8.886719-10.605469-18.132812-15.066407-27.707031 16.441407-20.90625 41.691407-33.457031 68.46875-33.765625-24.214843 9.59375-43.980468 29.75-52.101562 56.625-.488281 1.613281-.910156 3.230469-1.300781 4.847656zm0 0" fill="#fc9302"/><path d="m285.144531 1.660156c-4.449219 7.433594-4.195312 17.03125 1.164063 24.304688l5.246094 7.117187c-4.667969 6.367188-8.804688 13.210938-12.339844 20.476563l-9.304688-1.203125c-10.722656-1.382813-20.859375 5.246093-23.890625 15.621093-3.09375 10.605469 2.164063 21.855469 12.285157 26.28125l8.117187 3.546876c-.890625 8.03125-1.035156 16.023437-.484375 23.902343l-8.640625 3.605469c-9.976563 4.164062-15.441406 14.96875-12.875 25.472656 2.617187 10.730469 12.800781 17.84375 23.777344 16.617188l8.828125-.992188c3.214844 7.300782 7.074218 14.300782 11.53125 20.917969l-5.703125 7.46875c-6.558594 8.59375-5.886719 20.6875 1.582031 28.5 7.636719 7.984375 20.011719 9.054687 28.902344 2.5l7.117187-5.246094c6.367188 4.667969 13.207031 8.804688 20.472657 12.339844l-1.199219 9.304687c-1.382813 10.726563 5.242187 20.859376 15.621093 23.890626 10.601563 3.097656 21.855469-2.164063 26.28125-12.285157l3.546876-8.113281c8.03125.886719 16.023437 1.03125 23.902343.480469l3.605469 8.640625c4.160156 9.976562 14.96875 15.441406 25.472656 12.878906 10.730469-2.621094 17.84375-12.800781 16.617188-23.777344l-.992188-8.828125c7.300782-3.21875 14.300782-7.078125 20.917969-11.53125l7.46875 5.703125c8.519531 6.5 20.464844 5.886719 28.28125-1.394531-12.964844-118.5625-106.882813-212.773437-225.308594-226.199219zm162.863281 124.804688c-7.785156 26.660156-35.707031 41.957031-62.367187 34.171875-26.65625-7.789063-41.957031-35.710938-34.167969-62.371094 7.785156-26.65625 35.710938-41.953125 62.367188-34.167969 26.65625 7.789063 41.957031 35.710938 34.167968 62.367188zm0 0" fill="#f18bc3"/><path d="m372.847656 28.167969c-27.015625 8.65625-49.390625 30.136719-57.941406 59.417969-13.6875 46.855468 13.199219 95.929687 60.054688 109.617187 46.128906 13.472656 94.410156-12.378906 108.953124-57.894531-24.453124-47.667969-63.417968-86.65625-111.066406-111.140625zm63.257813 94.820312c-5.867188 20.082031-26.902344 31.609375-46.988281 25.742188-20.082032-5.867188-31.605469-26.902344-25.738282-46.988281 5.863282-20.082032 26.902344-31.605469 46.984375-25.738282 20.082031 5.863282 31.605469 26.902344 25.742188 46.984375zm0 0" fill="#e659a9"/><path d="m410.78125 200.070312c-11.667969 1.476563-23.816406.640626-35.820312-2.867187-46.855469-13.6875-73.742188-62.765625-60.054688-109.617187 8.550781-29.28125 30.925781-50.765626 57.941406-59.417969 3.191406 1.636719 6.335938 3.34375 9.445313 5.113281-21.253907 10.609375-38.203125 29.699219-45.386719 54.304688-13.6875 46.851562 13.199219 95.929687 60.054688 109.613281 4.597656 1.347656 9.214843 2.292969 13.820312 2.871093zm0 0" fill="#df3d9b"/><path d="m174.617188 118.847656c.011718-4.300781-.371094-8.542968-1.117188-12.683594l4.367188-2.402343c5.042968-2.777344 7.3125-8.8125 5.355468-14.226563-2.003906-5.53125-7.804687-8.710937-13.542968-7.429687l-4.617188 1.03125c-2.121094-3.679688-4.566406-7.164063-7.304688-10.410157l2.589844-4.285156c2.976563-4.925781 1.925782-11.289062-2.476562-14.996094-4.5-3.785156-11.113282-3.640624-15.445313.335938l-3.464843 3.1875c-3.640626-2.105469-7.5-3.902344-11.550782-5.355469l.101563-4.996093c.117187-5.757813-3.972657-10.742188-9.640625-11.75-5.792969-1.027344-11.445313 2.402343-13.207032 8.015624l-1.410156 4.5c-4.304687-.007812-8.542968.371094-12.683594 1.117188l-2.40625-4.367188c-2.777343-5.042968-8.8125-7.3125-14.222656-5.355468-5.53125 2.003906-8.714844 7.804687-7.429687 13.542968l1.027343 4.617188c-3.675781 2.121094-7.160156 4.566406-10.40625 7.304688l-4.285156-2.589844c-4.925781-2.976563-11.289062-1.925782-14.996094 2.476562-3.789062 4.5-3.644531 11.113282.335938 15.441406l3.1875 3.46875c-2.105469 3.640626-3.902344 7.496094-5.355469 11.546876l-4.996093-.101563c-5.757813-.113281-10.742188 3.976563-11.75 9.644531-1.03125 5.792969 2.402343 11.445313 8.011718 13.207032l4.5 1.410156c-.007812 4.304687.375 8.542968 1.121094 12.683594l-4.367188 2.402343c-5.042968 2.777344-7.316406 8.8125-5.355468 14.226563 2.003906 5.53125 7.800781 8.710937 13.542968 7.429687l4.617188-1.03125c2.121094 3.679688 4.566406 7.164063 7.304688 10.410157l-2.589844 4.28125c-2.980469 4.929687-1.925782 11.289062 2.476562 14.996093 4.5 3.789063 11.113282 3.644531 15.441406-.335937l3.46875-3.183594c3.640626 2.105469 7.5 3.902344 11.546876 5.355469l-.101563 4.996093c-.113281 5.753907 3.976563 10.742188 9.644531 11.75 5.789063 1.027344 11.445313-2.402343 13.207032-8.015624l1.410156-4.5c4.300781.007812 8.542968-.371094 12.683594-1.117188l2.402343 4.367188c2.777344 5.042968 8.8125 7.3125 14.226563 5.351562 5.527344-2 8.710937-7.800781 7.429687-13.539062l-1.03125-4.617188c3.675781-2.125 7.164063-4.566406 10.410157-7.304688l4.28125 2.585938c4.929687 2.980469 11.289062 1.929688 14.996093-2.472656 3.789063-4.5 3.644531-11.113282-.335937-15.445313l-3.183594-3.464843c2.105469-3.640626 3.902344-7.5 5.355469-11.550782l4.996093.101563c5.753907.117187 10.738282-3.972657 11.75-9.640625 1.027344-5.792969-2.402343-11.445313-8.015624-13.207032zm-45.050782 4.640625c-2.589844 14.558594-16.496094 24.261719-31.054687 21.671875-14.558594-2.589844-24.261719-16.492187-21.671875-31.054687 2.589844-14.558594 16.496094-24.261719 31.054687-21.671875 14.558594 2.589844 24.261719 16.496094 21.671875 31.054687zm0 0" fill="#0ed1b2"/><path d="m111.933594 69.738281c-27.09375-4.820312-52.96875 13.234375-57.789063 40.328125-4.820312 27.09375 13.234375 52.96875 40.328125 57.789063 27.09375 4.820312 52.96875-13.234375 57.789063-40.328125 4.820312-27.09375-13.234375-52.96875-40.328125-57.789063zm24.886718 55.039063c-3.304687 18.570312-21.03125 30.941406-39.597656 27.636718-18.570312-3.304687-30.941406-21.03125-27.636718-39.597656 3.304687-18.566406 21.03125-30.941406 39.597656-27.636718 18.570312 3.304687 30.941406 21.03125 27.636718 39.597656zm0 0" fill="#0ab59e"/><path d="m111.09375 168c-5.367188.859375-10.964844.863281-16.621094-.144531-27.09375-4.820313-45.148437-30.695313-40.328125-57.789063 4.765625-26.78125 30.101563-44.714844 56.855469-40.46875-20.355469 3.261719-37.355469 19.03125-41.171875 40.46875-.464844 2.632813-.710937 5.25-.761719 7.839844-.015625.636719-.015625 1.273438 0 1.902344.449219 23.304687 17.277344 43.808594 41.09375 48.046875.3125.054687.621094.09375.933594.144531zm0 0" fill="#01988c"/><path d="m452.269531 420.34375c-4.964843-8.460938-13.457031-14.78125-23.871093-16.632812-18.886719-3.363282-36.921876 9.222656-40.285157 28.109374-2.425781 13.636719 3.460938 26.824219 14.027344 34.371094-16.40625 11.429688-34.207031 20.992188-53.105469 28.367188-2.550781-3.300782-4.878906-6.773438-6.96875-10.390625l-5.988281 1.335937c-7.445313 1.664063-14.96875-2.464844-17.566406-9.640625-2.542969-7.019531.402343-14.847656 6.945312-18.453125l5.664063-3.117187c-.964844-5.371094-1.460938-10.871094-1.449219-16.453125l-5.839844-1.828125c-7.277343-2.285157-11.730469-9.621094-10.394531-17.132813 1.308594-7.351562 7.777344-12.660156 15.242188-12.507812l6.480468.128906c1.886719-5.25 4.21875-10.257812 6.945313-14.980469l-4.132813-4.496093c-5.160156-5.617188-5.347656-14.195313-.433594-20.03125 4.808594-5.714844 13.0625-7.078126 19.453126-3.214844l5.554687 3.359375c4.210937-3.550781 8.734375-6.722657 13.503906-9.476563l-1.335937-5.988281c-1.660156-7.445313 2.464844-14.96875 9.640625-17.566406 7.019531-2.542969 14.847656.402343 18.453125 6.945312l3.117187 5.664063c5.371094-.964844 10.871094-1.460938 16.453125-1.449219l1.832032-5.839844c2.28125-7.277343 9.617187-11.730469 17.128906-10.394531 7.351562 1.308594 12.660156 7.777344 12.507812 15.242188l-.128906 6.480468c5.253906 1.886719 10.257812 4.21875 14.980469 6.949219l4.496093-4.132813c5.542969-5.09375 13.957032-5.335937 19.789063-.625-10.082031 24.621094-23.882813 47.320313-40.714844 67.398438zm0 0" fill="#7ecd00"/><path d="m468.175781 399.234375c-4.945312 7.3125-10.25 14.359375-15.902343 21.109375-4.96875-8.460938-13.460938-14.78125-23.875-16.636719-18.886719-3.359375-36.921876 9.226563-40.285157 28.113281-2.425781 13.636719 3.460938 26.824219 14.03125 34.371094-7.066406 4.921875-14.402343 9.472656-21.960937 13.675782-12.375-10.988282-20.183594-27.011719-20.183594-44.867188 0-33.136719 26.863281-60 60-60 19.734375 0 37.238281 9.53125 48.175781 24.234375zm0 0" fill="#6bae01"/><path d="m391.089844 473.457031c-3.578125 2.21875-7.214844 4.359375-10.90625 6.410157-12.375-10.988282-20.183594-27.011719-20.183594-44.867188 0-33.136719 26.863281-60 60-60 2.894531 0 5.730469.226562 8.515625.625-29.058594 4.175781-51.394531 29.160156-51.394531 59.375 0 14.640625 5.257812 28.042969 13.96875 38.457031zm0 0" fill="#5a9001"/></svg>