<svg xmlns="http://www.w3.org/2000/svg" viewBox="0 0 512 512"><radialGradient id="a" cx="256" cy="258" r="256" gradientTransform="matrix(1 0 0 -1 0 514)" gradientUnits="userSpaceOnUse"><stop offset="0" stop-color="#9c56b8"/><stop offset="1" stop-color="#8f3faf"/></radialGradient><circle cx="256" cy="256" r="256" fill="url(#a)"/><path d="M239.459 225.718a4.44 4.44 0 0 0-.669.881c-.321.191-.62.408-.882.669a4.451 4.451 0 0 0-.67.882c-.32.19-.62.408-.882.669a4.456 4.456 0 0 0-.669.882 4.38 4.38 0 0 0-.882.669 4.495 4.495 0 0 0-.671.882c-.32.191-.619.408-.881.67a4.423 4.423 0 0 0-.67.882c-.32.191-.62.408-.883.669a4.442 4.442 0 0 0-.668.882 4.492 4.492 0 0 0-.883.669 4.485 4.485 0 0 0-.669.882c-.321.191-.62.408-.882.67a4.423 4.423 0 0 0-.67.882c-.32.191-.62.408-.881.669-.262.261-.478.56-.669.879-.321.191-.622.41-.884.672-.262.263-.48.562-.672.884a4.495 4.495 0 0 0-.879.669 4.451 4.451 0 0 0-.67.882c-.32.19-.62.408-.881.669a4.451 4.451 0 0 0-.67.882c-.32.191-.62.408-.882.669s-.479.562-.67.882c-.321.191-.62.408-.882.67a4.423 4.423 0 0 0-.67.882 4.47 4.47 0 0 0-.881.669 4.48 4.48 0 0 0-.67.882 4.48 4.48 0 0 0-.882.67c-.261.261-.478.56-.669.879-.321.191-.621.41-.883.672-.262.261-.479.56-.672.881a4.495 4.495 0 0 0-.879.669 4.44 4.44 0 0 0-.673.884 4.495 4.495 0 0 0-.879.669 4.451 4.451 0 0 0-.67.882 4.48 4.48 0 0 0-.882.67c-.261.261-.477.56-.668.878-.322.192-.621.41-.884.672-.263.263-.48.562-.672.884a4.495 4.495 0 0 0-.879.669 4.48 4.48 0 0 0-.67.882c-.321.191-.62.408-.882.67a4.402 4.402 0 0 0-.669.881 4.423 4.423 0 0 0-.882.67 4.451 4.451 0 0 0-.67.882c-.32.191-.62.408-.882.67s-.479.561-.669.882c-.322.19-.621.408-.883.67s-.479.562-.67.884c-.322.19-.619.407-.88.668s-.479.559-.668.88c-.323.19-.622.408-.885.67a4.415 4.415 0 0 0-.669.883c-.321.19-.621.408-.883.67s-.479.562-.67.884c-.321.19-.619.407-.881.668-.26.261-.478.559-.668.88a4.396 4.396 0 0 0-.883.671 4.385 4.385 0 0 0-.67.882 4.492 4.492 0 0 0-.883.669 4.476 4.476 0 0 0-.669.882c-.321.191-.62.408-.882.67s-.479.561-.67.882c-.32.19-.62.408-.881.669a4.42 4.42 0 0 0-.67.883c-.321.19-.621.407-.883.669a4.471 4.471 0 0 0-.668.882c-.322.191-.621.408-.883.67s-.479.561-.67.882c-.32.191-.621.408-.882.669a4.453 4.453 0 0 0-.669.883c-.321.19-.621.408-.882.669a4.48 4.48 0 0 0-.67.882c-.321.191-.62.408-.882.67s-.479.561-.67.882c-.32.191-.62.408-.882.669a4.492 4.492 0 0 0-.669.883c-.321.19-.621.408-.883.669a4.471 4.471 0 0 0-.668.882c-.322.191-.621.408-.883.67s-.479.561-.67.882c-.32.19-.62.408-.882.669a4.492 4.492 0 0 0-.669.883 4.38 4.38 0 0 0-.882.669 4.38 4.38 0 0 0-.669.882c-.321.191-.621.408-.883.67s-.479.561-.669.881a4.463 4.463 0 0 0-.883.671 4.456 4.456 0 0 0-.669.882c-.321.19-.621.407-.882.669s-.479.562-.67.882a4.48 4.48 0 0 0-.882.67 4.402 4.402 0 0 0-.669.881 4.394 4.394 0 0 0-.882.67c-.262.261-.479.56-.669.879-.321.191-.622.41-.884.672-.262.263-.48.562-.672.884-.318.191-.617.407-.879.669s-.479.561-.67.882c-.32.19-.621.407-.883.669-.26.262-.476.561-.668.879-.32.191-.62.41-.883.672-.262.262-.48.562-.672.884-.318.191-.617.407-.879.669s-.479.561-.67.882c-.32.19-.62.407-.881.669a4.48 4.48 0 0 0-.67.882c-.32.191-.62.408-.882.669a4.555 4.555 0 0 0-.669.879c-.321.192-.621.41-.883.673-.263.262-.48.562-.672.883a4.534 4.534 0 0 0-.879.669 4.451 4.451 0 0 0-.67.882 4.423 4.423 0 0 0-.882.67 4.48 4.48 0 0 0-.67.882c-.32.191-.62.408-.882.669a4.437 4.437 0 0 0-.669.882c-.321.191-.62.408-.882.67s-.479.561-.67.882a4.51 4.51 0 0 0-.882.67 4.418 4.418 0 0 0-.669.882c-.32.19-.621.408-.883.669a4.48 4.48 0 0 0-.67.882c-.32.191-.619.408-.881.67s-.479.561-.67.882c-.32.19-.62.407-.881.669a4.458 4.458 0 0 0-.67.883c-.321.19-.62.407-.882.669s-.479.562-.671.882c-.32.191-.619.408-.881.67s-.479.561-.67.882c-.32.19-.62.408-.883.67a4.34 4.34 0 0 0-.668.882 4.38 4.38 0 0 0-.882.669 4.442 4.442 0 0 0-.67.882c-.321.191-.62.408-.882.67s-.479.561-.67.882c-.32.19-.62.408-.882.67a4.344 4.344 0 0 0-.669.882c-.322.19-.621.407-.882.669a4.48 4.48 0 0 0-.67.882c-.321.191-.62.408-.882.67s-.479.561-.669.881a4.46 4.46 0 0 0-.882.67 4.429 4.429 0 0 0-.67.883c-.321.19-.621.408-.883.669a4.515 4.515 0 0 0-.669.882c-.321.191-.62.408-.882.67a4.445 4.445 0 0 0-.67.881c-.32.191-.62.408-.881.67a4.451 4.451 0 0 0-.67.882c-.32.191-.62.408-.881.67a4.485 4.485 0 0 0-.671.882c-.321.191-.62.408-.882.67s-.479.561-.67.882c-.32.19-.62.408-.882.669a4.515 4.515 0 0 0-.669.882c-.32.191-.62.408-.882.669a4.453 4.453 0 0 0-.669.883c-.321.19-.621.408-.883.67s-.479.561-.67.882c-.32.19-.619.407-.881.669s-.479.562-.67.882a4.394 4.394 0 0 0-.882.67 4.38 4.38 0 0 0-.669.882 4.462 4.462 0 0 0-.883.669 4.437 4.437 0 0 0-.669.882c-.321.191-.62.408-.882.67s-.479.561-.67.882c-.322.191-.62.408-.882.67a4.465 4.465 0 0 0-.671.882 4.538 4.538 0 0 0-.881.669 4.515 4.515 0 0 0-.669.882c-.321.191-.62.408-.882.67s-.479.561-.67.882a4.48 4.48 0 0 0-.882.67 4.38 4.38 0 0 0-.669.882 4.429 4.429 0 0 0-.883.67 4.402 4.402 0 0 0-.669.881c-.321.191-.62.408-.882.67s-.479.561-.67.882c-.32.19-.62.407-.881.669a4.458 4.458 0 0 0-.67.883c-.32.19-.62.407-.882.669a4.52 4.52 0 0 0-.67.882c-.321.191-.62.408-.882.67s-.479.561-.67.882c-.32.19-.621.408-.882.669a4.492 4.492 0 0 0-.669.883c-.32.19-.621.408-.882.669a4.48 4.48 0 0 0-.67.882c-.32.191-.62.408-.882.67s-.479.561-.67.882c-.32.19-.621.407-.882.669s-.479.562-.669.883c-.321.19-.621.407-.883.669a4.56 4.56 0 0 0-.67.882c-.319.191-.619.408-.881.67s-.479.561-.67.882c-.32.19-.62.407-.883.669-.26.262-.478.562-.668.883-.321.19-.621.408-.882.669a4.48 4.48 0 0 0-.67.882c-.321.191-.62.408-.882.67s-.479.561-.67.882c-.32.19-.62.407-.882.669a4.492 4.492 0 0 0-.669.883c-.321.19-.621.408-.882.669a4.409 4.409 0 0 0-.669.882c-.322.191-.621.408-.883.67s-.479.561-.67.881c-.32.191-.621.408-.882.67s-.478.562-.669.882a4.46 4.46 0 0 0-.882.67 4.38 4.38 0 0 0-.669.882c-.32.191-.621.408-.883.67s-.479.561-.67.881c-.32.191-.619.408-.881.67s-.479.561-.67.882c-.32.19-.621.408-.883.669a4.448 4.448 0 0 0-.668.883c-.321.191-.621.408-.883.67s-.479.561-.67.881c-.32.191-.619.408-.881.67s-.479.561-.67.882c-.321.191-.62.408-.883.669-.26.262-.479.562-.669.883-.32.191-.62.408-.882.669a4.437 4.437 0 0 0-.669.882c-.321.191-.62.408-.882.67s-.479.562-.67.883c-.32.19-.62.407-.882.669a4.372 4.372 0 0 0-.669.882 4.458 4.458 0 0 0-.883.67 4.483 4.483 0 0 0-.67.881c-.32.191-.619.408-.881.67s-.479.561-.67.882c-.32.19-.62.408-.882.67-.066.066-.123.142-.185.213a257.468 257.468 0 0 0 57.066 54.31 3.63 3.63 0 0 0 .4-.344c.261-.262.477-.562.668-.883.321-.191.621-.407.883-.669a4.49 4.49 0 0 0 .67-.882c.319-.191.62-.408.881-.67.262-.262.479-.562.67-.881.32-.192.621-.408.883-.67s.477-.562.669-.883c.319-.191.62-.407.882-.669.262-.261.478-.562.669-.882.321-.191.62-.408.883-.67.261-.261.478-.562.669-.882.32-.191.621-.407.882-.669.262-.262.478-.562.669-.883.32-.191.621-.407.883-.669s.478-.562.67-.882c.319-.191.62-.408.881-.67.263-.262.479-.562.67-.882.32-.191.621-.407.882-.669.262-.262.478-.562.67-.883.319-.191.62-.407.882-.669a4.49 4.49 0 0 0 .67-.882c.319-.191.621-.408.881-.67.262-.261.479-.561.67-.882.32-.191.621-.407.882-.669.262-.262.478-.562.669-.883.32-.191.621-.406.883-.668s.477-.562.67-.883c.319-.191.62-.408.881-.669a4.52 4.52 0 0 0 .67-.882c.32-.192.62-.408.882-.67s.478-.562.669-.882c.32-.192.621-.407.883-.669s.478-.562.669-.883c.32-.191.621-.408.882-.669a4.52 4.52 0 0 0 .67-.882 4.55 4.55 0 0 0 .882-.67c.262-.262.478-.562.669-.882.32-.192.621-.407.883-.669s.478-.562.668-.883c.321-.191.622-.408.884-.67.261-.261.478-.562.669-.881.32-.191.62-.408.881-.67.263-.262.479-.562.67-.882.32-.191.621-.407.883-.669s.478-.562.669-.883c.32-.191.62-.408.882-.67.262-.261.479-.561.67-.881.32-.192.621-.408.882-.67s.478-.562.669-.882c.32-.192.621-.407.883-.669s.479-.562.669-.883c.32-.191.62-.407.882-.669s.479-.562.67-.882c.32-.192.62-.408.882-.67s.478-.562.669-.882c.32-.192.621-.407.883-.669a4.53 4.53 0 0 0 .669-.883c.321-.191.62-.407.882-.669a4.49 4.49 0 0 0 .67-.882c.319-.191.619-.408.881-.669.262-.262.479-.562.67-.883.32-.192.621-.407.883-.669.261-.262.477-.562.67-.883.319-.191.619-.408.881-.669s.478-.562.668-.882c.322-.191.622-.408.884-.67.261-.261.478-.562.669-.882.32-.191.621-.407.881-.669.263-.262.479-.562.671-.883.319-.191.62-.407.882-.669a4.49 4.49 0 0 0 .67-.882 4.51 4.51 0 0 0 .882-.67c.261-.261.478-.562.669-.882.32-.191.621-.407.882-.669s.478-.562.669-.883c.32-.191.621-.407.883-.669s.477-.562.67-.882a4.57 4.57 0 0 0 .882-.67c.261-.262.478-.562.669-.881a4.49 4.49 0 0 0 .882-.67c.262-.262.478-.562.669-.882.32-.192.621-.407.883-.669s.478-.562.669-.883a4.51 4.51 0 0 0 .882-.67c.262-.261.479-.562.67-.882.32-.191.621-.407.882-.669.262-.262.478-.562.669-.883.32-.191.621-.407.883-.668a4.41 4.41 0 0 0 .668-.883c.321-.191.622-.408.883-.669a4.52 4.52 0 0 0 .67-.882c.32-.192.621-.408.881-.67.263-.262.479-.562.671-.883a4.54 4.54 0 0 0 .882-.668c.262-.262.477-.562.669-.883.32-.191.62-.408.882-.67.262-.261.479-.561.67-.881.32-.191.62-.408.882-.67.261-.262.478-.562.669-.882.32-.191.621-.407.883-.669.262-.263.479-.563.67-.886.32-.19.619-.407.88-.668s.478-.559.667-.88a4.44 4.44 0 0 0 .886-.67c.261-.26.477-.56.668-.879.321-.191.622-.409.884-.672.263-.262.48-.562.672-.884a4.48 4.48 0 0 0 .879-.668 4.48 4.48 0 0 0 .67-.882c.32-.192.62-.408.881-.67.263-.262.479-.562.67-.882.32-.192.621-.407.883-.669s.478-.562.668-.883c.32-.191.621-.407.883-.669a4.49 4.49 0 0 0 .67-.882c.32-.191.621-.408.881-.67.262-.261.479-.562.67-.882.32-.191.621-.407.882-.669.262-.262.478-.562.67-.883.32-.191.62-.407.882-.669.262-.261.477-.562.669-.882.32-.191.621-.408.882-.669.262-.262.479-.562.67-.883.32-.191.621-.407.883-.669a4.53 4.53 0 0 0 .669-.883c.32-.191.62-.407.882-.669s.478-.562.67-.882a4.51 4.51 0 0 0 .882-.67c.261-.261.478-.562.669-.882.32-.191.621-.407.882-.669.262-.262.478-.562.669-.882.32-.192.621-.408.883-.67s.478-.562.67-.882a4.51 4.51 0 0 0 .882-.67c.261-.261.478-.562.669-.882.32-.191.621-.407.881-.669.263-.262.479-.562.67-.882.32-.192.621-.408.883-.67s.479-.563.67-.886c.32-.189.619-.406.879-.667.262-.261.479-.56.668-.88.322-.191.624-.408.886-.67.261-.262.478-.562.67-.883a4.54 4.54 0 0 0 .882-.668c.262-.262.479-.562.669-.883.32-.191.621-.408.883-.67.261-.261.478-.562.669-.881.32-.192.62-.408.883-.67a4.53 4.53 0 0 0 .669-.883c.319-.191.62-.407.882-.669a4.49 4.49 0 0 0 .67-.882c.32-.191.619-.408.881-.669a4.48 4.48 0 0 0 .67-.882 4.49 4.49 0 0 0 .882-.67c.263-.262.478-.562.669-.882.32-.192.621-.408.883-.67a4.49 4.49 0 0 0 .67-.882c.319-.191.62-.408.881-.669a4.52 4.52 0 0 0 .67-.882c.32-.192.62-.408.882-.67s.478-.562.669-.882c.32-.192.621-.407.883-.669s.478-.562.669-.883c.32-.191.62-.407.882-.669s.478-.562.67-.882c.32-.192.62-.408.882-.67.261-.261.478-.562.669-.882.32-.192.621-.408.883-.669.262-.262.477-.562.669-.883.32-.191.621-.408.882-.669a4.48 4.48 0 0 0 .67-.882 4.55 4.55 0 0 0 .882-.67c.262-.262.478-.562.669-.882.32-.192.621-.408.883-.669a4.53 4.53 0 0 0 .669-.883c.32-.191.62-.407.882-.669.261-.261.477-.56.668-.88.322-.19.621-.408.885-.671.262-.262.479-.562.67-.884.32-.191.619-.407.881-.668.261-.262.477-.562.668-.883.321-.191.621-.407.883-.669s.478-.562.67-.882c.319-.191.62-.408.881-.67.262-.261.479-.562.67-.882.32-.191.621-.407.883-.669a4.53 4.53 0 0 0 .669-.883c.32-.191.62-.407.882-.669s.477-.562.67-.882c.32-.192.62-.408.882-.67.261-.261.478-.562.669-.882.32-.191.621-.407.882-.669.262-.262.478-.562.67-.883a4.54 4.54 0 0 0 .882-.668c.262-.262.477-.562.669-.883.32-.191.621-.408.882-.669a4.48 4.48 0 0 0 .67-.882c.32-.192.621-.408.883-.67a4.53 4.53 0 0 0 .669-.883 4.54 4.54 0 0 0 .882-.668 4.41 4.41 0 0 0 .668-.883c.32-.191.621-.408.884-.67.262-.262.478-.562.669-.882.32-.191.621-.407.883-.669a4.51 4.51 0 0 0 .668-.882c.321-.192.621-.408.883-.67a4.49 4.49 0 0 0 .67-.882c.319-.191.62-.408.881-.669.262-.262.479-.562.67-.883.32-.191.621-.407.883-.669a4.55 4.55 0 0 0 .668-.882c.32-.192.621-.408.883-.669.262-.262.478-.562.669-.883.32-.191.62-.407.882-.669s.479-.562.67-.882c.32-.192.62-.408.882-.67.261-.262.478-.562.669-.882.32-.192.621-.407.883-.669.262-.263.479-.563.67-.886.32-.19.619-.407.88-.668s.478-.56.668-.88c.321-.191.623-.408.885-.67s.478-.562.669-.882c.32-.192.621-.408.883-.669a4.53 4.53 0 0 0 .669-.883c.319-.191.62-.407.882-.669.262-.261.478-.56.668-.88.322-.19.622-.408.885-.671s.481-.563.672-.887c.319-.19.617-.407.877-.667.262-.261.479-.56.668-.88.322-.191.623-.408.885-.67.262-.261.478-.56.668-.88a4.41 4.41 0 0 0 .885-.671c.262-.263.48-.563.672-.887.319-.19.617-.407.877-.667a4.4 4.4 0 0 0 .668-.88c.322-.19.623-.407.885-.67 5.076-5.077-3.283-21.668-18.673-37.058-15.388-15.383-31.98-23.743-37.056-18.667z" fill="#2a3e4f"/><ellipse transform="rotate(-45.001 267.32 253.584)" cx="267.323" cy="253.579" rx="13" ry="39.407" fill="#32495d"/><path d="M243.628 332.797c.319-.191.621-.408.882-.669.081-.081.15-.172.224-.26-5.346 4.592-21.655-3.737-36.806-18.888-15.152-15.152-23.48-31.461-18.889-36.807-.088.074-.178.143-.259.224a4.442 4.442 0 0 0-.67.882c-.321.191-.62.408-.882.67s-.479.561-.67.882c-.32.19-.62.408-.882.669a4.415 4.415 0 0 0-.669.883c-.322.19-.621.407-.883.669a4.476 4.476 0 0 0-.669.882c-.321.191-.62.408-.882.67s-.479.561-.67.882c-.32.191-.621.408-.882.67a4.418 4.418 0 0 0-.669.882c-.053.031-.1.068-.152.1-3.764 5.784 4.514 21.602 19.24 36.329 14.727 14.727 30.545 23.004 36.328 19.239.031-.052.069-.1.102-.15.32-.192.62-.408.881-.67.262-.261.479-.562.67-.882.32-.192.621-.408.883-.669a4.53 4.53 0 0 0 .669-.883c.32-.191.62-.407.882-.669s.479-.562.67-.882a4.51 4.51 0 0 0 .882-.67c.261-.262.478-.562.669-.882.32-.192.621-.408.883-.669.26-.262.477-.563.669-.883z" fill="#ecf0f1"/><path d="M357.047 231.127c0-50.607-24.312-74.918-74.918-74.918 50.605 0 74.918-24.312 74.918-74.919 0 50.606 24.312 74.919 74.918 74.919-50.606 0-74.918 24.311-74.918 74.918zm-189.895 18.936c0-29.682-14.26-43.939-43.939-43.939 29.68 0 43.939-14.259 43.939-43.939 0 29.681 14.259 43.939 43.939 43.939-29.68 0-43.939 14.258-43.939 43.939zm223.635 167.48c0-29.43-14.139-43.566-43.566-43.566 29.428 0 43.566-14.138 43.566-43.566 0 29.429 14.139 43.566 43.566 43.566-29.427 0-43.566 14.136-43.566 43.566z" fill="#f4c342"/><path d="M420.047 273.127c0-20.21-9.709-29.918-29.918-29.918 20.209 0 29.918-9.709 29.918-29.919 0 20.209 9.71 29.919 29.918 29.919-20.208 0-29.918 9.708-29.918 29.918zm-173-99.001c0-13.455-6.463-19.918-19.918-19.918 13.455 0 19.918-6.464 19.918-19.918 0 13.455 6.465 19.918 19.918 19.918-13.453 0-19.918 6.464-19.918 19.918z" fill="#ecf0f1"/></svg>