<svg xmlns="http://www.w3.org/2000/svg" viewBox="0 0 512 512"><radialGradient id="a" cx="256" cy="258" r="256" gradientTransform="matrix(1 0 0 -1 0 514)" gradientUnits="userSpaceOnUse"><stop offset=".005" stop-color="#33495f"/><stop offset="1" stop-color="#2b3e51"/></radialGradient><circle cx="256" cy="256" r="256" fill="url(#a)"/><path d="M348.754 221.396c0-51.227-40.754-92.752-92.754-92.752-51 0-92.752 41.525-92.752 92.752 0 1.664.045 3.32.132 4.963l-.133.033c0 25.686 21.405 63.732 29.967 78.002C201.776 318.662 208.911 356 208.911 356h94.89s6.423-37.338 14.984-51.605c8.562-14.27 29.967-52.2 29.967-77.886l-.134-.091c.088-1.645.136-3.357.136-5.022z" fill="#f4c342"/><path d="M348.754 221.396c0-51.227-40.754-92.752-92.754-92.752V356h47.801s6.423-37.338 14.984-51.605c8.562-14.27 29.967-52.2 29.967-77.886l-.134-.091c.088-1.645.136-3.357.136-5.022z" fill="#f89b36"/><path d="M285.002 360.168c-2.168 0-4.002-1.758-4.002-3.924v-47.803c0-2.529.75-5.475 1.82-7.768L291.793 282h-10.728c-.563 0-1.682-.049-1.965.438l-7.596 12.733c-1.227 2.119-3.164 3.108-5.279 3.005-2.125-.096-3.936-1.511-4.967-3.733l-5.284-11.431-5.229 11.351c-1.026 2.227-2.833 3.551-4.962 3.65-2.137.094-4.049-1.062-5.281-3.181l-7.594-12.39c-.281-.488-1.401-.442-1.965-.442H220.18l8.94 18.684c1.057 2.295 1.879 5.234 1.879 7.758v47.803c0 2.166-1.332 3.924-3.5 3.924-2.166 0-3.5-1.758-3.5-3.924v-47.803c0-1.393-1.002-3.904-1.586-5.17l-10.205-21.701c-.962-2.088-.979-4.176.143-5.93 1.125-1.75 2.976-2.641 5.275-2.641h13.316c3.378 0 7.059 2.004 8.753 4.924l5.587 9.563 5.517-12.021c1.85-4.021 2.543-5.54 5.16-5.54 2.61 0 3.306 1.493 5.167 5.503l5.582 12.028 5.605-9.535c1.693-2.918 5.374-4.923 8.751-4.923h13.318c2.304 0 4.267.891 5.386 2.648 1.122 1.76 1.204 3.903.23 5.991l-9.992 21.687c-.588 1.256-1.008 3.729-1.008 5.115v47.803c.002 2.167-1.83 3.925-3.996 3.925z" fill="#ec7c2d"/><path d="M294.384 273h-13.318c-3.377 0-7.058 2.004-8.751 4.922l-5.605 9.591-5.582-12.063c-1.85-3.986-2.127-5.52-5.127-5.535v13.105l5.26 11.336c1.031 2.223 2.838 3.551 4.966 3.648 2.113.104 4.052-1.061 5.28-3.178l7.595-12.389c.283-.486 1.401-.438 1.965-.438h10.728l-8.973 18.674c-1.07 2.293-1.82 5.238-1.82 7.768V356h8v-47.559c0-1.387.42-3.887 1.008-5.143l10.038-21.717c.972-2.088.866-4.174-.253-5.934-1.121-1.756-3.107-2.647-5.411-2.647z" fill="#d9521e"/><path d="M213.19 352c-7.848 0-14.19 4.957-14.19 12.805v49.945c0 31.393 26 57.078 57 57.078V352h-42.81z" fill="#bdc3c7"/><path d="M298.808 352H256v119.828c32 0 57-25.686 57-57.078v-49.945c0-7.848-6.343-12.805-14.192-12.805z" fill="#94a5a6"/><path d="M321 381.217v-10.705c0-1.961-2.393-3.512-4.354-3.512H256v18h60.646c1.961 0 4.354-1.822 4.354-3.783z" fill="#bdc3c7"/><path d="M195.354 367c-1.96 0-3.354 1.551-3.354 3.512v10.705c0 1.961 1.394 3.783 3.354 3.783H256v-18h-60.646z" fill="#ecf0f1"/><path d="M316.646 418c1.962 0 4.354-2.002 4.354-3.965v-10.703c0-1.961-2.393-3.332-4.354-3.332H256v18h60.646z" fill="#bdc3c7"/><path d="M192 403.332v10.703c0 1.963 1.394 3.965 3.354 3.965H256v-18h-60.646c-1.96 0-3.354 1.371-3.354 3.332z" fill="#ecf0f1"/><path d="M256.5 92.971c-5.911 0-10.5-4.791-10.5-10.703V50.875c0-5.91 4.589-10.703 10.5-10.703 5.909 0 10.5 4.793 10.5 10.703v31.393c0 5.912-4.591 10.703-10.5 10.703z" fill="#f4c342"/><path d="M256.5 92.971c-5.911 0-10.5-4.791-10.5-10.703V50.875c0-5.91 4.589-10.703 10.5-10.703 5.909 0 10.5 4.793 10.5 10.703v31.393c0 5.912-4.591 10.703-10.5 10.703z" fill="#f4c342"/><path d="M423.668 230h-31.395c-5.909 0-10.703-4.59-10.703-10.5 0-5.912 4.794-10.5 10.703-10.5h31.395c5.91 0 10.701 4.588 10.701 10.5 0 5.91-4.791 10.5-10.701 10.5z" fill="#f89b36"/><path d="M423.668 230h-31.395c-5.909 0-10.703-4.59-10.703-10.5 0-5.912 4.794-10.5 10.703-10.5h31.395c5.91 0 10.701 4.588 10.701 10.5 0 5.91-4.791 10.5-10.701 10.5z" fill="#f89b36"/><path d="M119.725 230H88.332c-5.909 0-10.702-4.59-10.702-10.5 0-5.912 4.793-10.5 10.702-10.5h31.393c5.91 0 10.704 4.588 10.704 10.5 0 5.91-4.794 10.5-10.704 10.5zm39.915-97.115a10.664 10.664 0 0 1-7.568-3.135l-22.199-22.197c-4.18-4.18-4.18-10.957 0-15.137s10.957-4.18 15.135 0l22.199 22.199c4.179 4.178 4.179 10.955 0 15.135a10.669 10.669 0 0 1-7.567 3.135z" fill="#f4c342"/><path d="M352.358 132.885a10.664 10.664 0 0 1-7.565-3.133c-4.181-4.18-4.181-10.955 0-15.135l22.196-22.201c4.179-4.178 10.955-4.18 15.136 0 4.178 4.18 4.178 10.957 0 15.137l-22.198 22.199a10.664 10.664 0 0 1-7.569 3.133z" fill="#f89b36"/><path d="M352.358 132.885a10.664 10.664 0 0 1-7.565-3.133c-4.181-4.18-4.181-10.955 0-15.135l22.196-22.201c4.179-4.178 10.955-4.18 15.136 0 4.178 4.18 4.178 10.957 0 15.137l-22.198 22.199a10.664 10.664 0 0 1-7.569 3.133z" fill="#f89b36"/></svg>