<svg xmlns="http://www.w3.org/2000/svg" viewBox="0 0 512 512"><radialGradient id="a" cx="256" cy="258" r="256" gradientTransform="matrix(1 0 0 -1 0 514)" gradientUnits="userSpaceOnUse"><stop offset="0" stop-color="#2a93d8"/><stop offset="1" stop-color="#227fbb"/></radialGradient><path d="M512 256c0 141.385-114.615 256-256 256S0 397.385 0 256c0-5.644.183-11.245.542-16.797 2.532-39.087 51.945-24.729 70.074-57.086 15.096-26.946-3.185-101.939 20.25-121.742C135.443 22.707 193.07 0 256 0s120.556 22.706 165.132 60.373c22.964 19.404.486 92.458 15.465 118.744 17.726 31.105 71.098 16.606 74.404 54.11.661 7.502.999 15.098.999 22.773z" fill="url(#a)"/><path d="M511.191 235.6c-2.976-37.74-14.144-73.17-31.714-104.532a257.17 257.17 0 0 0-58.357-70.682l-96.521 96.521 132.699 132.7 53.902-53.902-.009-.105z" fill="#33495f"/><path d="M389.118 221.427l68.123 68.124 53.95-53.95c-2.976-37.74-14.144-73.17-31.714-104.532l-43.227 43.228-47.132 47.13z" fill="#2b3e51"/><path d="M90.879 60.387a257.12 257.12 0 0 0-58.356 70.682C14.953 162.431 3.785 197.861.809 235.602l53.949 53.949 44.996-44.995 23.128-23.128 64.519-64.519-96.522-96.522z" fill="#95a5a6"/><path d="M.809 235.601l53.949 53.949 44.996-44.995 23.128-23.128-90.359-90.358C14.953 162.431 3.785 197.861.809 235.601z" fill="#7f8c8d"/><path fill="#d55400" d="M201.564 301.864L314.699 188.73l111.014 111.014-113.135 113.134z"/><path d="M131.912 399.799c7.778 7.778 20.506 7.778 28.284 0l71.418-71.418c7.778-7.778 7.778-20.506 0-28.284-7.778-7.778-20.506-7.778-28.284 0l-71.418 71.418c-7.778 7.777-7.778 20.506 0 28.284zm16.971 46.669c8.556 8.556 22.557 8.556 31.112 0l98.995-98.995c8.557-8.556 8.557-22.557 0-31.112-8.556-8.556-22.557-8.556-31.112 0l-98.995 98.995c-8.557 8.555-8.556 22.556 0 31.112zm41.719 19.092c7.001 7 18.456 7 25.456 0l84.854-84.853c7-7 7-18.456 0-25.456-7.001-7-18.456-7-25.456 0l-84.854 84.853c-7 7-7 18.456 0 25.456zm42.426 7.071c5.445 5.445 14.354 5.445 19.799 0l72.832-72.832c5.445-5.445 5.445-14.354 0-19.799-5.444-5.445-14.354-5.445-19.799 0l-72.832 72.832c-5.444 5.444-5.444 14.354 0 19.799z" fill="#d55400"/><path fill="#ecf0f1" d="M305.862 187.668l24.749-24.749 121.382 121.383-24.748 24.749z"/><path fill="#bdc3c7" d="M364.368 246.173l24.748-24.748 62.85 62.85-24.748 24.748z"/><circle cx="460.515" cy="224.198" r="20.475" fill="#ecf0f1"/><path fill="#f59d00" d="M199.422 412.879L86.287 299.744 197.3 188.73l113.135 113.135z"/><path d="M380.087 399.799c-7.778 7.778-20.506 7.778-28.284 0l-71.418-71.418c-7.777-7.778-7.777-20.506 0-28.284 7.778-7.778 20.507-7.778 28.284 0l71.418 71.418c7.778 7.777 7.778 20.506 0 28.284zm-16.971 46.669c-8.556 8.556-22.556 8.556-31.112 0l-98.995-98.995c-8.556-8.556-8.556-22.557 0-31.112 8.557-8.556 22.557-8.556 31.113 0l98.994 98.995c8.557 8.555 8.557 22.556 0 31.112zm-41.719 19.092c-7 7-18.456 7-25.456 0l-84.853-84.853c-7-7-7-18.456 0-25.456s18.455-7 25.456 0l84.853 84.853c7 7 7 18.456 0 25.456zm-42.426 7.071c-5.444 5.445-14.354 5.445-19.799 0l-72.832-72.832c-5.444-5.445-5.444-14.354 0-19.799 5.445-5.445 14.354-5.445 19.799 0l72.832 72.832c5.445 5.444 5.445 14.354 0 19.799z" fill="#f59d00"/><path fill="#ecf0f1" d="M84.76 309.053l-24.75-24.749 121.383-121.383 24.748 24.749z"/><path fill="#bdc3c7" d="M84.787 309.026l-24.749-24.748 62.85-62.85 24.748 24.75z"/><path fill="#e87e04" d="M258.129 249.557l20.001-24.26-19.275-19.166-57.666-13.515z"/><circle cx="365.71" cy="385.017" r="15" fill="#ecf0f1"/><circle cx="348.74" cy="431.686" r="15" fill="#ecf0f1"/><circle cx="307.728" cy="451.485" r="13" fill="#ecf0f1"/><circle cx="268.129" cy="461.385" r="10" fill="#ecf0f1"/><circle cx="51.485" cy="224.198" r="20.475" fill="#ecf0f1"/><path d="M232.655 289.49c-18.929 19.935-50.892 4.773-50.892 4.773l71.381-88.132 57.666-13.515c.001 0-59.225 76.94-78.155 96.874z" fill="#d55400"/><path d="M291.674 256.757s33.663 28.442 72.693-10.583l36.611 36.612s-20.268 79.972-50.269 51.787c-24.471-22.99-67.655-69.348-67.655-69.348l8.62-8.468z" fill="#e87e04"/></svg>