<svg xmlns="http://www.w3.org/2000/svg" viewBox="0 0 512 512"><radialGradient id="a" cx="256" cy="258" r="256" gradientTransform="matrix(1 0 0 -1 0 514)" gradientUnits="userSpaceOnUse"><stop offset=".005" stop-color="#1eca6b"/><stop offset=".995" stop-color="#19a658"/></radialGradient><circle cx="256" cy="256" r="256" fill="url(#a)"/><path d="M151.143 391.916l-15.531-15.529-15.527-15.527a3.97 3.97 0 0 0-5.643.008l-33.523 33.523c-1.582 1.582-1.655 4.178-.1 5.734l15.528 15.527 15.528 15.529c1.556 1.555 4.152 1.482 5.734-.1l33.523-33.523a3.972 3.972 0 0 0 .011-5.642z" fill="#ec7c2d"/><path d="M151.143 391.916l-15.531-15.529-39.265 39.266 15.528 15.529c1.556 1.555 4.152 1.482 5.734-.1l33.523-33.523a3.974 3.974 0 0 0 .011-5.643z" fill="#d9521e"/><path d="M431.765 80.235c-.784-.784-2.381-.759-4.646.316l-15.049 7.128 6.124 6.125 6.128 6.126 7.125-15.05c1.076-2.264 1.102-3.862.318-4.645z" fill="#32495d"/><path d="M424.322 99.93l7.125-15.05c1.076-2.265 1.102-3.862.317-4.646l-13.57 13.569 6.128 6.127z" fill="#2a3e4f"/><path d="M418.194 93.804l-6.124-6.125-41.961 19.918c-4.531 2.149-11.158 6.828-14.695 10.366l-9.653 9.653c-3.538 3.538-3.474 9.364.128 12.965l12.766 12.766 12.764 12.765c3.602 3.6 9.426 3.667 12.965.127l9.652-9.652c3.539-3.54 8.217-10.166 10.367-14.696l19.92-41.96-6.129-6.127z" fill="#f89b36"/><path d="M412.07 87.679l-41.961 19.918c-4.531 2.149-11.158 6.828-14.695 10.366l-9.653 9.653c-3.538 3.538-3.474 9.364.128 12.965l12.766 12.766 59.54-59.543-6.125-6.125z" fill="#f4c342"/><path fill="#1380b6" d="M171.336 379.283l-9.654-9.654 211.425-211.424 22.524-3.214z"/><path fill="#1c99d8" d="M376.32 135.679l-22.525 3.214-211.424 211.425 9.654 9.655 9.657 9.656 211.425-211.424z"/><path fill="#1380b6" d="M132.715 340.662l9.977 9.977 211.425-211.424 2.893-22.846z"/><path d="M138.232 415.607c-1.771 1.77-4.713 1.814-6.482.045L96.347 380.25c-1.771-1.77-1.724-4.713.047-6.482l37.644-37.645c1.77-1.77 4.633-1.736 6.403.033l35.403 35.402c1.77 1.771 1.803 4.635.033 6.406l-37.645 37.643z" fill="#bdc3c7"/><path d="M166.869 393.408a2.28 2.28 0 0 1-3.217 0l-45.061-45.061a2.28 2.28 0 0 1 0-3.217l5.469-5.471a2.286 2.286 0 0 1 3.22 0l45.058 45.061c.887.883.887 2.332.001 3.217l-5.47 5.471zm-18.982 18.985a2.283 2.283 0 0 1-3.219-.002l-45.059-45.059a2.281 2.281 0 0 1 0-3.219l5.469-5.469a2.283 2.283 0 0 1 3.219 0l45.057 45.059c.887.885.887 2.334.002 3.217l-5.469 5.473z" fill="#ecf0f1"/><path d="M86.303 86.455l-.48-.48c.026.137.055.266.081.401-.136-.025-.267-.053-.403-.079l.485.485c15.459 78.206 50.861 67.896 50.861 67.896l8.841-8.84v-.001l8.92-8.92c-.001 0 10.23-35.325-68.305-50.462z" fill="#32495d"/><path d="M154.607 136.917s10.312-35.57-69.107-50.62l59.865 59.862 9.242-9.242z" fill="#2a3e4f"/><path d="M424.238 406.494L232.432 197.212c-3.104-3.385-8.561-8.369-12.213-11.155l-36.256-27.645-12.85 12.851-12.208 12.208 27.644 36.256c2.787 3.649 7.771 9.108 11.156 12.212l209.314 191.84c3.385 3.104 8.766 2.965 11.996-.266l2.172-2.174 2.818-2.816c3.231-3.232 3.337-8.646.233-12.029z" fill="#ee483c"/><path d="M220.219 186.057l-36.256-27.645-12.85 12.851L421.188 421.34l2.818-2.816c3.23-3.232 3.336-8.646.232-12.029L232.432 197.212c-3.104-3.384-8.561-8.369-12.213-11.155z" fill="#c6362b"/><path fill="#f4c342" d="M155.17 136.354l-9.482 9.483-8.841 8.84 33.997 44.536 14.109-14.11 14.752-14.753z"/><path fill="#f89b36" d="M145.688 145.837l39.265 39.266 14.752-14.753-44.535-33.996z"/></svg>