<svg xmlns="http://www.w3.org/2000/svg" viewBox="0 0 512 512"><radialGradient id="a" cx="256" cy="258" r="256" gradientTransform="matrix(1 0 0 -1 0 514)" gradientUnits="userSpaceOnUse"><stop offset=".005" stop-color="#33495f"/><stop offset="1" stop-color="#2b3e51"/></radialGradient><circle cx="256" cy="256" r="256" fill="url(#a)"/><path d="M84 135v263h314.926C414.647 398 427 385.443 427 370.1V135H84z" fill="#1380b6"/><path d="M339 275.312a3.688 3.688 0 0 1-3.688 3.688H182.688a3.686 3.686 0 0 1-3.688-3.688v-33.625a3.687 3.687 0 0 1 3.688-3.688h152.623a3.687 3.687 0 0 1 3.688 3.688v33.625H339zM186 273h146v-27H186v27zm169.589 38h-96.817c-2.037 0-3.688-1.463-3.688-3.5s1.65-3.5 3.688-3.5h96.817c2.038 0 3.688 1.463 3.688 3.5s-1.65 3.5-3.688 3.5zm.923 16H248.629c-2.037 0-3.688-1.463-3.688-3.5s1.651-3.5 3.688-3.5h107.883c2.036 0 3.688 1.463 3.688 3.5s-1.652 3.5-3.688 3.5z" fill="#bdc3c7"/><path d="M398.5 114c-15.721 0-28.5 12.863-28.5 28.584V367.57c0-15.722 12.779-28.584 28.5-28.584S427 351.849 427 367.57V142.584C427 126.863 414.221 114 398.5 114z" fill="#1c99d8"/><path d="M370 367.57v1.844c0 12.498 8 23.182 19 27.04v-55.925c-11 3.86-19 14.543-19 27.041z" fill="#2a3e4f" opacity=".4"/><path d="M285 215.091c0 7.13-5.779 12.909-12.909 12.909H125.909c-7.13 0-12.909-5.779-12.909-12.909v-51.182c0-7.13 5.779-12.909 12.909-12.909h146.182c7.13 0 12.909 5.779 12.909 12.909v51.182zm-7-51.559a5.532 5.532 0 0 0-5.532-5.532H125.531a5.531 5.531 0 0 0-5.531 5.532v51.936a5.531 5.531 0 0 0 5.531 5.532h146.937a5.532 5.532 0 0 0 5.532-5.532v-51.936zm-116 205.78a3.688 3.688 0 0 1-3.688 3.688h-41.623a3.686 3.686 0 0 1-3.688-3.688V241.688a3.687 3.687 0 0 1 3.688-3.688h41.623a3.687 3.687 0 0 1 3.688 3.688v127.624zM120 366h34V246h-34v120zm98.068-29h-23.271c-1.32 0-2.541-.637-3.199-1.781l-11.635-20.251a3.656 3.656 0 0 1 0-3.653l11.635-20.373c.658-1.146 1.879-1.941 3.199-1.941h23.271c1.321 0 2.543.804 3.199 1.95l11.637 20.333a3.735 3.735 0 0 1 0 3.695l-11.637 20.228c-.656 1.145-1.877 1.793-3.199 1.793zm-21.134-7h18.998l9.521-16.5-9.521-16.5h-18.998l-9.52 16.5 9.52 16.5zm66.447 27h-80.219c-2.037 0-3.689-1.963-3.689-4s1.652-4 3.689-4h80.219c2.037 0 3.689 1.963 3.689 4s-1.652 4-3.689 4zm6.455 14h-86.674c-2.037 0-3.689-1.462-3.689-3.498 0-2.038 1.652-3.502 3.689-3.502h86.674c2.037 0 3.689 1.464 3.689 3.502 0 2.036-1.652 3.498-3.689 3.498zM302.5 226.492c-2.037 0-3.5-1.65-3.5-3.688v-68.233c0-2.036 1.463-3.688 3.5-3.688s3.5 1.652 3.5 3.688v68.233c0 2.038-1.463 3.688-3.5 3.688zm16-23.051c-2.036 0-3.5-1.652-3.5-3.688v-45.182c0-2.036 1.464-3.688 3.5-3.688 2.037 0 3.5 1.652 3.5 3.688v45.182c0 2.036-1.463 3.688-3.5 3.688zm-12.001 167.817c-2.036 0-3.499-1.65-3.499-3.688v-26.74c0-2.037 1.463-3.688 3.499-3.688S310 338.793 310 340.83v26.74c0 2.037-1.465 3.688-3.501 3.688z" fill="#bdc3c7"/></svg>