<svg xmlns="http://www.w3.org/2000/svg" viewBox="0 0 512 512"><path d="M86.435 91.927v168.711h28.573v18.848l7.735 2.392a76.342 76.342 0 0 1 13.083 5.424l7.161 3.785 13.335-13.336 21.162 21.164-13.336 13.335 3.786 7.161a75.961 75.961 0 0 1 5.425 13.083l2.392 7.735h18.848v16.182h302.205V91.927H86.435z" fill="#f3e2c2"/><path d="M212.161 375.645v-19.233h-30.008v1.309h-24.036c-.011.16-.021.32-.033.471-.784 12.073-6.367 23.319-15.277 31.309h44.045a81.64 81.64 0 0 0 4.917-13.856h20.392z" fill="#acb7c9"/><g fill="#fbd7b1"><path d="M182.895 313.339l14.423-14.425-28.921-28.926-9.917 9.918 19.006 19.007-13.336 13.335 3.786 7.161a75.961 75.961 0 0 1 5.425 13.083l2.392 7.735h18.848v16.182h17.561v-21.67H191.77a81.606 81.606 0 0 0-8.875-21.4zm-91.23-58.189v5.488h23.343v18.848l7.735 2.392a76.342 76.342 0 0 1 13.083 5.424l7.161 3.785 8.228-8.229a81.457 81.457 0 0 0-18.647-7.315V255.15H91.665z"/><path d="M86.431 91.929h13.608v163.225H86.431z"/><path d="M86.431 90.831h410.368v13.608H86.431z"/></g><path d="M510.354 354.766h-328.2c-.795 0-1.456.562-1.612 1.309h-34.514a1.641 1.641 0 0 0-1.642 1.76c.058.853.086 1.565.086 2.238 0 .427-.018.846-.036 1.304-.004.228-.01.405-.02.583-.01.187-.024.353-.046.562-.735 9.727-6.07 19.086-14.638 25.675a1.647 1.647 0 0 0 1.004 2.952h379.62c.909 0 1.646-.738 1.646-1.646v-33.09a1.65 1.65 0 0 0-1.648-1.647zm0-297.575H72.886c-.909 0-1.646.738-1.646 1.646v33.09c0 .909.738 1.646 1.646 1.646h437.467c.909 0 1.646-.738 1.646-1.646v-33.09a1.645 1.645 0 0 0-1.645-1.646z" fill="#324a5e"/><path fill="#6598cb" d="M237.309 229.714h34.626v80.614h-34.626z"/><path fill="#ef4c35" d="M296.466 195.141h34.626v115.186h-34.626z"/><path fill="#f7971d" d="M353.867 215.994h34.627v94.336h-34.627z"/><path fill="#fcd638" d="M414.78 147.914h34.628v162.424H414.78z"/><path d="M131.694 136.199h43.874a8.232 8.232 0 0 1 8.232 8.232 8.23 8.23 0 0 1-8.232 8.232h-43.874a8.233 8.233 0 0 1 0-16.464zm0 27.439h67.844c4.547 0 8.232 3.684 8.232 8.232s-3.684 8.232-8.232 8.232h-67.844a8.233 8.233 0 0 1 0-16.464zm0 27.438h67.844c4.547 0 8.232 3.684 8.232 8.232s-3.684 8.232-8.232 8.232h-67.844a8.233 8.233 0 0 1 0-16.464zm0 27.438h67.844c4.547 0 8.232 3.684 8.232 8.232s-3.684 8.232-8.232 8.232h-67.844a8.233 8.233 0 0 1 0-16.464z" fill="#fff"/><path d="M197.107 332.088h-17.496a82.2 82.2 0 0 0-7.273-17.545l12.375-12.374a2.982 2.982 0 0 0 0-4.216l-27.852-27.858a2.98 2.98 0 0 0-4.216 0l-12.379 12.377a82.077 82.077 0 0 0-17.541-7.273v-17.497a2.982 2.982 0 0 0-2.982-2.981H80.347a2.983 2.983 0 0 0-2.982 2.981V275.2a82.133 82.133 0 0 0-17.54 7.273l-12.38-12.377a2.977 2.977 0 0 0-4.215 0l-27.852 27.859a2.98 2.98 0 0 0 0 4.215l12.375 12.377a82.059 82.059 0 0 0-7.273 17.542H2.982A2.982 2.982 0 0 0 0 335.07v39.394a2.982 2.982 0 0 0 2.982 2.981h17.497a82.036 82.036 0 0 0 7.273 17.544l-12.375 12.377a2.98 2.98 0 0 0 0 4.215l27.852 27.855a2.979 2.979 0 0 0 4.215.001l12.38-12.377a82.154 82.154 0 0 0 17.54 7.274v17.495a2.983 2.983 0 0 0 2.982 2.981h39.394a2.982 2.982 0 0 0 2.982-2.981v-17.494a82.211 82.211 0 0 0 17.541-7.276l12.379 12.376a2.972 2.972 0 0 0 2.107.873c.763 0 1.526-.292 2.107-.873l27.854-27.854a2.98 2.98 0 0 0 0-4.215l-12.375-12.38a82.145 82.145 0 0 0 7.274-17.542h17.495a2.982 2.982 0 0 0 2.982-2.981v-39.394a2.977 2.977 0 0 0-2.979-2.981zm-55.441 22.679c0 .762-.026 1.578-.08 2.494-.014.203-.026.398-.044.597l-.014.164a35.562 35.562 0 0 1-.177 1.773c-.025.23-.058.483-.092.736a45.29 45.29 0 0 1-.324 1.973c-.038.211-.061.339-.086.465a39.78 39.78 0 0 1-.669 2.795l-.021.068a40.633 40.633 0 0 1-.57 1.892c-.065.196-.133.402-.206.609-.221.638-.445 1.24-.684 1.836l-.181.455a42.241 42.241 0 0 1-2.145 4.421l-.167.295a44.221 44.221 0 0 1-1.109 1.827c-.09.145-.17.266-.251.389a41.527 41.527 0 0 1-4.62 5.831l-.174.18a41.415 41.415 0 0 1-5.649 4.92l-.728.516c-.476.329-.979.662-1.467.97l-.18.112c-.203.128-.403.256-.609.38-.259.156-.504.295-.75.435l-.15.085c-.217.126-.339.198-.462.263-.267.148-.521.28-.773.41l-.267.136c-.639.33-1.297.646-1.947.939l-.149.067c-.337.148-.704.307-1.07.461-.341.14-.686.275-1.032.407l-.227.089c-.543.203-1.112.402-1.706.593l-.266.088-.2.061c-.056.019-.115.037-.178.061l-.65.184c-.019.005-.034.011-.052.015l-1.368.369c-.124.032-.25.063-.378.092l-.929.216c-.98.21-1.769.357-2.551.476-.09.013-.174.024-.257.034l-.234.03a40.52 40.52 0 0 1-3.053.31 41.416 41.416 0 0 1-2.733.099c-.845 0-1.723-.031-2.766-.101-.216-.013-.45-.032-.686-.05a36.714 36.714 0 0 1-1.398-.15l-.213-.025a23.466 23.466 0 0 1-.727-.083 13.131 13.131 0 0 1-.465-.06 39.153 39.153 0 0 1-3.509-.697c-.485-.115-.983-.25-1.484-.392l-.27-.071a45.333 45.333 0 0 1-1.136-.341 39.458 39.458 0 0 1-1.557-.538c-.019-.005-.035-.012-.055-.018a8.551 8.551 0 0 1-.308-.111 47.229 47.229 0 0 1-2.347-.968 42.32 42.32 0 0 1-2.112-1.017l-.323-.167c-.275-.143-.47-.243-.659-.348a38.71 38.71 0 0 1-1.291-.742c-.153-.09-.285-.172-.414-.252a2.615 2.615 0 0 0-.263-.149l-.043-.021-.244-.173a2.617 2.617 0 0 0-.116-.078c-10.33-6.612-17.201-17.336-18.849-29.425l-.059-.471a41.221 41.221 0 0 1-.201-2.028l-.047-.651a41.44 41.44 0 0 1-.079-2.491c0-.948.038-1.921.124-3.064l.014-.221c.023-.316.044-.649.08-.98l.024-.225c.072-.662.147-1.234.228-1.77.03-.188.065-.387.101-.585l.025-.153c.079-.457.146-.847.223-1.234.048-.239.097-.45.146-.661l.065-.295c.08-.358.159-.701.245-1.042.054-.21.12-.449.187-.688l.07-.25c.088-.32.175-.632.269-.942.083-.273.164-.514.243-.755l.042-.127c.111-.331.221-.663.337-.993.117-.32.222-.597.33-.874.128-.337.255-.664.39-.987.112-.275.239-.57.369-.863a36.259 36.259 0 0 1 .823-1.761c.165-.329.324-.64.486-.947a37.9 37.9 0 0 1 .948-1.69c.147-.25.306-.52.473-.786.175-.284.368-.578.561-.874.164-.252.333-.508.506-.761.196-.285.407-.577.619-.869.169-.237.342-.476.521-.71.204-.269.431-.552.656-.836l.092-.115c.146-.182.292-.369.446-.547.229-.282.46-.542.69-.801l.16-.187c.139-.161.28-.317.42-.475.24-.259.479-.509.716-.756l.234-.24c.136-.143.256-.27.38-.392.417-.416.843-.821 1.298-1.237l.214-.196c.473-.428.919-.812 1.351-1.171.157-.127.294-.236.431-.345l.088-.067c.367-.295.686-.55 1.016-.798.146-.112.32-.236.493-.36l.125-.09c.317-.228.629-.454.948-.672.173-.119.36-.241.547-.361l.146-.097c.311-.204.629-.409.952-.609.181-.112.382-.229.584-.348l.134-.078c.319-.189.631-.37.945-.544.225-.125.448-.244.671-.359l.097-.052c.335-.174.657-.345.983-.505a45.762 45.762 0 0 1 1.794-.83c.25-.11.52-.223.792-.337a49.51 49.51 0 0 1 1.858-.709 39.41 39.41 0 0 1 1.048-.356 37.02 37.02 0 0 1 1.92-.574c.271-.072.548-.149.826-.221a66.453 66.453 0 0 1 1.977-.444c.363-.07.714-.131 1.069-.193l.281-.047c.214-.037.425-.074.634-.106.394-.058.776-.103 1.157-.148l.271-.034c.207-.025.412-.05.616-.07.446-.044.911-.076 1.373-.106l.138-.011c.181-.014.345-.025.513-.036a43.315 43.315 0 0 1 4.155 0c.192.011.376.025.561.038l.26.02c.426.027.833.056 1.234.095.202.021.393.044.589.069l.436.054c.337.04.667.08.998.13.246.036.491.079.735.123l.148.024c.36.061.727.123 1.089.195.294.059.563.119.834.18a35.021 35.021 0 0 1 1.927.472l.131.034c.322.089.663.185 1.003.289.283.083.576.179.87.274.335.11.673.223 1.01.341a47.575 47.575 0 0 1 1.84.704 35.422 35.422 0 0 1 1.824.801c.261.122.538.252.814.389.302.15.61.308.913.469.283.148.551.289.814.436.313.172.607.346.899.518l.136.079c.214.126.437.255.654.39.304.189.595.378.884.567l.135.087c.193.124.403.259.609.401.275.189.526.368.774.549l.227.162c.204.145.394.282.578.423.279.209.545.421.812.634l.217.171c.171.134.334.261.492.393.375.31.735.626 1.089.943.244.214.494.441.742.675.341.313.68.634 1.014.968.153.151.288.293.421.435l.312.325c.202.206.4.414.594.624.165.181.313.35.463.52l.238.274c.204.233.395.452.585.677.155.185.314.389.476.592l.209.262c.176.222.353.443.526.669.164.218.334.452.5.686.238.327.436.6.628.88.182.267.353.528.526.79.166.255.346.531.522.812.18.294.337.554.491.815a38.712 38.712 0 0 1 1.424 2.619 40.702 40.702 0 0 1 .833 1.783c.132.299.261.597.383.896.112.263.23.572.35.879.133.351.245.64.347.929.122.346.238.69.35 1.034.104.316.194.582.275.853.097.318.184.629.27.941l.075.273c.065.232.131.46.189.693.079.317.148.618.214.92l.09.395c.052.229.097.43.138.631.075.367.134.708.192 1.051l.063.356c.036.192.067.373.097.556.086.571.159 1.134.228 1.764.002.022.005.041.005.061.012.077.022.156.027.234.033.319.056.645.078.972l.014.201c.099 1.155.137 2.118.137 3.068z" fill="#c8d0e2"/><path d="M58.733 328.53l-.08.102c-.228.286-.457.573-.654.834-.184.243-.364.49-.529.719a39.533 39.533 0 0 0-1.133 1.643c-.195.297-.389.597-.564.879a47.037 47.037 0 0 0-.996 1.692 43.052 43.052 0 0 0-1.327 2.586c-.15.319-.295.638-.427.941-.135.302-.265.607-.373.873-.137.326-.263.656-.393.99-.105.277-.211.553-.339.9-.114.327-.223.656-.331.979l-.031.1a30.066 30.066 0 0 0-.53 1.747l-.067.235c-.068.252-.137.504-.188.705-.091.351-.171.705-.249 1.061l-.06.266a25.703 25.703 0 0 0-.376 1.928l-.02.116c-.041.213-.077.428-.11.635-.09.582-.162 1.17-.227 1.758l-.03.25c-.034.341-.058.687-.083 1.034l-.011.174a42.098 42.098 0 0 0-.122 3.087c0 .791.024 1.619.079 2.543l.046.62c.053.686.119 1.368.203 2.045l.059.472c1.664 12.188 8.575 22.977 18.981 29.637l.407.29.239.116c.14.09.286.178.445.274.431.255.863.506 1.299.746.201.112.405.217.671.353l.312.162a41.372 41.372 0 0 0 3.268 1.514c.415.17.826.336 1.22.483.123.047.25.091.381.136.51.184 1.027.367 1.576.542.387.122.78.238 1.179.352l.221.059a42.544 42.544 0 0 0 2.469.62c.954.206 1.766.357 2.557.475.153.023.305.043.488.065.219.031.446.056.733.086l.187.022c.459.057.919.111 1.4.15.25.02.498.041.717.054 1.04.07 1.925.101 2.784.101.841 0 1.717-.031 2.746-.099a48.008 48.008 0 0 0 1.982-.175c-.095-.011-.195-.019-.29-.03l-.187-.022a20.98 20.98 0 0 1-.735-.086c-.18-.022-.335-.041-.486-.065a38.6 38.6 0 0 1-2.557-.475 43.82 43.82 0 0 1-2.469-.62l-.221-.059c-.396-.115-.791-.23-1.179-.352a46.532 46.532 0 0 1-1.577-.542 13.985 13.985 0 0 1-.381-.136 43.75 43.75 0 0 1-4.486-1.997l-.312-.162a20.036 20.036 0 0 1-.672-.353c-.435-.24-.87-.491-1.299-.746-.16-.097-.306-.184-.446-.274l-.237-.116-.406-.29c-10.409-6.66-17.32-17.448-18.982-29.637l-.06-.472a40.55 40.55 0 0 1-.204-2.045l-.043-.62a41.789 41.789 0 0 1-.083-2.543c0-.959.04-1.939.124-3.087l.011-.174c.023-.347.048-.693.083-1.034l.029-.25c.066-.588.14-1.175.228-1.758.032-.207.069-.423.109-.635l.02-.116c.078-.452.145-.844.223-1.23.053-.259.102-.479.154-.698l.06-.266a30.332 30.332 0 0 1 .438-1.766l.068-.235c.087-.316.175-.633.269-.946.092-.294.176-.548.259-.801l.032-.1c.106-.323.216-.652.333-.979.125-.347.23-.623.337-.9.131-.335.258-.664.392-.99.109-.266.241-.571.375-.873a39.163 39.163 0 0 1 .825-1.764c.169-.341.329-.654.493-.964.126-.24.279-.521.437-.799.16-.295.337-.595.51-.893a33.915 33.915 0 0 1 1.046-1.678c.16-.247.333-.507.508-.762.2-.29.412-.585.624-.881.166-.229.344-.477.53-.719.198-.261.427-.548.654-.834l.079-.102a35.282 35.282 0 0 1 1.16-1.377l.146-.166c.144-.164.285-.327.434-.487.252-.276.492-.525.731-.774l.214-.222a38.278 38.278 0 0 1 1.704-1.656l.209-.189c.453-.412.907-.806 1.369-1.188.167-.138.314-.256.461-.37l.091-.07c.333-.268.659-.527.992-.778.149-.114.335-.247.522-.38l.113-.08c.3-.218.616-.444.935-.665.193-.13.389-.258.581-.384l.126-.081a35.944 35.944 0 0 1 1.558-.973l.12-.069c.324-.191.637-.373.954-.549.225-.124.452-.246.679-.365l.097-.05c.337-.176.66-.344.986-.504.266-.134.538-.26.811-.389.317-.149.656-.302 1-.451.243-.108.516-.222.791-.336.373-.151.708-.283 1.044-.413.263-.1.547-.203.831-.306a48.659 48.659 0 0 1 1.906-.625c.35-.106.721-.21 1.092-.312.257-.07.535-.146.813-.217a54.026 54.026 0 0 1 2.001-.45c.373-.074.728-.134 1.082-.196l.267-.046c.214-.037.434-.072.65-.108.407-.06.791-.108 1.174-.153l.248-.03.112-.013a35.14 35.14 0 0 0-.52-.06c-.407-.04-.821-.069-1.233-.097l-.23-.018a23.31 23.31 0 0 0-.601-.04 42.317 42.317 0 0 0-4.2.001c-.181.01-.362.023-.542.036l-.094.009c-.469.03-.937.064-1.386.108-.214.021-.429.047-.643.072l-.247.03a37.13 37.13 0 0 0-1.177.153c-.217.034-.435.069-.651.108l-.265.046c-.356.063-.709.122-1.082.196a65.003 65.003 0 0 0-2.001.45c-.279.071-.555.147-.814.217a42.013 42.013 0 0 0-3.827 1.243c-.338.13-.672.261-1.046.413-.273.114-.547.228-.791.336-.344.149-.684.302-.999.451a36.953 36.953 0 0 0-1.798.893l-.095.05c-.228.12-.457.241-.68.365-.316.176-.63.358-.954.549l-.119.069c-.211.123-.417.247-.604.361-.324.201-.645.408-.956.612l-.125.081c-.196.125-.39.255-.582.384a64.58 64.58 0 0 0-.937.665l-.112.08a24.223 24.223 0 0 0-1.514 1.158l-.089.07a17.01 17.01 0 0 0-.462.37c-.463.382-.915.776-1.371 1.188l-.207.189a37.38 37.38 0 0 0-1.312 1.252c-.133.133-.263.269-.394.404l-.212.222c-.24.249-.48.498-.734.774-.145.161-.29.324-.432.487l-.145.166c-.235.266-.468.532-.689.799-.159.192-.314.385-.469.579z" fill="#acb7c9"/></svg>