<svg xmlns="http://www.w3.org/2000/svg" viewBox="0 0 512.001 512.001"><path d="M450.671 156.853H9.013A9.013 9.013 0 0 1 0 147.84V39.678a9.013 9.013 0 0 1 9.013-9.013h441.658a9.013 9.013 0 0 1 9.013 9.013v108.161a9.013 9.013 0 0 1-9.013 9.014z" fill="#e4eaf8"/><path d="M108.161 156.853H9.013A9.013 9.013 0 0 1 0 147.84V39.678a9.013 9.013 0 0 1 9.013-9.013h99.148a9.013 9.013 0 0 1 9.013 9.013v108.161a9.013 9.013 0 0 1-9.013 9.014z" fill="#ff5050"/><path d="M306.457 84.745H153.228c-4.982 0-9.013-4.031-9.013-9.013s4.031-9.013 9.013-9.013h153.228c4.982 0 9.013 4.031 9.013 9.013s-4.03 9.013-9.012 9.013z" fill="#707487"/><path d="M414.618 120.799H243.363c-4.982 0-9.013-4.031-9.013-9.013s4.031-9.013 9.013-9.013h171.255c4.982 0 9.013 4.031 9.013 9.013s-4.031 9.013-9.013 9.013zm-207.309 0h-54.081c-4.982 0-9.013-4.031-9.013-9.013s4.031-9.013 9.013-9.013h54.081c4.982 0 9.013 4.031 9.013 9.013s-4.031 9.013-9.013 9.013z" fill="#7f8499"/><path d="M58.587 111.786c-4.982 0-9.013-4.031-9.013-9.013s4.031-9.013 9.013-9.013c7.455 0 13.52-6.065 13.52-13.52s-6.065-13.52-13.52-13.52-13.52 6.065-13.52 13.52c0 4.982-4.031 9.013-9.013 9.013s-9.013-4.031-9.013-9.013c0-17.394 14.154-31.547 31.547-31.547S90.135 62.847 90.135 80.24s-14.154 31.546-31.548 31.546zm.088 27.04c-4.982 0-9.057-4.031-9.057-9.013s3.987-9.013 8.969-9.013h.088a9.008 9.008 0 0 1 9.013 9.013 9.007 9.007 0 0 1-9.013 9.013z" fill="#fff"/><path d="M450.671 319.094H9.013A9.013 9.013 0 0 1 0 310.081V201.92a9.013 9.013 0 0 1 9.013-9.013h441.658a9.013 9.013 0 0 1 9.013 9.013v108.161a9.012 9.012 0 0 1-9.013 9.013z" fill="#e4eaf8"/><path d="M108.161 319.094H9.013A9.013 9.013 0 0 1 0 310.081V201.92a9.013 9.013 0 0 1 9.013-9.013h99.148a9.013 9.013 0 0 1 9.013 9.013v108.161a9.012 9.012 0 0 1-9.013 9.013z" fill="#ffdc64"/><path d="M306.457 246.987H153.228a9.008 9.008 0 0 1-9.013-9.013 9.008 9.008 0 0 1 9.013-9.013h153.228a9.008 9.008 0 0 1 9.013 9.013 9.006 9.006 0 0 1-9.012 9.013z" fill="#707487"/><path d="M207.309 283.041h-54.081a9.008 9.008 0 0 1-9.013-9.013 9.008 9.008 0 0 1 9.013-9.013h54.081a9.008 9.008 0 0 1 9.013 9.013 9.008 9.008 0 0 1-9.013 9.013z" fill="#7f8499"/><path d="M58.587 274.027a9.008 9.008 0 0 1-9.013-9.013 9.008 9.008 0 0 1 9.013-9.013c7.455 0 13.52-6.065 13.52-13.52 0-7.455-6.065-13.52-13.52-13.52s-13.52 6.065-13.52 13.52c0 4.982-4.031 9.013-9.013 9.013s-9.013-4.031-9.013-9.013c0-17.393 14.154-31.547 31.547-31.547s31.547 14.154 31.547 31.547-14.154 31.546-31.548 31.546zm.088 27.041c-4.982 0-9.057-4.031-9.057-9.013s3.987-9.013 8.969-9.013h.088c4.982 0 9.013 4.031 9.013 9.013s-4.031 9.013-9.013 9.013z" fill="#fff"/><path d="M450.671 481.336H9.013A9.014 9.014 0 0 1 0 472.323V364.162a9.013 9.013 0 0 1 9.013-9.013h441.658a9.013 9.013 0 0 1 9.013 9.013v108.161c.001 4.977-4.035 9.013-9.013 9.013z" fill="#e4eaf8"/><path d="M108.161 481.336H9.013A9.014 9.014 0 0 1 0 472.323V364.162a9.013 9.013 0 0 1 9.013-9.013h99.148a9.013 9.013 0 0 1 9.013 9.013v108.161c.001 4.977-4.035 9.013-9.013 9.013z" fill="#7df5a5"/><path d="M306.457 409.229H153.228c-4.982 0-9.013-4.031-9.013-9.013s4.031-9.013 9.013-9.013h153.228c4.982 0 9.013 4.031 9.013 9.013s-4.03 9.013-9.012 9.013z" fill="#707487"/><path d="M207.309 445.282h-54.081c-4.982 0-9.013-4.031-9.013-9.013s4.031-9.013 9.013-9.013h54.081c4.982 0 9.013 4.031 9.013 9.013s-4.031 9.013-9.013 9.013z" fill="#7f8499"/><path d="M58.587 436.269c-4.982 0-9.013-4.031-9.013-9.013s4.031-9.013 9.013-9.013c7.455 0 13.52-6.065 13.52-13.52s-6.065-13.52-13.52-13.52-13.52 6.065-13.52 13.52c0 4.982-4.031 9.013-9.013 9.013s-9.013-4.031-9.013-9.013c0-17.394 14.154-31.547 31.547-31.547s31.547 14.154 31.547 31.547-14.154 31.546-31.548 31.546zm.088 27.04c-4.982 0-9.057-4.031-9.057-9.013s3.987-9.013 8.969-9.013h.088a9.008 9.008 0 0 1 9.013 9.013 9.007 9.007 0 0 1-9.013 9.013z" fill="#fff"/><path d="M450.671 355.148h-45.067v53.47c0 12.43 10.114 22.541 22.546 22.541 4.384 0 8.65-1.277 12.337-3.692l3.616-2.371 15.582 37.618v-98.553a9.014 9.014 0 0 0-9.014-9.013zm-6.598-74.512c-4.262-4.262-9.909-6.609-15.902-6.609-12.443 0-22.566 10.113-22.566 22.543v22.525h45.067a9.013 9.013 0 0 0 9.013-9.013V296.25l-15.612-15.614z" fill="#d5dced"/><path d="M423.631 296.57v112.048c0 3.584 3.979 5.734 6.978 3.769l21.819-14.3 27.947 67.471a9.014 9.014 0 0 0 11.776 4.879l13.664-5.66A9.015 9.015 0 0 0 510.694 453l-27.947-67.471 25.638-5.189c3.523-.713 4.835-5.062 2.293-7.604l-79.352-79.352c-2.84-2.841-7.695-.83-7.695 3.186z" fill="#464655"/><path d="M396.591 283.041H243.363a9.013 9.013 0 0 1 0-18.026h153.228a9.013 9.013 0 0 1 0 18.026zm0 162.241H243.363a9.013 9.013 0 0 1 0-18.026h153.228a9.013 9.013 0 0 1 9.013 9.013 9.013 9.013 0 0 1-9.013 9.013z" fill="#7f8499"/></svg>